<svg width="43" height="39" viewBox="0 0 43 39" fill="none" xmlns="http://www.w3.org/2000/svg">
<path d="M41.8522 34.2774L23.4393 2.04441C22.2012 -0.121573 20.1747 -0.121573 18.9418 2.04441L0.528907 34.2774C-0.709205 36.4434 0.301391 38.2136 2.77761 38.2136H39.6035C42.0797 38.2136 43.0903 36.4434 41.8522 34.2774ZM21.2646 33.9405C19.5874 33.9405 18.2276 32.566 18.2276 30.8706C18.2276 29.1753 19.5874 27.8008 21.2646 27.8008C22.9419 27.8008 24.3017 29.1753 24.3017 30.8706C24.3017 32.566 22.9419 33.9405 21.2646 33.9405ZM24.889 13.8958L24.4604 22.0409C24.3705 23.7042 22.9525 25.068 21.3017 25.068H21.2276C19.5768 25.068 18.1429 23.7042 18.0371 22.0463L17.5186 13.9011C17.4127 12.2379 18.6773 10.8741 20.3281 10.8741H22.053C23.7038 10.8741 24.979 12.2379 24.8943 13.9011L24.889 13.8958Z" fill="#FF827E"/>
</svg>
