<svg width="19" height="17" viewBox="0 0 19 17" fill="none" xmlns="http://www.w3.org/2000/svg">
<path d="M18.7629 15.2295L10.5081 0.730711C9.95306 -0.24357 9.04457 -0.24357 8.49188 0.730711L0.237116 15.2295C-0.317946 16.2037 0.135117 17 1.24524 17H17.7548C18.8649 17 19.3179 16.2037 18.7629 15.2295ZM9.53321 15.0779C8.78127 15.0779 8.17165 14.4597 8.17165 13.6971C8.17165 12.9345 8.78127 12.3162 9.53321 12.3162C10.2852 12.3162 10.8948 12.9345 10.8948 13.6971C10.8948 14.4597 10.2852 15.0779 9.53321 15.0779ZM11.1581 6.06159L10.9659 9.72537C10.9256 10.4735 10.2899 11.087 9.54981 11.087H9.5166C8.77652 11.087 8.1337 10.4735 8.08625 9.72777L7.85379 6.064C7.80635 5.31585 8.37327 4.70241 9.11335 4.70241H9.88665C10.6267 4.70241 11.1984 5.31585 11.1604 6.064L11.1581 6.06159Z" fill="#FF827E"/>
</svg>
