<svg width="21" height="21" viewBox="0 0 21 21" fill="none" xmlns="http://www.w3.org/2000/svg">
<path d="M10.2627 20.4C7.46271 20.4 4.76266 20.4 1.96266 20.4C0.962659 20.4 0.262635 19.9 0.0626348 19C-0.137365 18.3 0.162732 17.7 0.662732 17.2C1.26273 16.7 1.76263 16.1 2.06263 15.5C2.66263 14.4 2.96266 13.2 2.96266 12C2.96266 11 2.96266 10 2.96266 9C3.06266 5.6 5.56268 2.7 8.86268 2.2C9.06268 2.2 9.06263 2.1 9.06263 1.9C9.06263 1.6 9.06263 1.3 9.06263 1C9.06263 0.4 9.56263 0 10.0626 0C10.5626 0 11.0626 0.4 11.0626 1C11.0626 1.3 11.0626 1.6 11.0626 2C11.0626 2.1 11.0627 2.2 11.2627 2.2C14.2627 2.7 16.4626 4.9 17.0626 7.9C17.1626 8.4 17.1627 8.9 17.1627 9.4C17.1627 10.5 17.1627 11.6 17.2627 12.6C17.3627 14.4 18.1626 16 19.5626 17.2C19.9626 17.6 20.2627 18 20.3627 18.5C20.4627 19.6 19.6626 20.5 18.5626 20.5C17.6626 20.5 16.7627 20.5 15.7627 20.5C13.9627 20.4 12.1627 20.4 10.2627 20.4Z" fill="white"/>
</svg>
