<svg width="113" height="78" viewBox="0 0 113 78" fill="none" xmlns="http://www.w3.org/2000/svg">
<path d="M112.8 35H98.8C98.7 48.3 87.9 59.1001 74.5 59.1001C61.2 59.1001 50.2999 48.3 50.2 35H42.1V35.3C28.1 35.3 14 35.3 0 35.3C0 47.4 0 59.6002 0 71.7002C0.1 71.8002 0.0999512 71.9 0.199951 72C1.39995 75.9 3.69999 77.7002 7.79999 77.7002C40.3 77.7002 72.7 77.7002 105.2 77.7002C110 77.7002 112.9 74.8 112.9 70C112.9 66.3 112.9 62.5 112.9 58.8V35H112.8ZM31.3 56.4001C29.1 56.4001 26.8 56.4001 24.6 56.4001C22.4 56.4001 20.2 56.4001 18 56.4001C15.7 56.4001 14.2 55.0001 14.1 52.9001C14.1 50.8001 15.7 49.3 18 49.3C22.4 49.3 26.9 49.3 31.3 49.3C33.6 49.3 35.2 50.8 35.2 52.8C35.2 55 33.6 56.4001 31.3 56.4001Z" fill="#5E5490"/>
<path d="M106.102 0H48.9016C48.9016 0 48.9016 0 48.8016 0C39.4016 0 29.9016 0 20.5016 0H19.4016C15.4016 0 11.3016 0 7.30157 0C6.20157 0 5.00155 0.400049 3.90155 0.800049C1.70155 1.80005 0.701563 3.70015 0.101562 5.90015C0.101562 11.0001 0.101562 16.0001 0.101562 21.1001C6.50156 21.1001 13.0016 21.1001 19.4016 21.1001C29.9016 21.1001 40.3015 21.1001 50.7015 21.1001H54.6016C59.0016 14.7001 66.3016 10.5 74.6016 10.5C82.9016 10.5 90.3016 14.7001 94.6016 21.1001H112.802V6.6001C112.802 3.0001 109.802 0 106.102 0Z" fill="#5E5490"/>
<path d="M74.5969 15.1016C63.6969 15.1016 54.7969 23.9016 54.7969 34.9016C54.7969 45.8016 63.5969 54.7017 74.5969 54.7017C85.4969 54.7017 94.3969 45.9016 94.3969 34.9016C94.2969 23.9016 85.4969 15.1016 74.5969 15.1016ZM84.3969 44.7017C83.0969 46.0017 81.0969 46.0017 79.7969 44.7017L74.4969 39.4016L69.1968 44.7017C67.8968 46.0017 65.8969 46.0017 64.5969 44.7017C63.2969 43.4017 63.2969 41.4016 64.5969 40.1016L69.8969 34.8015L64.5969 29.5015C63.2969 28.2015 63.2969 26.2016 64.5969 24.9016C65.8969 23.6016 67.8968 23.6016 69.1968 24.9016L74.4969 30.2017L79.7969 24.9016C81.0969 23.6016 83.0969 23.6016 84.3969 24.9016C85.6968 26.2016 85.6968 28.2015 84.3969 29.5015L79.0969 34.8015L84.3969 40.1016C85.6968 41.3016 85.6968 43.4017 84.3969 44.7017Z" fill="#5E5490"/>
</svg>
