<svg width="18" height="19" viewBox="0 0 18 19" fill="none" xmlns="http://www.w3.org/2000/svg">
<path d="M1.66406 4.4H3.33073M3.33073 4.4H16.6641M3.33073 4.4V16.3C3.33073 16.7509 3.50632 17.1833 3.81888 17.5021C4.13145 17.8209 4.55537 18 4.9974 18H13.3307C13.7728 18 14.1967 17.8209 14.5092 17.5021C14.8218 17.1833 14.9974 16.7509 14.9974 16.3V4.4M5.83073 4.4V2.7C5.83073 2.24913 6.00632 1.81673 6.31888 1.49792C6.63145 1.17911 7.05537 1 7.4974 1H10.8307C11.2728 1 11.6967 1.17911 12.0092 1.49792C12.3218 1.81673 12.4974 2.24913 12.4974 2.7V4.4M7.4974 8.65V13.75M10.8307 8.65V13.75" stroke="white" stroke-width="1.5" stroke-linecap="round" stroke-linejoin="round"/>
</svg>
