<svg width="33" height="37" viewBox="0 0 33 37" fill="none" xmlns="http://www.w3.org/2000/svg">
<path d="M17.2771 0.691406C18.0468 0.801361 18.8165 0.911315 19.4762 1.24118C23.5445 2.56063 26.1835 6.62892 25.8536 10.8072C25.5237 15.2054 22.225 18.8339 17.9368 19.4936C12.659 20.3732 7.82111 16.7447 7.05143 11.4669C6.28175 6.51898 9.91021 1.57105 14.8582 0.801367C15.0781 0.801367 15.4079 0.691406 15.7377 0.691406C16.1775 0.691406 16.7273 0.691406 17.2771 0.691406Z" fill="#7E6EAB"/>
<path d="M16.5112 36.5392C11.6732 36.5392 6.83513 36.5392 1.99713 36.5392C1.1175 36.5392 0.677734 36.0993 0.677734 35.2197C0.787689 28.7324 5.40575 23.1247 11.7831 21.9152C12.5528 21.8052 13.2125 21.6953 13.9822 21.6953C15.5216 21.6953 17.061 21.6953 18.6004 21.6953C24.7578 21.6953 30.0355 25.8736 31.6848 31.8111C32.0147 32.9106 32.1247 34.1202 32.1247 35.3296C32.1247 36.0993 31.6849 36.5392 30.9152 36.5392C26.1872 36.5392 21.3492 36.5392 16.5112 36.5392Z" fill="#7E6EAB"/>
</svg>
