<svg width="34" height="42" viewBox="0 0 34 42" fill="none" xmlns="http://www.w3.org/2000/svg">
<path d="M25.0916 12.1025V9.15023M25.0916 6.19795H25.099M32.4723 9.15023C32.4723 13.2265 29.1679 16.5309 25.0916 16.5309C21.0154 16.5309 17.7109 13.2265 17.7109 9.15023C17.7109 5.07398 21.0154 1.76953 25.0916 1.76953C29.1679 1.76953 32.4723 5.07398 32.4723 9.15023Z" stroke="#EDE8FA" stroke-width="2.46023" stroke-linecap="round" stroke-linejoin="round"/>
<path d="M15.9006 29.168V29.1507L15.8982 29.1337C15.7852 28.3312 15.2041 27.5692 14.3209 27.5692H7.44747C6.59019 27.5692 5.86779 28.307 5.86779 29.168C5.86779 30.0289 6.59019 30.7667 7.44747 30.7667H14.3209C15.1782 30.7667 15.9006 30.0289 15.9006 29.168ZM22.774 22.092V22.0748L22.7716 22.0577C22.6586 21.2553 22.0776 20.4932 21.1944 20.4932H7.44747C6.59019 20.4932 5.86779 21.231 5.86779 22.092C5.86779 22.953 6.59019 23.6908 7.44747 23.6908H21.1944C22.0517 23.6908 22.774 22.953 22.774 22.092ZM7.34488 16.7189H17.604C19.4812 18.5906 21.977 19.8406 24.8876 19.8406C25.7273 19.8406 26.5614 19.6747 27.3088 19.4931V38.0129C27.3088 39.6549 26.0767 40.8886 24.5798 40.8886H3.95945C2.46777 40.8886 1.2304 39.5562 1.2304 38.0129V9.81315C1.2304 8.1712 2.46258 6.93743 3.95945 6.93743H15.0079C14.9089 7.24785 14.8345 7.51171 14.7834 7.82217C14.716 8.23283 14.6904 8.71741 14.6904 9.50098C14.6904 10.9494 14.9501 12.3171 15.4745 13.5213H7.34488C6.4876 13.5213 5.7652 14.2591 5.7652 15.1201C5.7652 15.9811 6.4876 16.7189 7.34488 16.7189Z" fill="#EDE8FA" stroke="#A296CC" stroke-width="0.492046"/>
</svg>
