<svg width="114" height="118" viewBox="0 0 114 118" fill="none" xmlns="http://www.w3.org/2000/svg">
<path d="M106.172 33.6797H7.57166C6.57166 33.6797 5.87163 34.4797 6.17163 35.2797L10.0717 45.9797C10.2717 46.4797 10.8716 46.8797 11.4716 46.8797H102.272C102.872 46.8797 103.472 46.4797 103.672 45.9797L107.572 35.2797C107.972 34.4797 107.172 33.6797 106.172 33.6797Z" fill="#534988"/>
<path d="M109.47 30.1766L113.67 18.5765C113.97 17.7765 113.27 16.9766 112.27 16.9766H1.47004C0.470037 16.9766 -0.229927 17.7765 0.0700733 18.5765L4.27009 30.1766C4.47009 30.6766 5.07005 31.0765 5.67005 31.0765H107.97C108.77 31.0765 109.27 30.6766 109.47 30.1766Z" fill="#534988"/>
<path d="M11.9689 51.0765L16.1689 62.6766C16.3689 63.1766 16.9689 63.5765 17.5689 63.5765H96.0689C96.6689 63.5765 97.2689 63.1766 97.4689 62.6766L101.669 51.0765C101.969 50.2765 101.269 49.4766 100.269 49.4766H13.269C12.369 49.4766 11.6689 50.2765 11.9689 51.0765Z" fill="#534988"/>
<path d="M80.3688 27.5781H33.4688C30.9688 27.5781 28.9688 29.7781 28.9688 32.5781V96.5781C28.9688 98.4781 29.8688 100.178 31.3688 100.978L48.3688 109.578C53.6688 112.278 60.1688 112.278 65.4688 109.578L82.4688 100.978C83.9688 100.078 84.8688 98.3781 84.8688 96.5781V32.5781C84.8688 29.8781 82.8688 27.5781 80.3688 27.5781Z" fill="#534988"/>
<path d="M38.8672 42.5781H75.0672C75.639 42.5781 76.2183 42.8747 76.6996 43.5003C77.1804 44.1254 77.5211 45.0376 77.5672 46.099V104.178C77.5672 105.612 76.9834 106.754 76.1319 107.333L63.062 115.115C63.0611 115.116 63.0601 115.116 63.0591 115.117C59.2727 117.332 54.6618 117.332 50.8754 115.117C50.8744 115.116 50.8734 115.116 50.8724 115.115L37.8025 107.333C36.9509 106.754 36.3672 105.612 36.3672 104.178V46.0781C36.3672 43.8909 37.7318 42.5781 38.8672 42.5781Z" fill="#534988" stroke="#EDE8FA" stroke-width="2"/>
<path d="M106.172 33.6797H7.57166C6.57166 33.6797 5.87163 34.4797 6.17163 35.2797L10.0717 45.9797C10.2717 46.4797 10.8716 46.8797 11.4716 46.8797H102.272C102.872 46.8797 103.472 46.4797 103.672 45.9797L107.572 35.2797C107.972 34.4797 107.172 33.6797 106.172 33.6797Z" fill="#534988"/>
<path d="M106.172 33.6797H7.57166C6.57166 33.6797 5.87163 34.4797 6.17163 35.2797L10.0717 45.9797C10.2717 46.4797 10.8716 46.8797 11.4716 46.8797H102.272C102.872 46.8797 103.472 46.4797 103.672 45.9797L107.572 35.2797C107.972 34.4797 107.172 33.6797 106.172 33.6797Z" fill="#534988"/>
<mask id="mask0_807_47974" style="mask-type:luminance" maskUnits="userSpaceOnUse" x="6" y="33" width="102" height="14">
<path d="M106.172 33.6797H7.57166C6.57166 33.6797 5.87163 34.4797 6.17163 35.2797L10.0717 45.9797C10.2717 46.4797 10.8716 46.8797 11.4716 46.8797H102.272C102.872 46.8797 103.472 46.4797 103.672 45.9797L107.572 35.2797C107.972 34.4797 107.172 33.6797 106.172 33.6797Z" fill="white"/>
</mask>
<g mask="url(#mask0_807_47974)">
<path d="M106.172 39.8828H7.57166C6.57166 39.8828 5.87163 40.2828 6.17163 40.7828L10.0717 46.4828C10.2717 46.7828 10.8716 46.9828 11.4716 46.9828H102.272C102.872 46.9828 103.472 46.7828 103.672 46.4828L107.572 40.7828C107.972 40.2828 107.172 39.8828 106.172 39.8828Z" fill="#534988"/>
</g>
<path d="M109.47 30.1766L113.67 18.5765C113.97 17.7765 113.27 16.9766 112.27 16.9766H1.47004C0.470037 16.9766 -0.229927 17.7765 0.0700733 18.5765L4.27009 30.1766C4.47009 30.6766 5.07005 31.0765 5.67005 31.0765H107.97C108.77 31.0765 109.27 30.6766 109.47 30.1766Z" fill="#534988"/>
<path d="M109.47 30.1766L113.67 18.5765C113.97 17.7765 113.27 16.9766 112.27 16.9766H1.47004C0.470037 16.9766 -0.229927 17.7765 0.0700733 18.5765L4.27009 30.1766C4.47009 30.6766 5.07005 31.0765 5.67005 31.0765H107.97C108.77 31.0765 109.27 30.6766 109.47 30.1766Z" fill="#534988"/>
<mask id="mask1_807_47974" style="mask-type:luminance" maskUnits="userSpaceOnUse" x="0" y="16" width="114" height="16">
<path d="M109.47 30.1766L113.67 18.5765C113.97 17.7765 113.27 16.9766 112.27 16.9766H1.47004C0.470037 16.9766 -0.229927 17.7765 0.0700733 18.5765L4.27009 30.1766C4.47009 30.6766 5.07005 31.0765 5.67005 31.0765H107.97C108.77 31.0765 109.27 30.6766 109.47 30.1766Z" fill="white"/>
</mask>
<g mask="url(#mask1_807_47974)">
<path d="M109.47 30.6782L113.67 24.8782C113.97 24.4782 113.27 24.0781 112.27 24.0781H1.47004C0.470037 24.0781 -0.229927 24.4782 0.0700733 24.8782L4.27009 30.6782C4.47009 30.9782 5.07005 31.0781 5.67005 31.0781H107.97C108.77 31.0781 109.27 30.8782 109.47 30.6782Z" fill="#534988"/>
</g>
<path d="M11.9689 51.0765L16.1689 62.6766C16.3689 63.1766 16.9689 63.5765 17.5689 63.5765H96.0689C96.6689 63.5765 97.2689 63.1766 97.4689 62.6766L101.669 51.0765C101.969 50.2765 101.269 49.4766 100.269 49.4766H13.269C12.369 49.4766 11.6689 50.2765 11.9689 51.0765Z" fill="#534988"/>
<path d="M11.9689 51.0765L16.1689 62.6766C16.3689 63.1766 16.9689 63.5765 17.5689 63.5765H96.0689C96.6689 63.5765 97.2689 63.1766 97.4689 62.6766L101.669 51.0765C101.969 50.2765 101.269 49.4766 100.269 49.4766H13.269C12.369 49.4766 11.6689 50.2765 11.9689 51.0765Z" fill="#534988"/>
<mask id="mask2_807_47974" style="mask-type:luminance" maskUnits="userSpaceOnUse" x="11" y="49" width="91" height="15">
<path d="M11.9689 51.0765L16.1689 62.6766C16.3689 63.1766 16.9689 63.5765 17.5689 63.5765H96.0689C96.6689 63.5765 97.2689 63.1766 97.4689 62.6766L101.669 51.0765C101.969 50.2765 101.269 49.4766 100.269 49.4766H13.269C12.369 49.4766 11.6689 50.2765 11.9689 51.0765Z" fill="white"/>
</mask>
<g mask="url(#mask2_807_47974)">
<path d="M11.9689 57.3782L16.1689 63.1782C16.3689 63.4782 16.9689 63.5781 17.5689 63.5781H96.0689C96.6689 63.5781 97.2689 63.3782 97.4689 63.1782L101.669 57.3782C101.969 56.9782 101.269 56.5781 100.269 56.5781H13.269C12.369 56.5781 11.6689 56.9782 11.9689 57.3782Z" fill="#534988"/>
</g>
<path d="M94.1719 55.975V26.575C94.1719 22.375 91.8719 18.475 88.2719 16.375L62.8719 1.575C59.1719 -0.525 54.6719 -0.525 51.0719 1.575L25.5719 16.275C21.8719 18.375 19.6719 22.275 19.6719 26.475V55.975C19.6719 60.175 21.9719 64.075 25.5719 66.175L51.0719 80.875C54.7719 82.975 59.2719 82.975 62.8719 80.875L88.3719 66.175C91.9719 64.075 94.1719 60.175 94.1719 55.975Z" fill="#534988"/>
<path d="M82.6697 61.2118L82.6688 61.2123L61.3698 73.6118C58.5802 75.2315 55.2635 75.2315 52.474 73.6118L52.4719 73.6106L31.174 61.3118C31.1736 61.3116 31.1732 61.3113 31.1728 61.3111C28.3727 59.6847 26.6719 56.8094 26.6719 53.5766V28.9766C26.6719 25.838 28.3777 22.8655 31.1731 21.2419C31.1734 21.2417 31.1737 21.2416 31.174 21.2414L52.4719 8.94255L52.474 8.94135C55.2635 7.32163 58.5802 7.32163 61.3698 8.94135L61.3718 8.94254L82.6718 21.2426L82.6814 21.2481L82.691 21.2534C85.4635 22.7738 87.1719 25.7332 87.1719 28.8766V53.4766C87.1719 56.6155 85.4657 59.5883 82.6697 61.2118Z" fill="#534988" stroke="#EDE8FA" stroke-width="2"/>
<path d="M84.8688 30.1735V52.2734C84.8688 55.4734 83.1688 58.3734 80.4688 59.9734L61.3688 70.9734C58.6688 72.5734 55.2687 72.5734 52.4688 70.9734L33.3688 59.9734C30.6688 58.3734 28.9688 55.4734 28.9688 52.2734V30.1735C28.9688 26.9734 30.6688 24.0734 33.3688 22.4734L52.4688 11.4734C55.1688 9.87344 58.5688 9.87344 61.3688 11.4734L80.4688 22.4734C83.1688 24.0734 84.8688 27.0735 84.8688 30.1735Z" fill="#534988"/>
<path d="M69.9701 50.4748C69.5701 50.4748 69.1701 50.6748 68.9701 50.9748C66.1701 54.4748 61.8701 56.6748 56.9701 56.6748C50.1701 56.6748 44.3701 52.2748 42.3701 46.0748C42.0701 45.1748 42.7701 44.2748 43.6701 44.2748H59.2702H72.1701H77.1701C77.8701 44.2748 78.4701 43.7748 78.4701 43.0748C78.5701 42.4748 78.5701 41.8748 78.5701 41.2748C78.5701 29.4748 69.0701 19.8748 57.3701 19.6748C45.1701 19.4748 35.1701 29.4748 35.3701 41.6748C35.5701 53.3748 45.1701 62.8748 56.9701 62.8748C64.7701 62.8748 71.5701 58.7748 75.3701 52.5748C75.9701 51.6748 75.2702 50.4748 74.2702 50.4748H69.9701ZM56.9701 25.7748C63.7701 25.7748 69.5701 30.1748 71.5701 36.3748C71.8701 37.2748 71.1702 38.1748 70.2702 38.1748H43.5701C42.6701 38.1748 41.9702 37.2748 42.2702 36.3748C44.2702 30.2748 50.0701 25.7748 56.9701 25.7748Z" fill="#534988"/>
<path d="M69.9701 50.4748C69.5701 50.4748 69.1701 50.6748 68.9701 50.9748C66.1701 54.4748 61.8701 56.6748 56.9701 56.6748C50.1701 56.6748 44.3701 52.2748 42.3701 46.0748C42.0701 45.1748 42.7701 44.2748 43.6701 44.2748H59.2702H72.1701H77.1701C77.8701 44.2748 78.4701 43.7748 78.4701 43.0748C78.5701 42.4748 78.5701 41.8748 78.5701 41.2748C78.5701 29.4748 69.0701 19.8748 57.3701 19.6748C45.1701 19.4748 35.1701 29.4748 35.3701 41.6748C35.5701 53.3748 45.1701 62.8748 56.9701 62.8748C64.7701 62.8748 71.5701 58.7748 75.3701 52.5748C75.9701 51.6748 75.2702 50.4748 74.2702 50.4748H69.9701ZM56.9701 25.7748C63.7701 25.7748 69.5701 30.1748 71.5701 36.3748C71.8701 37.2748 71.1702 38.1748 70.2702 38.1748H43.5701C42.6701 38.1748 41.9702 37.2748 42.2702 36.3748C44.2702 30.2748 50.0701 25.7748 56.9701 25.7748Z" fill="#EDE8FA"/>
</svg>
