<svg width="17" height="30" viewBox="0 0 17 30" fill="none" xmlns="http://www.w3.org/2000/svg">
<path d="M13.7592 7.6453H16.3503C16.7071 7.6453 16.9981 7.34503 16.9981 6.97687V1.62937C16.9981 1.2612 16.7071 0.960938 16.3503 0.960938H12.4637C8.53537 0.960938 5.33835 4.26004 5.33835 8.31374V11.7094H0.804012C0.447225 11.7094 0.15625 12.0097 0.15625 12.3778V17.6719C0.15625 18.04 0.447238 18.3403 0.804012 18.3403H4.88783V28.3668C4.88783 28.735 5.17881 29.0353 5.53559 29.0353H10.9441C11.3009 29.0353 11.5918 28.735 11.5918 28.3668V18.3403H14.9991C15.2938 18.3403 15.5532 18.1366 15.6278 17.839L16.979 12.4915C17.0309 12.2904 16.9892 12.0776 16.8652 11.9131C16.7425 11.7499 16.554 11.652 16.3541 11.652H11.8197V9.64669C11.8197 8.54089 12.6914 7.64138 13.763 7.64138L13.7592 7.6453ZM11.1682 12.9928H15.5114L14.4981 17.0034H10.9418C10.5851 17.0034 10.2941 17.3037 10.2941 17.6719V27.6984H6.18112V17.6719C6.18112 17.3037 5.89013 17.0034 5.53335 17.0034H1.44954V13.0463H5.98387C6.34066 13.0463 6.63163 12.746 6.63163 12.3778V8.31374C6.63163 4.99766 9.24545 2.29781 12.4615 2.29781H15.7003V6.30843H13.757C11.9719 6.30843 10.5182 7.8085 10.5182 9.65061V12.3244C10.5182 12.6925 10.8092 12.9928 11.166 12.9928H11.1682Z" fill="#473171"/>
<path d="M7.17568 4.70503L9.98311 2.3655L10.451 1.89759L11.3868 1.42969H13.7264H16.5338V2.8334L16.0659 4.23712C16.2219 4.70503 16.5338 5.73442 16.5338 6.10874C16.5338 6.48307 15.9099 6.88859 15.598 7.04455H13.2585L12.3226 7.98037L11.3868 8.91618V11.2557V12.1915H12.3226H14.1943H16.0659V12.6594L15.598 14.9989L15.1301 16.8706L14.1943 17.8064H11.3868L10.9189 18.2743V20.1459V22.9533V25.7608V27.6324L10.451 28.1003L9.0473 28.5682H6.70777L5.77196 28.1003L5.30406 26.6966V19.2101V17.8064L3.43243 17.3385H0.625V14.0631L1.56081 12.6594H3.90034L5.77196 12.1915V11.2557V8.91618L6.23987 6.10874L7.17568 4.70503Z" fill="#473171"/>
</svg>
