<svg width="26" height="20" viewBox="0 0 26 20" fill="none" xmlns="http://www.w3.org/2000/svg">
<path opacity="0.8" d="M0.545898 17.2686C0.545898 12.271 0.545898 7.34914 0.545898 2.35156V2.27583C0.69734 1.21574 1.68172 0.382812 2.96898 0.382812C5.46776 0.382812 8.04227 0.382812 10.5411 0.382812C10.7682 0.382812 10.9954 0.458529 11.1468 0.685691C11.6769 1.36718 12.2826 1.97295 12.8127 2.65444C12.9641 2.80588 13.0399 2.88159 13.267 2.88159C16.4473 2.88159 19.6276 2.88159 22.8079 2.88159C24.1708 2.88159 25.1552 3.79024 25.1552 5.15322C25.1552 9.0907 25.1552 13.1039 25.1552 17.0414C25.1552 17.7986 24.8523 18.4044 24.2466 18.8587C23.7922 19.2373 23.2622 19.313 22.7321 19.313C17.9617 19.313 13.1913 19.313 8.49659 19.313C6.67929 19.313 4.862 19.313 2.96898 19.313C2.36321 19.313 1.75743 19.1616 1.30311 18.7072C0.848782 18.3286 0.69734 17.7986 0.545898 17.2686Z" fill="#564589"/>
</svg>
