<svg width="29" height="30" viewBox="0 0 29 30" fill="none" xmlns="http://www.w3.org/2000/svg">
<path d="M7.23342 29.0353H22.294C25.8842 29.0353 28.8009 26.1255 28.8009 22.5543L28.7994 7.44192C28.7994 3.86599 25.878 0.960938 22.2925 0.960938H7.23345C3.64323 0.960938 0.726562 3.8707 0.726562 7.44192V22.5559C0.726562 26.1272 3.64791 29.0353 7.23342 29.0353ZM3.08823 7.44192C3.08823 5.16466 4.94563 3.31324 7.23342 3.31324H22.294C24.5804 3.31324 26.4392 5.16325 26.4392 7.44192V22.5559C26.4392 24.8331 24.5818 26.6845 22.294 26.6845L7.23342 26.683C4.94705 26.683 3.08823 24.833 3.08823 22.5543V7.44192Z" fill="#473171"/>
<path d="M14.763 21.8695C18.5701 21.8695 21.6667 18.7837 21.6667 14.9934C21.6667 11.2015 18.57 8.11719 14.763 8.11719C10.956 8.11719 7.85938 11.2015 7.85938 14.9934C7.85938 18.7852 10.956 21.8695 14.763 21.8695ZM14.763 10.4695C17.2662 10.4695 19.305 12.5002 19.305 14.9934C19.305 17.4865 17.2662 19.5172 14.763 19.5172C12.2599 19.5172 10.2211 17.4865 10.2211 14.9934C10.2211 12.5002 12.2599 10.4695 14.763 10.4695Z" fill="#473171"/>
<path d="M22.8958 5.68143C25.2191 6.64011 23.7753 10.1089 21.452 9.1517C19.1303 8.19302 20.5725 4.72271 22.8958 5.68143Z" fill="#473171"/>
</svg>
