<svg width="27" height="27" viewBox="0 0 27 27" fill="none" xmlns="http://www.w3.org/2000/svg">
<path d="M15.4648 2.5772H12.7357V1.66751C12.7357 1.16718 12.3264 0.757812 11.826 0.757812H4.54848C4.04814 0.757812 3.63878 1.16718 3.63878 1.66751V2.5772H0.909696C0.409363 2.5772 0 2.98657 0 3.4869V23.5002C0 24.0005 0.409363 24.4099 0.909696 24.4099H14.2003C13.7273 23.9187 13.3452 23.3547 13.0541 22.7361C13.0359 22.6906 13.0086 22.6451 12.9905 22.5905H1.81939V4.39659H3.63878V5.30629C3.63878 5.80662 4.04814 6.21599 4.54848 6.21599H11.826C12.3264 6.21599 12.7357 5.80662 12.7357 5.30629V4.39659H14.5551V14.9582C15.0464 14.4851 15.6104 14.103 16.229 13.8119C16.2745 13.7938 16.3199 13.7665 16.3745 13.7483V3.4869C16.3745 2.98657 15.9652 2.5772 15.4648 2.5772ZM10.9163 4.39659H5.45817V2.5772H10.9163V4.39659Z" fill="#8653FF"/>
<path d="M12.7396 4.39453V5.30423C12.7396 5.80456 12.3302 6.21392 11.8299 6.21392H4.55233C4.052 6.21392 3.64263 5.80456 3.64263 5.30423V4.39453H1.82324V22.5884H12.9943C12.6122 21.7515 12.403 20.8327 12.403 19.8594C12.403 18.04 13.1308 16.3843 14.3225 15.1744C14.3952 15.0926 14.4771 15.0198 14.559 14.9561V4.39453H12.7396ZM7.0176 19.5955L5.19821 21.4149C5.01627 21.5878 4.78885 21.6787 4.55233 21.6787C4.31581 21.6787 4.08838 21.5878 3.90645 21.4149L2.99675 20.5052C2.64197 20.1505 2.64197 19.5683 2.99675 19.2135C3.35153 18.8587 3.93374 18.8587 4.28852 19.2135L4.55233 19.4773L5.72584 18.3038C6.08062 17.949 6.66282 17.949 7.0176 18.3038C7.37239 18.6586 7.37239 19.2408 7.0176 19.5955ZM7.0176 14.1374L5.19821 15.9568C5.01627 16.1296 4.78885 16.2206 4.55233 16.2206C4.31581 16.2206 4.08838 16.1296 3.90645 15.9568L2.99675 15.0471C2.64197 14.6923 2.64197 14.1101 2.99675 13.7553C3.35153 13.4005 3.93374 13.4005 4.28852 13.7553L4.55233 14.0191L5.72584 12.8456C6.08062 12.4908 6.66282 12.4908 7.0176 12.8456C7.37239 13.2004 7.37239 13.7826 7.0176 14.1374ZM7.0176 8.6792L5.19821 10.4986C5.01627 10.6714 4.78885 10.7624 4.55233 10.7624C4.31581 10.7624 4.08838 10.6714 3.90645 10.4986L2.99675 9.58889C2.64197 9.23411 2.64197 8.65191 2.99675 8.29712C3.35153 7.94234 3.93374 7.94234 4.28852 8.29712L4.55233 8.56094L5.72584 7.38743C6.08062 7.03265 6.66282 7.03265 7.0176 7.38743C7.37239 7.74221 7.37239 8.32442 7.0176 8.6792Z" fill="#8653FF"/>
<path d="M20.6325 14C19.6591 14 18.7313 14.2183 17.9034 14.6186C17.2212 14.937 16.6026 15.3827 16.084 15.9195C14.956 17.0657 14.2646 18.6394 14.2646 20.3679C14.2646 21.3412 14.483 22.2691 14.8832 23.097C15.2016 23.7792 15.6474 24.3978 16.1841 24.9163C17.3303 26.0444 18.9041 26.7357 20.6325 26.7357C24.1439 26.7357 27.0004 23.8793 27.0004 20.3679C27.0004 16.8564 24.1439 14 20.6325 14ZM25.09 21.2594C25.0445 21.4777 24.9809 21.696 24.9081 21.9144C24.8717 22.0144 24.8262 22.1236 24.7807 22.2236C24.7352 22.3328 24.6898 22.4329 24.6352 22.5329C24.526 22.724 24.4078 22.9059 24.2804 23.0788C24.2167 23.1697 24.1439 23.2516 24.0712 23.3426C23.9256 23.5063 23.771 23.661 23.6072 23.8065C23.5163 23.8793 23.4344 23.9521 23.3434 24.0157C23.1706 24.1522 22.9886 24.2614 22.7976 24.3705C22.6975 24.4251 22.5975 24.4706 22.4883 24.5161C22.3882 24.5616 22.2791 24.6071 22.179 24.6434C21.9607 24.7162 21.7423 24.7799 21.524 24.8254C21.2329 24.8891 20.9327 24.9163 20.6325 24.9163C20.3323 24.9163 20.0321 24.8891 19.741 24.8254C19.5227 24.7799 19.3044 24.7162 19.086 24.6434C18.986 24.6071 18.8768 24.5616 18.7767 24.5161C18.6676 24.4706 18.5675 24.4251 18.4674 24.3705C18.2764 24.2614 18.0945 24.1431 17.9216 24.0157C17.8307 23.9521 17.7488 23.8793 17.6578 23.8065C17.4941 23.661 17.3394 23.5063 17.1939 23.3426C17.1211 23.2516 17.0483 23.1697 16.9846 23.0788C16.8482 22.9059 16.739 22.724 16.6299 22.5329C16.5753 22.4329 16.5298 22.3328 16.4843 22.2236C16.4388 22.1236 16.3933 22.0144 16.3569 21.9144C16.2842 21.696 16.2205 21.4777 16.175 21.2594C16.1113 20.9683 16.084 20.6681 16.084 20.3679C16.084 20.0677 16.1113 19.7675 16.175 19.4764C16.2205 19.258 16.2842 19.0397 16.3569 18.8214C16.3933 18.7213 16.4388 18.6122 16.4843 18.5121C16.5298 18.4029 16.5753 18.3029 16.6299 18.2028C16.739 18.0118 16.8482 17.8298 16.9846 17.657C17.0483 17.566 17.1211 17.4841 17.1939 17.3932C17.3394 17.2294 17.4941 17.0748 17.6578 16.9292C17.7488 16.8564 17.8307 16.7837 17.9216 16.72C18.0945 16.5926 18.2764 16.4744 18.4674 16.3652C18.5675 16.3106 18.6676 16.2651 18.7767 16.2197C18.8768 16.1742 18.986 16.1287 19.086 16.0923C19.3044 16.0195 19.5227 15.9558 19.741 15.9104C20.0321 15.8467 20.3323 15.8194 20.6325 15.8194C20.9327 15.8194 21.2329 15.8467 21.524 15.9104C21.7423 15.9558 21.9607 16.0195 22.179 16.0923C22.2791 16.1287 22.3882 16.1742 22.4883 16.2197C22.5975 16.2651 22.6975 16.3106 22.7976 16.3652C22.9886 16.4744 23.1706 16.5835 23.3434 16.72C23.4344 16.7837 23.5163 16.8564 23.6072 16.9292C23.771 17.0748 23.9256 17.2294 24.0712 17.3932C24.1439 17.4841 24.2167 17.566 24.2804 17.657C24.4078 17.8298 24.526 18.0118 24.6352 18.2028C24.6898 18.3029 24.7352 18.4029 24.7807 18.5121C24.8262 18.6122 24.8717 18.7213 24.9081 18.8214C24.9809 19.0397 25.0445 19.258 25.09 19.4764C25.1537 19.7675 25.181 20.0677 25.181 20.3679C25.181 20.6681 25.1537 20.9683 25.09 21.2594Z" fill="#8653FF"/>
<path d="M24.2711 20.3677C24.2711 19.8946 24.635 19.5216 25.0898 19.4762C25.0443 19.2578 24.9807 19.0395 24.9079 18.8212C24.8715 18.7211 24.826 18.612 24.7805 18.5119C24.735 18.4027 24.6896 18.3027 24.635 18.2026C24.5258 18.0116 24.4076 17.8296 24.2802 17.6568C24.2165 17.5658 24.1437 17.4839 24.071 17.393C23.9254 17.2292 23.7708 17.0746 23.607 16.929C23.516 16.8562 23.4342 16.7835 23.3432 16.7198C23.1704 16.5833 22.9884 16.4742 22.7974 16.365C22.6973 16.3104 22.5973 16.2649 22.4881 16.2195C22.388 16.174 22.2789 16.1285 22.1788 16.0921C21.9605 16.0193 21.7421 15.9556 21.5238 15.9102C21.4783 16.365 21.1054 16.7289 20.6323 16.7289C20.1593 16.7289 19.7863 16.365 19.7408 15.9102C19.5225 15.9556 19.3042 16.0193 19.0858 16.0921C18.9858 16.1285 18.8766 16.174 18.7765 16.2195C18.6674 16.2649 18.5673 16.3104 18.4672 16.365C18.2762 16.4742 18.0943 16.5924 17.9214 16.7198C17.8305 16.7835 17.7486 16.8562 17.6576 16.929C17.4939 17.0746 17.3392 17.2292 17.1937 17.393C17.1209 17.4839 17.0481 17.5658 16.9844 17.6568C16.848 17.8296 16.7388 18.0116 16.6297 18.2026C16.5751 18.3027 16.5296 18.4027 16.4841 18.5119C16.4386 18.612 16.3931 18.7211 16.3567 18.8212C16.284 19.0395 16.2203 19.2578 16.1748 19.4762C16.6297 19.5216 16.9935 19.8946 16.9935 20.3677C16.9935 20.8407 16.6297 21.2137 16.1748 21.2592C16.2203 21.4775 16.284 21.6958 16.3567 21.9141C16.3931 22.0142 16.4386 22.1234 16.4841 22.2234C16.5296 22.3326 16.5751 22.4327 16.6297 22.5327C16.7388 22.7238 16.848 22.9057 16.9844 23.0786C17.0481 23.1695 17.1209 23.2514 17.1937 23.3424C17.3392 23.5061 17.4939 23.6608 17.6576 23.8063C17.7486 23.8791 17.8305 23.9519 17.9214 24.0155C18.0943 24.1429 18.2762 24.2612 18.4672 24.3703C18.5673 24.4249 18.6674 24.4704 18.7765 24.5159C18.8766 24.5614 18.9858 24.6068 19.0858 24.6432C19.3042 24.716 19.5225 24.7797 19.7408 24.8252C19.7863 24.3703 20.1593 24.0064 20.6323 24.0064C21.1054 24.0064 21.4783 24.3703 21.5238 24.8252C21.7421 24.7797 21.9605 24.716 22.1788 24.6432C22.2789 24.6068 22.388 24.5614 22.4881 24.5159C22.5973 24.4704 22.6973 24.4249 22.7974 24.3703C22.9884 24.2612 23.1704 24.152 23.3432 24.0155C23.4342 23.9519 23.516 23.8791 23.607 23.8063C23.7708 23.6608 23.9254 23.5061 24.071 23.3424C24.1437 23.2514 24.2165 23.1695 24.2802 23.0786C24.4076 22.9057 24.5258 22.7238 24.635 22.5327C24.6896 22.4327 24.735 22.3326 24.7805 22.2234C24.826 22.1234 24.8715 22.0142 24.9079 21.9141C24.9807 21.6958 25.0443 21.4775 25.0898 21.2592C24.635 21.2137 24.2711 20.8407 24.2711 20.3677ZM23.0976 19.1942L21.2782 21.0135C21.1054 21.1773 20.8779 21.2774 20.6323 21.2774H18.8129C18.3126 21.2774 17.9032 20.868 17.9032 20.3677C17.9032 19.8673 18.3126 19.458 18.8129 19.458H20.2593L21.8058 17.9024C22.1606 17.5476 22.7428 17.5476 23.0976 17.9024C23.4524 18.2572 23.4524 18.8394 23.0976 19.1942Z" fill="#8653FF"/>
</svg>
