<svg width="19" height="20" viewBox="0 0 19 20" fill="none" xmlns="http://www.w3.org/2000/svg">
<path d="M18.0893 1.42259C18.4147 1.09715 18.4147 0.569519 18.0893 0.244077C17.7639 -0.081359 17.2362 -0.081359 16.9108 0.244077L12.5 4.65482L11.4226 3.57741C11.0972 3.25198 10.5695 3.25198 10.2441 3.57741C9.91865 3.90285 9.91865 4.43049 10.2441 4.75592L11.9107 6.42259C12.2362 6.74803 12.7638 6.74803 13.0892 6.42259L18.0893 1.42259Z" fill="white"/>
<path d="M9.1667 3.55225e-07H5.27886C4.54097 -1.04503e-05 3.93198 -2.03113e-05 3.43589 0.0397916C2.92063 0.0811495 2.44699 0.169898 2.0021 0.392572C1.31217 0.737897 0.751247 1.2889 0.399716 1.96663C0.173034 2.40365 0.0826783 2.86893 0.0405851 3.37506C5.02391e-05 3.86239 5.94572e-05 4.46062 6.86238e-05 5.18546L3.19075e-05 11.0295C-0.000261425 11.6533 -0.000490589 12.116 0.0949799 12.5201C0.411192 13.8587 1.47521 14.9039 2.83789 15.2146C3.08507 15.2708 3.35383 15.2933 3.66672 15.3022L3.66671 18.6056C3.66666 18.7084 3.66659 18.8388 3.67685 18.9504C3.6861 19.0508 3.71467 19.3318 3.92297 19.5838C4.1457 19.8533 4.48255 20.0069 4.83586 19.9998C5.16628 19.9932 5.40311 19.8331 5.48714 19.7751C5.58051 19.7107 5.68177 19.6265 5.76161 19.5601L10.7236 15.4356C10.805 15.3679 10.8456 15.3345 10.8759 15.3113L10.8782 15.3096L10.881 15.3095C10.9194 15.3079 10.9723 15.3078 11.0789 15.3078H13.0545C13.7925 15.3078 14.4014 15.3078 14.8975 15.268C15.4128 15.2266 15.8864 15.1378 16.3313 14.9152C17.0212 14.5698 17.5821 14.0188 17.9337 13.3412C18.1604 12.9041 18.2507 12.4388 18.2928 11.9327C18.3333 11.4453 18.3333 9.04625 18.3333 8.32139V8.10411C18.3333 7.6068 17.9229 7.20365 17.4167 7.20365C16.9104 7.20365 16.5 7.6068 16.5 8.10411V8.2842C16.5 9.05553 16.4993 11.3808 16.4656 11.7861C16.4327 12.1808 16.3732 12.3827 16.3002 12.5235C16.1244 12.8624 15.8439 13.1379 15.499 13.3105C15.3556 13.3823 15.1501 13.4408 14.7483 13.473C14.3357 13.5061 13.8019 13.5068 13.0167 13.5068H11.0789L11.0375 13.5068C10.8828 13.5064 10.6879 13.5059 10.4941 13.5466C10.3259 13.5819 10.1637 13.6404 10.0121 13.7201C9.83742 13.812 9.68892 13.936 9.57104 14.0345L9.5395 14.0608L5.50005 17.4183V14.5235L5.50006 14.5217C5.50007 14.5136 5.50012 14.4861 5.49903 14.4592C5.49768 14.4257 5.49366 14.3569 5.47395 14.2734C5.387 13.9053 5.09439 13.6179 4.71966 13.5325C4.63474 13.5131 4.56471 13.5092 4.53062 13.5078C4.50318 13.5068 4.47524 13.5068 4.46687 13.5068H4.46511C3.67174 13.5068 3.43102 13.501 3.25231 13.4602C2.57097 13.305 2.03896 12.7823 1.88085 12.113C1.83938 11.9374 1.8334 11.701 1.8334 10.9216V5.22265C1.8334 4.45133 1.83411 3.92701 1.86782 3.52172C1.90065 3.12694 1.96017 2.92506 2.03322 2.78423C2.20899 2.44537 2.48945 2.16986 2.83441 1.9972C2.97778 1.92545 3.18329 1.86698 3.58518 1.83473C3.99776 1.80162 4.53152 1.80091 5.31672 1.80091H9.1667C9.67297 1.80091 10.0834 1.39777 10.0834 0.900457C10.0834 0.403153 9.67297 3.55225e-07 9.1667 3.55225e-07Z" fill="white"/>
</svg>
