<svg width="25" height="24" viewBox="0 0 25 24" fill="none" xmlns="http://www.w3.org/2000/svg">
<path opacity="0.8" d="M24.7792 3.92968C24.7792 8.17004 24.7792 12.4104 24.7792 16.6508C24.7792 16.7265 24.7792 16.7265 24.7035 16.8022C24.5521 17.5594 24.2492 18.2409 23.6434 18.8467C22.8862 19.5282 22.0532 19.8311 21.0689 19.8311C17.8129 19.8311 14.5569 19.8311 11.3009 19.8311C11.1495 19.8311 10.998 19.9068 10.8465 19.9825C9.33213 21.1183 7.89346 22.2541 6.37904 23.3899C6.2276 23.4657 6.07616 23.5414 6.00044 23.6171C5.47039 23.7685 5.09178 23.39 5.09178 22.7842C5.09178 21.8755 5.09178 20.9669 5.09178 20.0582C5.09178 19.9825 5.09178 19.9068 5.09178 19.7554C4.94034 19.7554 4.8646 19.7554 4.78888 19.7554C4.25883 19.7554 3.7288 19.7553 3.19876 19.6796C1.45718 19.3767 0.245643 17.9381 0.169922 16.1208C0.169922 12.1833 0.169922 8.24579 0.169922 4.38403C0.169922 4.30831 0.169922 4.23255 0.169922 4.15683C0.245643 2.41525 1.68433 0.900841 3.42591 0.900841C4.71316 0.82512 5.9247 0.900841 7.21195 0.900841C11.8309 0.900841 16.5256 0.900841 21.1446 0.900841C22.659 0.900841 23.8706 1.58232 24.552 3.02102C24.6278 3.24818 24.7035 3.62679 24.7792 3.92968Z" fill="#564589"/>
</svg>
