<svg width="415" height="137" viewBox="0 0 415 137" fill="none" xmlns="http://www.w3.org/2000/svg">
<g opacity="0.6">
<path d="M11.9978 99.0205V101.441H4.78266V99.0205H11.9978ZM5.54591 84.0774V101.441H2.64794V84.0774H5.54591ZM13.6793 95.5143V94.4767C13.6793 93.475 13.8025 92.5885 14.049 91.8173C14.2955 91.0461 14.6453 90.4021 15.0985 89.8853C15.5596 89.3606 16.1002 88.967 16.7204 88.7046C17.3405 88.4343 18.0243 88.2992 18.7716 88.2992C19.5349 88.2992 20.2266 88.4343 20.8467 88.7046C21.4748 88.967 22.0154 89.3606 22.4686 89.8853C22.9298 90.4021 23.2836 91.0461 23.53 91.8173C23.7765 92.5885 23.8997 93.475 23.8997 94.4767V95.5143C23.8997 96.516 23.7765 97.4025 23.53 98.1737C23.2836 98.9449 22.9298 99.5929 22.4686 100.118C22.0154 100.634 21.4788 101.024 20.8586 101.286C20.2385 101.549 19.5508 101.68 18.7955 101.68C18.0481 101.68 17.3604 101.549 16.7323 101.286C16.1122 101.024 15.5715 100.634 15.1104 100.118C14.6493 99.5929 14.2955 98.9449 14.049 98.1737C13.8025 97.4025 13.6793 96.516 13.6793 95.5143ZM16.458 94.4767V95.5143C16.458 96.1583 16.5137 96.7228 16.625 97.2077C16.7363 97.6848 16.8953 98.0823 17.102 98.4003C17.3087 98.7183 17.5552 98.9569 17.8414 99.1159C18.1276 99.2749 18.4457 99.3544 18.7955 99.3544C19.1851 99.3544 19.523 99.2749 19.8092 99.1159C20.1033 98.9569 20.3458 98.7183 20.5366 98.4003C20.7354 98.0823 20.8825 97.6848 20.9779 97.2077C21.0733 96.7228 21.121 96.1583 21.121 95.5143V94.4767C21.121 93.8407 21.0654 93.2842 20.9541 92.8071C20.8427 92.3221 20.6837 91.9206 20.477 91.6026C20.2703 91.2766 20.0199 91.0342 19.7257 90.8751C19.4395 90.7161 19.1215 90.6366 18.7716 90.6366C18.4298 90.6366 18.1157 90.7161 17.8295 90.8751C17.5512 91.0342 17.3087 91.2766 17.102 91.6026C16.8953 91.9206 16.7363 92.3221 16.625 92.8071C16.5137 93.2842 16.458 93.8407 16.458 94.4767ZM25.8913 95.5143V94.4767C25.8913 93.475 26.0146 92.5885 26.261 91.8173C26.5075 91.0461 26.8573 90.4021 27.3105 89.8853C27.7716 89.3606 28.3123 88.967 28.9324 88.7046C29.5526 88.4343 30.2363 88.2992 30.9837 88.2992C31.7469 88.2992 32.4386 88.4343 33.0587 88.7046C33.6868 88.967 34.2275 89.3606 34.6807 89.8853C35.1418 90.4021 35.4956 91.0461 35.742 91.8173C35.9885 92.5885 36.1117 93.475 36.1117 94.4767V95.5143C36.1117 96.516 35.9885 97.4025 35.742 98.1737C35.4956 98.9449 35.1418 99.5929 34.6807 100.118C34.2275 100.634 33.6908 101.024 33.0707 101.286C32.4505 101.549 31.7628 101.68 31.0075 101.68C30.2602 101.68 29.5724 101.549 28.9443 101.286C28.3242 101.024 27.7836 100.634 27.3224 100.118C26.8613 99.5929 26.5075 98.9449 26.261 98.1737C26.0146 97.4025 25.8913 96.516 25.8913 95.5143ZM28.67 94.4767V95.5143C28.67 96.1583 28.7257 96.7228 28.837 97.2077C28.9483 97.6848 29.1073 98.0823 29.314 98.4003C29.5208 98.7183 29.7672 98.9569 30.0534 99.1159C30.3397 99.2749 30.6577 99.3544 31.0075 99.3544C31.3971 99.3544 31.735 99.2749 32.0212 99.1159C32.3154 98.9569 32.5579 98.7183 32.7487 98.4003C32.9474 98.0823 33.0945 97.6848 33.1899 97.2077C33.2853 96.7228 33.333 96.1583 33.333 95.5143V94.4767C33.333 93.8407 33.2774 93.2842 33.1661 92.8071C33.0548 92.3221 32.8958 91.9206 32.689 91.6026C32.4823 91.2766 32.2319 91.0342 31.9377 90.8751C31.6515 90.7161 31.3335 90.6366 30.9837 90.6366C30.6418 90.6366 30.3277 90.7161 30.0415 90.8751C29.7632 91.0342 29.5208 91.2766 29.314 91.6026C29.1073 91.9206 28.9483 92.3221 28.837 92.8071C28.7257 93.2842 28.67 93.8407 28.67 94.4767ZM41.2995 83.1234V101.441H38.5208V83.1234H41.2995ZM47.9779 88.5377L43.3984 94.7749L40.6197 97.9352L39.9161 95.4785L41.9554 92.5805L44.6506 88.5377H47.9779ZM45.1992 101.441L42.015 95.4069L43.7562 93.3676L48.3953 101.441H45.1992ZM55.8609 98.0426C55.8609 97.7722 55.7814 97.5337 55.6224 97.327C55.4713 97.1123 55.2248 96.9017 54.883 96.6949C54.5411 96.4882 54.0839 96.2656 53.5115 96.0271C52.9152 95.7806 52.3865 95.5342 51.9254 95.2877C51.4642 95.0412 51.0747 94.7709 50.7566 94.4767C50.4386 94.1746 50.1961 93.8288 50.0292 93.4392C49.8622 93.0496 49.7787 92.5964 49.7787 92.0796C49.7787 91.547 49.8781 91.054 50.0769 90.6009C50.2756 90.1477 50.5618 89.7501 50.9355 89.4083C51.3092 89.0584 51.7584 88.7881 52.2831 88.5973C52.8079 88.3986 53.4002 88.2992 54.0601 88.2992C54.9903 88.2992 55.7854 88.4701 56.4452 88.812C57.1131 89.1459 57.6219 89.615 57.9717 90.2192C58.3295 90.8155 58.5084 91.5032 58.5084 92.2824H55.7297C55.7297 91.9564 55.6701 91.6622 55.5508 91.3999C55.4316 91.1296 55.2487 90.9149 55.0022 90.7559C54.7558 90.5889 54.4417 90.5054 54.0601 90.5054C53.7103 90.5054 53.4161 90.573 53.1776 90.7082C52.947 90.8354 52.7721 91.0103 52.6528 91.2329C52.5415 91.4476 52.4859 91.6901 52.4859 91.9604C52.4859 92.1592 52.5217 92.3341 52.5932 92.4851C52.6648 92.6362 52.784 92.7833 52.951 92.9264C53.1179 93.0615 53.3406 93.2007 53.6188 93.3438C53.905 93.4869 54.2668 93.6499 54.7041 93.8327C55.5707 94.1667 56.2902 94.5125 56.8626 94.8703C57.4351 95.2281 57.8644 95.6455 58.1506 96.1225C58.4369 96.5995 58.58 97.1918 58.58 97.8994C58.58 98.4719 58.4726 98.9887 58.258 99.4498C58.0513 99.9109 57.7491 100.308 57.3516 100.642C56.962 100.976 56.489 101.235 55.9324 101.418C55.3838 101.592 54.7717 101.68 54.0959 101.68C53.0861 101.68 52.2315 101.481 51.5318 101.084C50.8401 100.678 50.3154 100.157 49.9576 99.5214C49.5998 98.8853 49.4209 98.2135 49.4209 97.5059H52.1043C52.1281 98.0147 52.2354 98.4123 52.4262 98.6985C52.625 98.9847 52.8755 99.1835 53.1776 99.2948C53.4797 99.3981 53.7937 99.4498 54.1197 99.4498C54.5093 99.4498 54.8313 99.3981 55.0857 99.2948C55.3401 99.1835 55.5309 99.0205 55.6581 98.8058C55.7933 98.5911 55.8609 98.3367 55.8609 98.0426ZM69.5756 83.1234V101.441H66.7968V83.1234H69.5756ZM75.4908 88.5377V101.441H72.712V88.5377H75.4908ZM72.5689 85.1508C72.5689 84.7055 72.7041 84.3358 72.9744 84.0417C73.2447 83.7475 73.6224 83.6004 74.1074 83.6004C74.5923 83.6004 74.97 83.7475 75.2403 84.0417C75.5106 84.3358 75.6458 84.7055 75.6458 85.1508C75.6458 85.588 75.5106 85.9538 75.2403 86.2479C74.97 86.5421 74.5923 86.6892 74.1074 86.6892C73.6224 86.6892 73.2447 86.5421 72.9744 86.2479C72.7041 85.9538 72.5689 85.588 72.5689 85.1508ZM81.2509 83.1234V101.441H78.4722V83.1234H81.2509ZM87.9294 88.5377L83.3499 94.7749L80.5711 97.9352L79.8675 95.4785L81.9068 92.5805L84.6021 88.5377H87.9294ZM85.1507 101.441L81.9665 95.4069L83.7076 93.3676L88.3468 101.441H85.1507ZM94.5363 101.68C93.7015 101.68 92.9581 101.557 92.3061 101.31C91.6542 101.056 91.1016 100.682 90.6484 100.189C90.1953 99.6883 89.8494 99.0761 89.6109 98.3526C89.3724 97.6212 89.2531 96.7744 89.2531 95.8124V94.5721C89.2531 93.4829 89.3764 92.5448 89.6228 91.7577C89.8772 90.9626 90.2271 90.3107 90.6723 89.8018C91.1175 89.293 91.6423 88.9153 92.2465 88.6689C92.8587 88.4224 93.5226 88.2992 94.2381 88.2992C95.0491 88.2992 95.7527 88.4304 96.349 88.6927C96.9453 88.9551 97.4342 89.3486 97.8159 89.8734C98.2054 90.3981 98.4917 91.0461 98.6745 91.8173C98.8653 92.5885 98.9607 93.475 98.9607 94.4767V95.8721H90.5888V93.7731H96.2178V93.475C96.2019 92.8866 96.1303 92.3818 96.0031 91.9604C95.8759 91.5311 95.6692 91.2051 95.383 90.9825C95.1047 90.7519 94.7191 90.6366 94.2262 90.6366C93.8684 90.6366 93.5504 90.7042 93.2721 90.8394C92.9939 90.9745 92.7633 91.1932 92.5804 91.4953C92.4055 91.7974 92.2704 92.2029 92.175 92.7117C92.0795 93.2126 92.0318 93.8327 92.0318 94.5721V95.8124C92.0318 96.4564 92.0875 97.001 92.1988 97.4463C92.3181 97.8915 92.493 98.2572 92.7235 98.5434C92.9541 98.8217 93.2324 99.0284 93.5583 99.1636C93.8923 99.2908 94.2779 99.3544 94.7151 99.3544C95.3591 99.3544 95.9117 99.2351 96.3728 98.9966C96.8419 98.7501 97.2474 98.4321 97.5893 98.0426L98.8176 99.7479C98.5871 100.058 98.277 100.364 97.8874 100.666C97.4978 100.96 97.0248 101.203 96.4682 101.394C95.9197 101.585 95.2757 101.68 94.5363 101.68ZM109.766 88.5377V101.441H106.987V88.5377H109.766ZM106.844 85.1508C106.844 84.7055 106.979 84.3358 107.249 84.0417C107.519 83.7475 107.897 83.6004 108.382 83.6004C108.867 83.6004 109.245 83.7475 109.515 84.0417C109.785 84.3358 109.921 84.7055 109.921 85.1508C109.921 85.588 109.785 85.9538 109.515 86.2479C109.245 86.5421 108.867 86.6892 108.382 86.6892C107.897 86.6892 107.519 86.5421 107.249 86.2479C106.979 85.9538 106.844 85.588 106.844 85.1508ZM117.947 88.5377V90.6843H111.614V88.5377H117.947ZM113.343 85.3773H116.11V97.8398C116.11 98.2373 116.154 98.5395 116.241 98.7462C116.329 98.9529 116.452 99.092 116.611 99.1636C116.77 99.2351 116.957 99.2709 117.171 99.2709C117.33 99.2709 117.485 99.259 117.637 99.2351C117.796 99.2033 117.911 99.1755 117.982 99.1517V101.394C117.776 101.473 117.537 101.541 117.267 101.596C116.997 101.652 116.671 101.68 116.289 101.68C115.724 101.68 115.22 101.565 114.774 101.334C114.329 101.096 113.979 100.71 113.725 100.177C113.47 99.6366 113.343 98.9211 113.343 98.0306V85.3773ZM121.882 83.1234V84.6737L121.572 89.289H119.688L119.7 84.8645V83.1234H121.882ZM129.133 98.0426C129.133 97.7722 129.054 97.5337 128.895 97.327C128.743 97.1123 128.497 96.9017 128.155 96.6949C127.813 96.4882 127.356 96.2656 126.784 96.0271C126.187 95.7806 125.659 95.5342 125.198 95.2877C124.736 95.0412 124.347 94.7709 124.029 94.4767C123.711 94.1746 123.468 93.8288 123.301 93.4392C123.134 93.0496 123.051 92.5964 123.051 92.0796C123.051 91.547 123.15 91.054 123.349 90.6009C123.548 90.1477 123.834 89.7501 124.208 89.4083C124.581 89.0584 125.031 88.7881 125.555 88.5973C126.08 88.3986 126.672 88.2992 127.332 88.2992C128.262 88.2992 129.057 88.4701 129.717 88.812C130.385 89.1459 130.894 89.615 131.244 90.2192C131.602 90.8155 131.781 91.5032 131.781 92.2824H129.002C129.002 91.9564 128.942 91.6622 128.823 91.3999C128.704 91.1296 128.521 90.9149 128.274 90.7559C128.028 90.5889 127.714 90.5054 127.332 90.5054C126.982 90.5054 126.688 90.573 126.45 90.7082C126.219 90.8354 126.044 91.0103 125.925 91.2329C125.814 91.4476 125.758 91.6901 125.758 91.9604C125.758 92.1592 125.794 92.3341 125.865 92.4851C125.937 92.6362 126.056 92.7833 126.223 92.9264C126.39 93.0615 126.613 93.2007 126.891 93.3438C127.177 93.4869 127.539 93.6499 127.976 93.8327C128.843 94.1667 129.562 94.5125 130.135 94.8703C130.707 95.2281 131.137 95.6455 131.423 96.1225C131.709 96.5995 131.852 97.1918 131.852 97.8994C131.852 98.4719 131.745 98.9887 131.53 99.4498C131.323 99.9109 131.021 100.308 130.624 100.642C130.234 100.976 129.761 101.235 129.205 101.418C128.656 101.592 128.044 101.68 127.368 101.68C126.358 101.68 125.504 101.481 124.804 101.084C124.112 100.678 123.588 100.157 123.23 99.5214C122.872 98.8853 122.693 98.2135 122.693 97.5059H125.376C125.4 98.0147 125.508 98.4123 125.698 98.6985C125.897 98.9847 126.148 99.1835 126.45 99.2948C126.752 99.3981 127.066 99.4498 127.392 99.4498C127.781 99.4498 128.103 99.3981 128.358 99.2948C128.612 99.1835 128.803 99.0205 128.93 98.8058C129.065 98.5911 129.133 98.3367 129.133 98.0426ZM145.889 98.8177V92.3897C145.889 91.9445 145.825 91.5867 145.698 91.3164C145.579 91.0461 145.4 90.8513 145.161 90.732C144.931 90.6048 144.641 90.5412 144.291 90.5412C143.925 90.5412 143.615 90.6168 143.361 90.7678C143.114 90.9189 142.927 91.1256 142.8 91.388C142.673 91.6424 142.609 91.9365 142.609 92.2705H139.83C139.83 91.7537 139.934 91.2568 140.141 90.7797C140.355 90.3027 140.661 89.8774 141.059 89.5037C141.456 89.13 141.937 88.8358 142.502 88.6212C143.066 88.4065 143.694 88.2992 144.386 88.2992C145.213 88.2992 145.948 88.4383 146.592 88.7166C147.236 88.9869 147.741 89.4281 148.107 90.0403C148.481 90.6446 148.667 91.4396 148.667 92.4255V98.448C148.667 99.0443 148.703 99.577 148.775 100.046C148.854 100.507 148.962 100.909 149.097 101.251V101.441H146.27C146.143 101.131 146.048 100.734 145.984 100.249C145.921 99.7638 145.889 99.2868 145.889 98.8177ZM146.258 93.5823L146.27 95.3831H144.935C144.537 95.3831 144.179 95.4388 143.861 95.5501C143.543 95.6534 143.273 95.8045 143.05 96.0032C142.836 96.1941 142.669 96.4286 142.55 96.7069C142.438 96.9851 142.383 97.2912 142.383 97.6251C142.383 98.0306 142.438 98.3606 142.55 98.615C142.669 98.8694 142.84 99.0602 143.062 99.1874C143.293 99.3067 143.571 99.3663 143.897 99.3663C144.342 99.3663 144.728 99.2709 145.054 99.0801C145.388 98.8813 145.642 98.6428 145.817 98.3645C146 98.0863 146.072 97.8319 146.032 97.6013L146.664 98.7581C146.6 99.0602 146.481 99.3782 146.306 99.7122C146.139 100.046 145.921 100.364 145.65 100.666C145.38 100.968 145.054 101.215 144.672 101.406C144.291 101.588 143.849 101.68 143.349 101.68C142.625 101.68 141.981 101.529 141.417 101.227C140.852 100.925 140.407 100.491 140.081 99.9268C139.763 99.3544 139.604 98.6706 139.604 97.8756C139.604 97.2316 139.711 96.6472 139.926 96.1225C140.141 95.5978 140.459 95.1486 140.88 94.7749C141.301 94.3933 141.83 94.0991 142.466 93.8924C143.11 93.6857 143.861 93.5823 144.72 93.5823H146.258ZM154.463 83.1234V101.441H151.685V83.1234H154.463ZM160.379 83.1234V101.441H157.6V83.1234H160.379ZM175.453 106.403V91.1137L175.763 88.5377H178.243V106.403H175.453ZM168.536 95.5024V94.4887C168.536 93.4312 168.627 92.513 168.81 91.7338C169.001 90.9546 169.275 90.3107 169.633 89.8018C169.999 89.293 170.444 88.9153 170.969 88.6689C171.501 88.4224 172.118 88.2992 172.817 88.2992C173.469 88.2992 174.034 88.4423 174.511 88.7285C174.988 89.0147 175.385 89.4242 175.703 89.9569C176.029 90.4895 176.288 91.1256 176.478 91.865C176.669 92.5964 176.808 93.4153 176.896 94.3217V95.7289C176.808 96.6035 176.665 97.4065 176.467 98.138C176.276 98.8615 176.017 99.4895 175.691 100.022C175.365 100.547 174.964 100.956 174.487 101.251C174.018 101.537 173.453 101.68 172.793 101.68C172.11 101.68 171.501 101.549 170.969 101.286C170.444 101.024 169.999 100.634 169.633 100.118C169.275 99.5929 169.001 98.9449 168.81 98.1737C168.627 97.4025 168.536 96.5121 168.536 95.5024ZM171.315 94.4887V95.5024C171.315 96.1543 171.354 96.7228 171.434 97.2077C171.521 97.6927 171.652 98.0942 171.827 98.4123C172.01 98.7223 172.245 98.9569 172.531 99.1159C172.817 99.2749 173.163 99.3544 173.569 99.3544C174.101 99.3544 174.527 99.2232 174.845 98.9608C175.171 98.6985 175.425 98.3447 175.608 97.8994C175.791 97.4463 175.918 96.9494 175.99 96.4087V93.6419C175.95 93.2206 175.87 92.827 175.751 92.4613C175.64 92.0956 175.485 91.7775 175.286 91.5072C175.095 91.2289 174.857 91.0143 174.57 90.8632C174.292 90.7122 173.966 90.6366 173.592 90.6366C173.187 90.6366 172.837 90.7161 172.543 90.8751C172.257 91.0262 172.022 91.2607 171.839 91.5788C171.656 91.8968 171.521 92.2983 171.434 92.7833C171.354 93.2603 171.315 93.8288 171.315 94.4887ZM187.534 98.4003V88.5377H190.312V101.441H187.701L187.534 98.4003ZM187.927 95.7051L188.81 95.6812C188.81 96.5479 188.73 97.3469 188.571 98.0783C188.412 98.8098 188.166 99.4458 187.832 99.9865C187.506 100.519 187.081 100.937 186.556 101.239C186.039 101.533 185.415 101.68 184.683 101.68C184.159 101.68 183.678 101.588 183.24 101.406C182.803 101.223 182.425 100.941 182.107 100.559C181.789 100.177 181.543 99.6804 181.368 99.0682C181.193 98.456 181.106 97.7245 181.106 96.8738V88.5377H183.884V96.8977C183.884 97.3588 183.924 97.7444 184.004 98.0545C184.083 98.3566 184.194 98.6031 184.338 98.7939C184.481 98.9767 184.64 99.1079 184.815 99.1874C184.997 99.259 185.192 99.2948 185.399 99.2948C186.027 99.2948 186.524 99.1397 186.89 98.8297C187.263 98.5116 187.53 98.0823 187.689 97.5417C187.848 97.001 187.927 96.3888 187.927 95.7051ZM196.037 88.5377V101.441H193.258V88.5377H196.037ZM193.115 85.1508C193.115 84.7055 193.25 84.3358 193.52 84.0417C193.791 83.7475 194.168 83.6004 194.653 83.6004C195.138 83.6004 195.516 83.7475 195.786 84.0417C196.057 84.3358 196.192 84.7055 196.192 85.1508C196.192 85.588 196.057 85.9538 195.786 86.2479C195.516 86.5421 195.138 86.6892 194.653 86.6892C194.168 86.6892 193.791 86.5421 193.52 86.2479C193.25 85.9538 193.115 85.588 193.115 85.1508ZM203.944 101.68C203.109 101.68 202.365 101.557 201.713 101.31C201.062 101.056 200.509 100.682 200.056 100.189C199.603 99.6883 199.257 99.0761 199.018 98.3526C198.78 97.6212 198.66 96.7744 198.66 95.8124V94.5721C198.66 93.4829 198.784 92.5448 199.03 91.7577C199.285 90.9626 199.634 90.3107 200.08 89.8018C200.525 89.293 201.05 88.9153 201.654 88.6689C202.266 88.4224 202.93 88.2992 203.645 88.2992C204.456 88.2992 205.16 88.4304 205.756 88.6927C206.353 88.9551 206.842 89.3486 207.223 89.8734C207.613 90.3981 207.899 91.0461 208.082 91.8173C208.273 92.5885 208.368 93.475 208.368 94.4767V95.8721H199.996V93.7731H205.625V93.475C205.609 92.8866 205.538 92.3818 205.41 91.9604C205.283 91.5311 205.077 91.2051 204.79 90.9825C204.512 90.7519 204.126 90.6366 203.634 90.6366C203.276 90.6366 202.958 90.7042 202.679 90.8394C202.401 90.9745 202.171 91.1932 201.988 91.4953C201.813 91.7974 201.678 92.2029 201.582 92.7117C201.487 93.2126 201.439 93.8327 201.439 94.5721V95.8124C201.439 96.4564 201.495 97.001 201.606 97.4463C201.725 97.8915 201.9 98.2572 202.131 98.5434C202.361 98.8217 202.64 99.0284 202.966 99.1636C203.3 99.2908 203.685 99.3544 204.122 99.3544C204.766 99.3544 205.319 99.2351 205.78 98.9966C206.249 98.7501 206.655 98.4321 206.997 98.0426L208.225 99.7479C207.994 100.058 207.684 100.364 207.295 100.666C206.905 100.96 206.432 101.203 205.876 101.394C205.327 101.585 204.683 101.68 203.944 101.68ZM215.81 88.5377V90.6843H209.477V88.5377H215.81ZM211.206 85.3773H213.973V97.8398C213.973 98.2373 214.017 98.5395 214.104 98.7462C214.192 98.9529 214.315 99.092 214.474 99.1636C214.633 99.2351 214.82 99.2709 215.035 99.2709C215.194 99.2709 215.349 99.259 215.5 99.2351C215.659 99.2033 215.774 99.1755 215.846 99.1517V101.394C215.639 101.473 215.4 101.541 215.13 101.596C214.86 101.652 214.534 101.68 214.152 101.68C213.588 101.68 213.083 101.565 212.637 101.334C212.192 101.096 211.842 100.71 211.588 100.177C211.334 99.6366 211.206 98.9211 211.206 98.0306V85.3773ZM223.192 95.5143V94.4767C223.192 93.475 223.315 92.5885 223.562 91.8173C223.808 91.0461 224.158 90.4021 224.611 89.8853C225.072 89.3606 225.613 88.967 226.233 88.7046C226.853 88.4343 227.537 88.2992 228.284 88.2992C229.047 88.2992 229.739 88.4343 230.359 88.7046C230.987 88.967 231.528 89.3606 231.981 89.8853C232.442 90.4021 232.796 91.0461 233.043 91.8173C233.289 92.5885 233.412 93.475 233.412 94.4767V95.5143C233.412 96.516 233.289 97.4025 233.043 98.1737C232.796 98.9449 232.442 99.5929 231.981 100.118C231.528 100.634 230.991 101.024 230.371 101.286C229.751 101.549 229.063 101.68 228.308 101.68C227.561 101.68 226.873 101.549 226.245 101.286C225.625 101.024 225.084 100.634 224.623 100.118C224.162 99.5929 223.808 98.9449 223.562 98.1737C223.315 97.4025 223.192 96.516 223.192 95.5143ZM225.971 94.4767V95.5143C225.971 96.1583 226.026 96.7228 226.138 97.2077C226.249 97.6848 226.408 98.0823 226.615 98.4003C226.821 98.7183 227.068 98.9569 227.354 99.1159C227.64 99.2749 227.958 99.3544 228.308 99.3544C228.698 99.3544 229.035 99.2749 229.322 99.1159C229.616 98.9569 229.858 98.7183 230.049 98.4003C230.248 98.0823 230.395 97.6848 230.49 97.2077C230.586 96.7228 230.634 96.1583 230.634 95.5143V94.4767C230.634 93.8407 230.578 93.2842 230.467 92.8071C230.355 92.3221 230.196 91.9206 229.99 91.6026C229.783 91.2766 229.532 91.0342 229.238 90.8751C228.952 90.7161 228.634 90.6366 228.284 90.6366C227.942 90.6366 227.628 90.7161 227.342 90.8751C227.064 91.0342 226.821 91.2766 226.615 91.6026C226.408 91.9206 226.249 92.3221 226.138 92.8071C226.026 93.2842 225.971 93.8407 225.971 94.4767ZM238.552 91.2925V101.441H235.774V88.5377H238.385L238.552 91.2925ZM238.051 94.5244H237.169C237.161 93.5942 237.26 92.7475 237.467 91.9842C237.674 91.221 237.968 90.5651 238.35 90.0165C238.731 89.4679 239.188 89.0465 239.721 88.7524C240.262 88.4502 240.862 88.2992 241.522 88.2992C242.039 88.2992 242.508 88.3866 242.929 88.5615C243.358 88.7285 243.724 89.0028 244.026 89.3844C244.328 89.766 244.559 90.263 244.718 90.8751C244.885 91.4873 244.968 92.2347 244.968 93.1172V101.441H242.19V93.0933C242.19 92.4891 242.122 92.0121 241.987 91.6622C241.86 91.3045 241.669 91.0501 241.414 90.899C241.16 90.74 240.838 90.6605 240.448 90.6605C240.091 90.6605 239.761 90.7638 239.459 90.9705C239.164 91.1693 238.91 91.4476 238.695 91.8054C238.489 92.1552 238.33 92.5646 238.218 93.0337C238.107 93.4948 238.051 93.9918 238.051 94.5244ZM256.524 100.022L259.291 88.5377H262.213L257.956 103.397C257.86 103.723 257.725 104.073 257.55 104.447C257.383 104.82 257.164 105.174 256.894 105.508C256.632 105.85 256.302 106.124 255.904 106.331C255.515 106.546 255.05 106.653 254.509 106.653C254.286 106.653 254.072 106.633 253.865 106.593C253.658 106.554 253.46 106.506 253.269 106.45V104.208C253.332 104.216 253.404 104.224 253.483 104.232C253.563 104.24 253.634 104.244 253.698 104.244C254.088 104.244 254.41 104.184 254.664 104.065C254.918 103.954 255.129 103.771 255.296 103.516C255.463 103.27 255.61 102.94 255.737 102.527L256.524 100.022ZM255.296 88.5377L257.562 98.138L258.051 101.251L256.143 101.74L252.303 88.5377H255.296ZM263.358 95.5143V94.4767C263.358 93.475 263.481 92.5885 263.728 91.8173C263.974 91.0461 264.324 90.4021 264.777 89.8853C265.238 89.3606 265.779 88.967 266.399 88.7046C267.019 88.4343 267.703 88.2992 268.45 88.2992C269.214 88.2992 269.905 88.4343 270.525 88.7046C271.153 88.967 271.694 89.3606 272.147 89.8853C272.608 90.4021 272.962 91.0461 273.209 91.8173C273.455 92.5885 273.578 93.475 273.578 94.4767V95.5143C273.578 96.516 273.455 97.4025 273.209 98.1737C272.962 98.9449 272.608 99.5929 272.147 100.118C271.694 100.634 271.157 101.024 270.537 101.286C269.917 101.549 269.229 101.68 268.474 101.68C267.727 101.68 267.039 101.549 266.411 101.286C265.791 101.024 265.25 100.634 264.789 100.118C264.328 99.5929 263.974 98.9449 263.728 98.1737C263.481 97.4025 263.358 96.516 263.358 95.5143ZM266.137 94.4767V95.5143C266.137 96.1583 266.192 96.7228 266.304 97.2077C266.415 97.6848 266.574 98.0823 266.781 98.4003C266.987 98.7183 267.234 98.9569 267.52 99.1159C267.806 99.2749 268.124 99.3544 268.474 99.3544C268.864 99.3544 269.202 99.2749 269.488 99.1159C269.782 98.9569 270.024 98.7183 270.215 98.4003C270.414 98.0823 270.561 97.6848 270.657 97.2077C270.752 96.7228 270.8 96.1583 270.8 95.5143V94.4767C270.8 93.8407 270.744 93.2842 270.633 92.8071C270.521 92.3221 270.362 91.9206 270.156 91.6026C269.949 91.2766 269.698 91.0342 269.404 90.8751C269.118 90.7161 268.8 90.6366 268.45 90.6366C268.108 90.6366 267.794 90.7161 267.508 90.8751C267.23 91.0342 266.987 91.2766 266.781 91.6026C266.574 91.9206 266.415 92.3221 266.304 92.8071C266.192 93.2842 266.137 93.8407 266.137 94.4767ZM282.344 98.4003V88.5377H285.123V101.441H282.511L282.344 98.4003ZM282.737 95.7051L283.62 95.6812C283.62 96.5479 283.54 97.3469 283.381 98.0783C283.222 98.8098 282.976 99.4458 282.642 99.9865C282.316 100.519 281.891 100.937 281.366 101.239C280.849 101.533 280.225 101.68 279.494 101.68C278.969 101.68 278.488 101.588 278.051 101.406C277.613 101.223 277.236 100.941 276.918 100.559C276.6 100.177 276.353 99.6804 276.178 99.0682C276.003 98.456 275.916 97.7245 275.916 96.8738V88.5377H278.695V96.8977C278.695 97.3588 278.734 97.7444 278.814 98.0545C278.893 98.3566 279.005 98.6031 279.148 98.7939C279.291 98.9767 279.45 99.1079 279.625 99.1874C279.808 99.259 280.002 99.2948 280.209 99.2948C280.837 99.2948 281.334 99.1397 281.7 98.8297C282.074 98.5116 282.34 98.0823 282.499 97.5417C282.658 97.001 282.737 96.3888 282.737 95.7051ZM290.68 91.0302V101.441H287.901V88.5377H290.549L290.68 91.0302ZM293.793 88.4542L293.781 91.1971C293.622 91.1574 293.451 91.1335 293.268 91.1256C293.093 91.1097 292.918 91.1017 292.743 91.1017C292.362 91.1017 292.032 91.1693 291.753 91.3045C291.475 91.4396 291.24 91.6344 291.05 91.8888C290.859 92.1433 290.708 92.4493 290.597 92.8071C290.493 93.1649 290.43 93.5704 290.406 94.0236L289.809 94.0474C289.809 93.2365 289.873 92.4851 290 91.7934C290.127 91.0938 290.318 90.4856 290.573 89.9688C290.835 89.444 291.161 89.0346 291.551 88.7404C291.94 88.4463 292.393 88.2992 292.91 88.2992C293.053 88.2992 293.216 88.3151 293.399 88.3469C293.582 88.3787 293.713 88.4145 293.793 88.4542ZM307.817 98.7462V83.1234H310.596V101.441L308.08 101.453L307.817 98.7462ZM300.888 95.5143V94.5006C300.888 93.4432 300.984 92.5289 301.175 91.7577C301.365 90.9785 301.644 90.3305 302.009 89.8137C302.383 89.297 302.832 88.9153 303.357 88.6689C303.882 88.4224 304.474 88.2992 305.134 88.2992C305.778 88.2992 306.335 88.4463 306.804 88.7404C307.273 89.0266 307.67 89.4361 307.996 89.9688C308.322 90.5015 308.581 91.1375 308.771 91.8769C308.97 92.6084 309.105 93.4273 309.177 94.3336V95.7409C309.089 96.6154 308.95 97.4184 308.759 98.1499C308.569 98.8734 308.31 99.4975 307.984 100.022C307.658 100.547 307.257 100.956 306.78 101.251C306.311 101.537 305.758 101.68 305.122 101.68C304.462 101.68 303.87 101.549 303.345 101.286C302.828 101.024 302.383 100.634 302.009 100.118C301.644 99.6009 301.365 98.9608 301.175 98.1976C300.984 97.4264 300.888 96.532 300.888 95.5143ZM303.667 94.5006V95.5143C303.667 96.1742 303.707 96.7426 303.786 97.2197C303.866 97.6967 303.993 98.0903 304.168 98.4003C304.343 98.7024 304.574 98.929 304.86 99.0801C305.146 99.2232 305.492 99.2948 305.897 99.2948C306.406 99.2948 306.82 99.1676 307.138 98.9131C307.464 98.6587 307.714 98.3168 307.889 97.8875C308.072 97.4502 308.199 96.9653 308.271 96.4326V93.6539C308.231 93.2325 308.151 92.8429 308.032 92.4851C307.913 92.1194 307.758 91.8014 307.567 91.5311C307.376 91.2607 307.142 91.0501 306.863 90.899C306.593 90.74 306.275 90.6605 305.909 90.6605C305.504 90.6605 305.158 90.74 304.872 90.899C304.585 91.0501 304.355 91.2846 304.18 91.6026C304.005 91.9127 303.874 92.3102 303.786 92.7952C303.707 93.2722 303.667 93.8407 303.667 94.5006ZM319.433 98.8177V92.3897C319.433 91.9445 319.369 91.5867 319.242 91.3164C319.123 91.0461 318.944 90.8513 318.706 90.732C318.475 90.6048 318.185 90.5412 317.835 90.5412C317.469 90.5412 317.159 90.6168 316.905 90.7678C316.658 90.9189 316.472 91.1256 316.344 91.388C316.217 91.6424 316.154 91.9365 316.154 92.2705H313.375C313.375 91.7537 313.478 91.2568 313.685 90.7797C313.9 90.3027 314.206 89.8774 314.603 89.5037C315.001 89.13 315.482 88.8358 316.046 88.6212C316.611 88.4065 317.239 88.2992 317.93 88.2992C318.757 88.2992 319.493 88.4383 320.137 88.7166C320.781 88.9869 321.286 89.4281 321.651 90.0403C322.025 90.6446 322.212 91.4396 322.212 92.4255V98.448C322.212 99.0443 322.248 99.577 322.319 100.046C322.399 100.507 322.506 100.909 322.641 101.251V101.441H319.815C319.688 101.131 319.592 100.734 319.529 100.249C319.465 99.7638 319.433 99.2868 319.433 98.8177ZM319.803 93.5823L319.815 95.3831H318.479C318.082 95.3831 317.724 95.4388 317.406 95.5501C317.088 95.6534 316.817 95.8045 316.595 96.0032C316.38 96.1941 316.213 96.4286 316.094 96.7069C315.983 96.9851 315.927 97.2912 315.927 97.6251C315.927 98.0306 315.983 98.3606 316.094 98.615C316.213 98.8694 316.384 99.0602 316.607 99.1874C316.837 99.3067 317.116 99.3663 317.441 99.3663C317.887 99.3663 318.272 99.2709 318.598 99.0801C318.932 98.8813 319.187 98.6428 319.362 98.3645C319.544 98.0863 319.616 97.8319 319.576 97.6013L320.208 98.7581C320.145 99.0602 320.025 99.3782 319.851 99.7122C319.684 100.046 319.465 100.364 319.195 100.666C318.924 100.968 318.598 101.215 318.217 101.406C317.835 101.588 317.394 101.68 316.893 101.68C316.169 101.68 315.525 101.529 314.961 101.227C314.396 100.925 313.951 100.491 313.625 99.9268C313.307 99.3544 313.148 98.6706 313.148 97.8756C313.148 97.2316 313.256 96.6472 313.47 96.1225C313.685 95.5978 314.003 95.1486 314.424 94.7749C314.846 94.3933 315.374 94.0991 316.01 93.8924C316.654 93.6857 317.406 93.5823 318.264 93.5823H319.803ZM331.037 98.0426C331.037 97.7722 330.957 97.5337 330.798 97.327C330.647 97.1123 330.401 96.9017 330.059 96.6949C329.717 96.4882 329.26 96.2656 328.688 96.0271C328.091 95.7806 327.563 95.5342 327.101 95.2877C326.64 95.0412 326.251 94.7709 325.933 94.4767C325.615 94.1746 325.372 93.8288 325.205 93.4392C325.038 93.0496 324.955 92.5964 324.955 92.0796C324.955 91.547 325.054 91.054 325.253 90.6009C325.452 90.1477 325.738 89.7501 326.112 89.4083C326.485 89.0584 326.934 88.7881 327.459 88.5973C327.984 88.3986 328.576 88.2992 329.236 88.2992C330.166 88.2992 330.961 88.4701 331.621 88.812C332.289 89.1459 332.798 89.615 333.148 90.2192C333.506 90.8155 333.684 91.5032 333.684 92.2824H330.906C330.906 91.9564 330.846 91.6622 330.727 91.3999C330.608 91.1296 330.425 90.9149 330.178 90.7559C329.932 90.5889 329.618 90.5054 329.236 90.5054C328.886 90.5054 328.592 90.573 328.354 90.7082C328.123 90.8354 327.948 91.0103 327.829 91.2329C327.718 91.4476 327.662 91.6901 327.662 91.9604C327.662 92.1592 327.698 92.3341 327.769 92.4851C327.841 92.6362 327.96 92.7833 328.127 92.9264C328.294 93.0615 328.517 93.2007 328.795 93.3438C329.081 93.4869 329.443 93.6499 329.88 93.8327C330.747 94.1667 331.466 94.5125 332.039 94.8703C332.611 95.2281 333.04 95.6455 333.327 96.1225C333.613 96.5995 333.756 97.1918 333.756 97.8994C333.756 98.4719 333.649 98.9887 333.434 99.4498C333.227 99.9109 332.925 100.308 332.528 100.642C332.138 100.976 331.665 101.235 331.108 101.418C330.56 101.592 329.948 101.68 329.272 101.68C328.262 101.68 327.407 101.481 326.708 101.084C326.016 100.678 325.491 100.157 325.134 99.5214C324.776 98.8853 324.597 98.2135 324.597 97.5059H327.28C327.304 98.0147 327.411 98.4123 327.602 98.6985C327.801 98.9847 328.051 99.1835 328.354 99.2948C328.656 99.3981 328.97 99.4498 329.296 99.4498C329.685 99.4498 330.007 99.3981 330.262 99.2948C330.516 99.1835 330.707 99.0205 330.834 98.8058C330.969 98.5911 331.037 98.3367 331.037 98.0426ZM338.908 83.1234V101.441H336.141V83.1234H338.908ZM338.419 94.5244H337.536C337.528 93.626 337.624 92.7992 337.823 92.0439C338.021 91.2886 338.308 90.6287 338.681 90.0642C339.055 89.4997 339.504 89.0664 340.029 88.7643C340.562 88.4542 341.15 88.2992 341.794 88.2992C342.327 88.2992 342.808 88.3906 343.237 88.5735C343.674 88.7484 344.048 89.0266 344.358 89.4083C344.676 89.7899 344.919 90.2908 345.085 90.9109C345.252 91.5231 345.336 92.2705 345.336 93.153V101.441H342.557V93.1291C342.557 92.5169 342.49 92.0319 342.354 91.6742C342.227 91.3164 342.036 91.058 341.782 90.899C341.528 90.74 341.206 90.6605 340.816 90.6605C340.434 90.6605 340.093 90.7638 339.79 90.9705C339.496 91.1693 339.246 91.4476 339.039 91.8054C338.832 92.1552 338.677 92.5646 338.574 93.0337C338.471 93.4948 338.419 93.9918 338.419 94.5244ZM348.115 83.1234H350.881V98.6746L350.667 101.441H348.115V83.1234ZM357.834 94.4887V95.5024C357.834 96.5359 357.747 97.4383 357.572 98.2095C357.397 98.9807 357.135 99.6247 356.785 100.141C356.435 100.658 355.998 101.044 355.473 101.298C354.948 101.553 354.336 101.68 353.636 101.68C352.984 101.68 352.42 101.537 351.943 101.251C351.474 100.956 351.076 100.547 350.75 100.022C350.432 99.4895 350.178 98.8575 349.987 98.126C349.804 97.3946 349.669 96.5876 349.582 95.7051V94.2859C349.661 93.4034 349.792 92.5964 349.975 91.865C350.166 91.1256 350.42 90.4935 350.738 89.9688C351.056 89.4361 351.454 89.0266 351.931 88.7404C352.408 88.4463 352.972 88.2992 353.624 88.2992C354.332 88.2992 354.948 88.4264 355.473 88.6808C355.998 88.9352 356.435 89.3208 356.785 89.8376C357.135 90.3464 357.397 90.9904 357.572 91.7696C357.747 92.5408 357.834 93.4471 357.834 94.4887ZM355.055 95.5024V94.4887C355.055 93.8367 355.02 93.2722 354.948 92.7952C354.885 92.3182 354.769 91.9246 354.602 91.6145C354.443 91.2965 354.221 91.058 353.934 90.899C353.648 90.74 353.286 90.6605 352.849 90.6605C352.468 90.6605 352.138 90.736 351.859 90.8871C351.589 91.0381 351.358 91.2528 351.168 91.5311C350.977 91.8014 350.826 92.1154 350.714 92.4732C350.603 92.823 350.528 93.2007 350.488 93.6062V96.3849C350.544 96.9176 350.655 97.4065 350.822 97.8517C350.997 98.297 351.247 98.6508 351.573 98.9131C351.907 99.1755 352.34 99.3067 352.873 99.3067C353.294 99.3067 353.644 99.2351 353.923 99.092C354.201 98.9489 354.423 98.7223 354.59 98.4123C354.765 98.1022 354.885 97.7086 354.948 97.2316C355.02 96.7466 355.055 96.1702 355.055 95.5024ZM359.766 95.5143V94.4767C359.766 93.475 359.889 92.5885 360.136 91.8173C360.382 91.0461 360.732 90.4021 361.185 89.8853C361.646 89.3606 362.187 88.967 362.807 88.7046C363.427 88.4343 364.111 88.2992 364.858 88.2992C365.622 88.2992 366.313 88.4343 366.934 88.7046C367.562 88.967 368.102 89.3606 368.555 89.8853C369.017 90.4021 369.37 91.0461 369.617 91.8173C369.863 92.5885 369.987 93.475 369.987 94.4767V95.5143C369.987 96.516 369.863 97.4025 369.617 98.1737C369.37 98.9449 369.017 99.5929 368.555 100.118C368.102 100.634 367.566 101.024 366.945 101.286C366.325 101.549 365.638 101.68 364.882 101.68C364.135 101.68 363.447 101.549 362.819 101.286C362.199 101.024 361.658 100.634 361.197 100.118C360.736 99.5929 360.382 98.9449 360.136 98.1737C359.889 97.4025 359.766 96.516 359.766 95.5143ZM362.545 94.4767V95.5143C362.545 96.1583 362.601 96.7228 362.712 97.2077C362.823 97.6848 362.982 98.0823 363.189 98.4003C363.396 98.7183 363.642 98.9569 363.928 99.1159C364.214 99.2749 364.532 99.3544 364.882 99.3544C365.272 99.3544 365.61 99.2749 365.896 99.1159C366.19 98.9569 366.433 98.7183 366.623 98.4003C366.822 98.0823 366.969 97.6848 367.065 97.2077C367.16 96.7228 367.208 96.1583 367.208 95.5143V94.4767C367.208 93.8407 367.152 93.2842 367.041 92.8071C366.93 92.3221 366.771 91.9206 366.564 91.6026C366.357 91.2766 366.107 91.0342 365.813 90.8751C365.526 90.7161 365.208 90.6366 364.858 90.6366C364.517 90.6366 364.203 90.7161 363.916 90.8751C363.638 91.0342 363.396 91.2766 363.189 91.6026C362.982 91.9206 362.823 92.3221 362.712 92.8071C362.601 93.2842 362.545 93.8407 362.545 94.4767ZM378.37 98.8177V92.3897C378.37 91.9445 378.307 91.5867 378.18 91.3164C378.06 91.0461 377.881 90.8513 377.643 90.732C377.412 90.6048 377.122 90.5412 376.772 90.5412C376.407 90.5412 376.097 90.6168 375.842 90.7678C375.596 90.9189 375.409 91.1256 375.282 91.388C375.154 91.6424 375.091 91.9365 375.091 92.2705H372.312C372.312 91.7537 372.415 91.2568 372.622 90.7797C372.837 90.3027 373.143 89.8774 373.54 89.5037C373.938 89.13 374.419 88.8358 374.983 88.6212C375.548 88.4065 376.176 88.2992 376.868 88.2992C377.695 88.2992 378.43 88.4383 379.074 88.7166C379.718 88.9869 380.223 89.4281 380.589 90.0403C380.962 90.6446 381.149 91.4396 381.149 92.4255V98.448C381.149 99.0443 381.185 99.577 381.256 100.046C381.336 100.507 381.443 100.909 381.578 101.251V101.441H378.752C378.625 101.131 378.529 100.734 378.466 100.249C378.402 99.7638 378.37 99.2868 378.37 98.8177ZM378.74 93.5823L378.752 95.3831H377.416C377.019 95.3831 376.661 95.4388 376.343 95.5501C376.025 95.6534 375.755 95.8045 375.532 96.0032C375.317 96.1941 375.15 96.4286 375.031 96.7069C374.92 96.9851 374.864 97.2912 374.864 97.6251C374.864 98.0306 374.92 98.3606 375.031 98.615C375.15 98.8694 375.321 99.0602 375.544 99.1874C375.775 99.3067 376.053 99.3663 376.379 99.3663C376.824 99.3663 377.21 99.2709 377.536 99.0801C377.87 98.8813 378.124 98.6428 378.299 98.3645C378.482 98.0863 378.553 97.8319 378.514 97.6013L379.146 98.7581C379.082 99.0602 378.963 99.3782 378.788 99.7122C378.621 100.046 378.402 100.364 378.132 100.666C377.862 100.968 377.536 101.215 377.154 101.406C376.772 101.588 376.331 101.68 375.83 101.68C375.107 101.68 374.463 101.529 373.898 101.227C373.334 100.925 372.889 100.491 372.563 99.9268C372.245 99.3544 372.086 98.6706 372.086 97.8756C372.086 97.2316 372.193 96.6472 372.408 96.1225C372.622 95.5978 372.94 95.1486 373.362 94.7749C373.783 94.3933 374.312 94.0991 374.948 93.8924C375.592 93.6857 376.343 93.5823 377.202 93.5823H378.74ZM386.778 91.0302V101.441H383.999V88.5377H386.647L386.778 91.0302ZM389.891 88.4542L389.879 91.1971C389.72 91.1574 389.549 91.1335 389.366 91.1256C389.191 91.1097 389.016 91.1017 388.841 91.1017C388.46 91.1017 388.13 91.1693 387.851 91.3045C387.573 91.4396 387.339 91.6344 387.148 91.8888C386.957 92.1433 386.806 92.4493 386.695 92.8071C386.591 93.1649 386.528 93.5704 386.504 94.0236L385.908 94.0474C385.908 93.2365 385.971 92.4851 386.098 91.7934C386.226 91.0938 386.416 90.4856 386.671 89.9688C386.933 89.444 387.259 89.0346 387.649 88.7404C388.038 88.4463 388.491 88.2992 389.008 88.2992C389.151 88.2992 389.314 88.3151 389.497 88.3469C389.68 88.3787 389.811 88.4145 389.891 88.4542ZM398.048 98.7462V83.1234H400.827V101.441L398.31 101.453L398.048 98.7462ZM391.119 95.5143V94.5006C391.119 93.4432 391.215 92.5289 391.405 91.7577C391.596 90.9785 391.874 90.3305 392.24 89.8137C392.614 89.297 393.063 88.9153 393.588 88.6689C394.112 88.4224 394.705 88.2992 395.365 88.2992C396.009 88.2992 396.565 88.4463 397.034 88.7404C397.503 89.0266 397.901 89.4361 398.227 89.9688C398.553 90.5015 398.811 91.1375 399.002 91.8769C399.201 92.6084 399.336 93.4273 399.408 94.3336V95.7409C399.32 96.6154 399.181 97.4184 398.99 98.1499C398.799 98.8734 398.541 99.4975 398.215 100.022C397.889 100.547 397.487 100.956 397.01 101.251C396.541 101.537 395.989 101.68 395.353 101.68C394.693 101.68 394.101 101.549 393.576 101.286C393.059 101.024 392.614 100.634 392.24 100.118C391.874 99.6009 391.596 98.9608 391.405 98.1976C391.215 97.4264 391.119 96.532 391.119 95.5143ZM393.898 94.5006V95.5143C393.898 96.1742 393.938 96.7426 394.017 97.2197C394.097 97.6967 394.224 98.0903 394.399 98.4003C394.574 98.7024 394.804 98.929 395.09 99.0801C395.377 99.2232 395.722 99.2948 396.128 99.2948C396.637 99.2948 397.05 99.1676 397.368 98.9131C397.694 98.6587 397.945 98.3168 398.12 97.8875C398.302 97.4502 398.43 96.9653 398.501 96.4326V93.6539C398.461 93.2325 398.382 92.8429 398.263 92.4851C398.143 92.1194 397.988 91.8014 397.798 91.5311C397.607 91.2607 397.372 91.0501 397.094 90.899C396.824 90.74 396.506 90.6605 396.14 90.6605C395.734 90.6605 395.389 90.74 395.102 90.899C394.816 91.0501 394.586 91.2846 394.411 91.6026C394.236 91.9127 394.105 92.3102 394.017 92.7952C393.938 93.2722 393.898 93.8407 393.898 94.5006ZM403.892 99.9865C403.892 99.5253 404.039 99.1397 404.333 98.8297C404.635 98.5196 405.048 98.3645 405.573 98.3645C406.098 98.3645 406.507 98.5196 406.802 98.8297C407.104 99.1397 407.255 99.5253 407.255 99.9865C407.255 100.432 407.104 100.809 406.802 101.119C406.507 101.429 406.098 101.585 405.573 101.585C405.048 101.585 404.635 101.429 404.333 101.119C404.039 100.809 403.892 100.432 403.892 99.9865ZM75.5862 128.02V130.441H68.0491V128.02H75.5862ZM68.8123 113.077V130.441H65.9143V113.077H68.8123ZM74.5725 120.304V122.69H68.0491V120.304H74.5725ZM75.5146 113.077V115.51H68.0491V113.077H75.5146ZM80.4996 120.293V130.441H77.7209V117.538H80.3326L80.4996 120.293ZM79.9987 123.524H79.1162C79.1083 122.594 79.2076 121.747 79.4144 120.984C79.6211 120.221 79.9152 119.565 80.2969 119.016C80.6785 118.468 81.1356 118.047 81.6683 117.752C82.209 117.45 82.8092 117.299 83.4691 117.299C83.9859 117.299 84.455 117.387 84.8764 117.562C85.3057 117.728 85.6714 118.003 85.9735 118.384C86.2757 118.766 86.5062 119.263 86.6652 119.875C86.8322 120.487 86.9157 121.235 86.9157 122.117V130.441H84.137V122.093C84.137 121.489 84.0694 121.012 83.9342 120.662C83.807 120.304 83.6162 120.05 83.3618 119.899C83.1074 119.74 82.7854 119.66 82.3958 119.66C82.038 119.66 81.7081 119.764 81.406 119.971C81.1118 120.169 80.8574 120.448 80.6427 120.805C80.436 121.155 80.277 121.565 80.1657 122.034C80.0544 122.495 79.9987 122.992 79.9987 123.524ZM89.8137 117.538H92.6043V131.539C92.6043 132.421 92.4731 133.168 92.2107 133.781C91.9563 134.393 91.5787 134.858 91.0778 135.176C90.5769 135.494 89.9568 135.653 89.2174 135.653C88.9948 135.653 88.7642 135.633 88.5257 135.593C88.2872 135.562 88.0566 135.514 87.834 135.45L87.8459 133.16C87.997 133.192 88.148 133.216 88.2991 133.232C88.4501 133.256 88.5893 133.268 88.7165 133.268C88.955 133.268 89.1538 133.208 89.3128 133.089C89.4797 132.97 89.603 132.783 89.6825 132.528C89.7699 132.274 89.8137 131.944 89.8137 131.539V117.538ZM89.6109 114.151C89.6109 113.706 89.7461 113.336 90.0164 113.042C90.2867 112.747 90.6604 112.6 91.1374 112.6C91.6304 112.6 92.012 112.747 92.2823 113.042C92.5526 113.336 92.6878 113.706 92.6878 114.151C92.6878 114.588 92.5526 114.954 92.2823 115.248C92.012 115.542 91.6304 115.689 91.1374 115.689C90.6604 115.689 90.2867 115.542 90.0164 115.248C89.7461 114.954 89.6109 114.588 89.6109 114.151ZM95.0729 124.514V123.477C95.0729 122.475 95.1962 121.588 95.4426 120.817C95.6891 120.046 96.0389 119.402 96.4921 118.885C96.9532 118.361 97.4939 117.967 98.114 117.705C98.7342 117.434 99.4179 117.299 100.165 117.299C100.929 117.299 101.62 117.434 102.24 117.705C102.868 117.967 103.409 118.361 103.862 118.885C104.323 119.402 104.677 120.046 104.924 120.817C105.17 121.588 105.293 122.475 105.293 123.477V124.514C105.293 125.516 105.17 126.403 104.924 127.174C104.677 127.945 104.323 128.593 103.862 129.118C103.409 129.634 102.872 130.024 102.252 130.286C101.632 130.549 100.944 130.68 100.189 130.68C99.4418 130.68 98.754 130.549 98.1259 130.286C97.5058 130.024 96.9652 129.634 96.504 129.118C96.0429 128.593 95.6891 127.945 95.4426 127.174C95.1962 126.403 95.0729 125.516 95.0729 124.514ZM97.8517 123.477V124.514C97.8517 125.158 97.9073 125.723 98.0186 126.208C98.1299 126.685 98.2889 127.082 98.4956 127.4C98.7024 127.718 98.9488 127.957 99.235 128.116C99.5213 128.275 99.8393 128.354 100.189 128.354C100.579 128.354 100.917 128.275 101.203 128.116C101.497 127.957 101.739 127.718 101.93 127.4C102.129 127.082 102.276 126.685 102.372 126.208C102.467 125.723 102.515 125.158 102.515 124.514V123.477C102.515 122.841 102.459 122.284 102.348 121.807C102.236 121.322 102.077 120.921 101.871 120.603C101.664 120.277 101.413 120.034 101.119 119.875C100.833 119.716 100.515 119.637 100.165 119.637C99.8234 119.637 99.5093 119.716 99.2231 119.875C98.9449 120.034 98.7024 120.277 98.4956 120.603C98.2889 120.921 98.1299 121.322 98.0186 121.807C97.9073 122.284 97.8517 122.841 97.8517 123.477ZM110.636 129.022L113.403 117.538H116.325L112.067 132.397C111.972 132.723 111.837 133.073 111.662 133.447C111.495 133.82 111.276 134.174 111.006 134.508C110.743 134.85 110.413 135.124 110.016 135.331C109.626 135.546 109.161 135.653 108.621 135.653C108.398 135.653 108.183 135.633 107.977 135.593C107.77 135.554 107.571 135.506 107.38 135.45V133.208C107.444 133.216 107.516 133.224 107.595 133.232C107.675 133.24 107.746 133.244 107.81 133.244C108.199 133.244 108.521 133.184 108.776 133.065C109.03 132.954 109.241 132.771 109.408 132.516C109.575 132.27 109.722 131.94 109.849 131.527L110.636 129.022ZM109.408 117.538L111.674 127.138L112.163 130.251L110.254 130.74L106.414 117.538H109.408ZM128.906 117.538V119.684H122.574V117.538H128.906ZM124.303 114.377H127.07V126.84C127.07 127.237 127.114 127.539 127.201 127.746C127.289 127.953 127.412 128.092 127.571 128.164C127.73 128.235 127.917 128.271 128.131 128.271C128.29 128.271 128.445 128.259 128.596 128.235C128.755 128.203 128.871 128.176 128.942 128.152V130.394C128.736 130.473 128.497 130.541 128.227 130.596C127.956 130.652 127.63 130.68 127.249 130.68C126.684 130.68 126.179 130.565 125.734 130.334C125.289 130.096 124.939 129.71 124.685 129.177C124.43 128.637 124.303 127.921 124.303 127.031V114.377ZM133.796 112.123V130.441H131.029V112.123H133.796ZM133.307 123.524H132.425C132.417 122.626 132.512 121.799 132.711 121.044C132.91 120.289 133.196 119.629 133.569 119.064C133.943 118.5 134.392 118.066 134.917 117.764C135.45 117.454 136.038 117.299 136.682 117.299C137.215 117.299 137.696 117.391 138.125 117.573C138.562 117.748 138.936 118.027 139.246 118.408C139.564 118.79 139.807 119.291 139.974 119.911C140.141 120.523 140.224 121.27 140.224 122.153V130.441H137.445V122.129C137.445 121.517 137.378 121.032 137.243 120.674C137.115 120.316 136.925 120.058 136.67 119.899C136.416 119.74 136.094 119.66 135.704 119.66C135.323 119.66 134.981 119.764 134.679 119.971C134.384 120.169 134.134 120.448 133.927 120.805C133.72 121.155 133.565 121.565 133.462 122.034C133.359 122.495 133.307 122.992 133.307 123.524ZM147.928 130.68C147.093 130.68 146.35 130.557 145.698 130.31C145.046 130.056 144.493 129.682 144.04 129.189C143.587 128.688 143.241 128.076 143.003 127.353C142.764 126.621 142.645 125.774 142.645 124.812V123.572C142.645 122.483 142.768 121.545 143.015 120.758C143.269 119.963 143.619 119.311 144.064 118.802C144.509 118.293 145.034 117.915 145.638 117.669C146.251 117.422 146.914 117.299 147.63 117.299C148.441 117.299 149.145 117.43 149.741 117.693C150.337 117.955 150.826 118.349 151.208 118.873C151.597 119.398 151.883 120.046 152.066 120.817C152.257 121.588 152.353 122.475 152.353 123.477V124.872H143.981V122.773H149.61V122.475C149.594 121.887 149.522 121.382 149.395 120.96C149.268 120.531 149.061 120.205 148.775 119.982C148.497 119.752 148.111 119.637 147.618 119.637C147.26 119.637 146.942 119.704 146.664 119.839C146.386 119.975 146.155 120.193 145.972 120.495C145.797 120.797 145.662 121.203 145.567 121.712C145.471 122.213 145.424 122.833 145.424 123.572V124.812C145.424 125.456 145.479 126.001 145.591 126.446C145.71 126.891 145.885 127.257 146.115 127.543C146.346 127.822 146.624 128.028 146.95 128.164C147.284 128.291 147.67 128.354 148.107 128.354C148.751 128.354 149.304 128.235 149.765 127.997C150.234 127.75 150.639 127.432 150.981 127.043L152.209 128.748C151.979 129.058 151.669 129.364 151.279 129.666C150.89 129.96 150.417 130.203 149.86 130.394C149.311 130.585 148.667 130.68 147.928 130.68ZM162.99 120.018V135.403H160.224V117.538H162.764L162.99 120.018ZM169.931 123.477V124.502C169.931 125.512 169.84 126.403 169.657 127.174C169.474 127.945 169.204 128.593 168.846 129.118C168.496 129.634 168.063 130.024 167.546 130.286C167.029 130.549 166.425 130.68 165.733 130.68C165.081 130.68 164.513 130.537 164.028 130.251C163.551 129.964 163.149 129.563 162.823 129.046C162.497 128.529 162.235 127.917 162.036 127.21C161.846 126.494 161.706 125.715 161.619 124.872V123.298C161.706 122.407 161.842 121.596 162.024 120.865C162.215 120.126 162.474 119.49 162.8 118.957C163.134 118.424 163.539 118.015 164.016 117.728C164.493 117.442 165.062 117.299 165.721 117.299C166.413 117.299 167.021 117.422 167.546 117.669C168.071 117.915 168.508 118.293 168.858 118.802C169.216 119.311 169.482 119.955 169.657 120.734C169.84 121.505 169.931 122.419 169.931 123.477ZM167.152 124.502V123.477C167.152 122.817 167.109 122.248 167.021 121.771C166.942 121.286 166.807 120.889 166.616 120.579C166.433 120.269 166.198 120.038 165.912 119.887C165.634 119.736 165.288 119.66 164.875 119.66C164.509 119.66 164.187 119.736 163.909 119.887C163.63 120.038 163.396 120.249 163.205 120.519C163.014 120.782 162.863 121.096 162.752 121.461C162.641 121.819 162.569 122.209 162.537 122.63V125.552C162.609 126.061 162.728 126.53 162.895 126.959C163.062 127.38 163.304 127.718 163.622 127.973C163.948 128.227 164.374 128.354 164.899 128.354C165.304 128.354 165.65 128.275 165.936 128.116C166.222 127.957 166.453 127.718 166.628 127.4C166.811 127.082 166.942 126.685 167.021 126.208C167.109 125.723 167.152 125.154 167.152 124.502ZM177.218 130.68C176.383 130.68 175.64 130.557 174.988 130.31C174.336 130.056 173.783 129.682 173.33 129.189C172.877 128.688 172.531 128.076 172.293 127.353C172.054 126.621 171.935 125.774 171.935 124.812V123.572C171.935 122.483 172.058 121.545 172.304 120.758C172.559 119.963 172.909 119.311 173.354 118.802C173.799 118.293 174.324 117.915 174.928 117.669C175.54 117.422 176.204 117.299 176.92 117.299C177.731 117.299 178.434 117.43 179.031 117.693C179.627 117.955 180.116 118.349 180.497 118.873C180.887 119.398 181.173 120.046 181.356 120.817C181.547 121.588 181.642 122.475 181.642 123.477V124.872H173.27V122.773H178.899V122.475C178.884 121.887 178.812 121.382 178.685 120.96C178.558 120.531 178.351 120.205 178.065 119.982C177.786 119.752 177.401 119.637 176.908 119.637C176.55 119.637 176.232 119.704 175.954 119.839C175.675 119.975 175.445 120.193 175.262 120.495C175.087 120.797 174.952 121.203 174.857 121.712C174.761 122.213 174.713 122.833 174.713 123.572V124.812C174.713 125.456 174.769 126.001 174.88 126.446C175 126.891 175.175 127.257 175.405 127.543C175.636 127.822 175.914 128.028 176.24 128.164C176.574 128.291 176.959 128.354 177.397 128.354C178.041 128.354 178.593 128.235 179.054 127.997C179.524 127.75 179.929 127.432 180.271 127.043L181.499 128.748C181.269 129.058 180.959 129.364 180.569 129.666C180.179 129.96 179.706 130.203 179.15 130.394C178.601 130.585 177.957 130.68 177.218 130.68ZM189.859 127.818V121.39C189.859 120.944 189.796 120.587 189.668 120.316C189.549 120.046 189.37 119.851 189.132 119.732C188.901 119.605 188.611 119.541 188.261 119.541C187.895 119.541 187.585 119.617 187.331 119.768C187.084 119.919 186.898 120.126 186.77 120.388C186.643 120.642 186.58 120.937 186.58 121.27H183.801C183.801 120.754 183.904 120.257 184.111 119.78C184.326 119.303 184.632 118.877 185.029 118.504C185.427 118.13 185.908 117.836 186.472 117.621C187.037 117.407 187.665 117.299 188.357 117.299C189.183 117.299 189.919 117.438 190.563 117.717C191.207 117.987 191.712 118.428 192.077 119.04C192.451 119.645 192.638 120.44 192.638 121.425V127.448C192.638 128.044 192.674 128.577 192.745 129.046C192.825 129.507 192.932 129.909 193.067 130.251V130.441H190.241C190.114 130.131 190.018 129.734 189.955 129.249C189.891 128.764 189.859 128.287 189.859 127.818ZM190.229 122.582L190.241 124.383H188.905C188.508 124.383 188.15 124.439 187.832 124.55C187.514 124.653 187.244 124.804 187.021 125.003C186.806 125.194 186.639 125.429 186.52 125.707C186.409 125.985 186.353 126.291 186.353 126.625C186.353 127.031 186.409 127.361 186.52 127.615C186.639 127.869 186.81 128.06 187.033 128.187C187.263 128.307 187.542 128.366 187.868 128.366C188.313 128.366 188.698 128.271 189.024 128.08C189.358 127.881 189.613 127.643 189.788 127.365C189.971 127.086 190.042 126.832 190.002 126.601L190.634 127.758C190.571 128.06 190.452 128.378 190.277 128.712C190.11 129.046 189.891 129.364 189.621 129.666C189.35 129.968 189.024 130.215 188.643 130.406C188.261 130.588 187.82 130.68 187.319 130.68C186.596 130.68 185.952 130.529 185.387 130.227C184.823 129.925 184.377 129.491 184.051 128.927C183.733 128.354 183.574 127.671 183.574 126.876C183.574 126.232 183.682 125.647 183.896 125.122C184.111 124.598 184.429 124.149 184.85 123.775C185.272 123.393 185.8 123.099 186.437 122.892C187.081 122.686 187.832 122.582 188.691 122.582H190.229ZM200.068 128.354C200.425 128.354 200.744 128.279 201.022 128.128C201.308 127.977 201.535 127.742 201.702 127.424C201.869 127.098 201.96 126.677 201.976 126.16H204.588C204.572 127.074 204.361 127.873 203.956 128.557C203.55 129.233 203.009 129.758 202.334 130.131C201.666 130.497 200.922 130.68 200.104 130.68C199.253 130.68 198.509 130.545 197.873 130.274C197.245 129.996 196.725 129.595 196.311 129.07C195.898 128.545 195.588 127.909 195.381 127.162C195.182 126.407 195.083 125.544 195.083 124.574V123.405C195.083 122.443 195.182 121.585 195.381 120.829C195.588 120.074 195.898 119.434 196.311 118.909C196.725 118.384 197.245 117.987 197.873 117.717C198.501 117.438 199.241 117.299 200.092 117.299C200.998 117.299 201.781 117.49 202.441 117.872C203.109 118.245 203.63 118.794 204.003 119.517C204.377 120.241 204.572 121.127 204.588 122.177H201.976C201.96 121.62 201.876 121.155 201.725 120.782C201.574 120.4 201.36 120.114 201.081 119.923C200.811 119.732 200.469 119.637 200.056 119.637C199.603 119.637 199.229 119.724 198.935 119.899C198.649 120.066 198.426 120.312 198.267 120.638C198.116 120.964 198.009 121.362 197.945 121.831C197.889 122.292 197.861 122.817 197.861 123.405V124.574C197.861 125.178 197.889 125.715 197.945 126.184C198.001 126.645 198.104 127.039 198.255 127.365C198.414 127.691 198.641 127.937 198.935 128.104C199.229 128.271 199.607 128.354 200.068 128.354ZM211.683 130.68C210.849 130.68 210.105 130.557 209.453 130.31C208.801 130.056 208.249 129.682 207.796 129.189C207.342 128.688 206.997 128.076 206.758 127.353C206.52 126.621 206.4 125.774 206.4 124.812V123.572C206.4 122.483 206.524 121.545 206.77 120.758C207.024 119.963 207.374 119.311 207.819 118.802C208.265 118.293 208.789 117.915 209.394 117.669C210.006 117.422 210.67 117.299 211.385 117.299C212.196 117.299 212.9 117.43 213.496 117.693C214.092 117.955 214.581 118.349 214.963 118.873C215.353 119.398 215.639 120.046 215.822 120.817C216.013 121.588 216.108 122.475 216.108 123.477V124.872H207.736V122.773H213.365V122.475C213.349 121.887 213.278 121.382 213.15 120.96C213.023 120.531 212.816 120.205 212.53 119.982C212.252 119.752 211.866 119.637 211.373 119.637C211.016 119.637 210.698 119.704 210.419 119.839C210.141 119.975 209.91 120.193 209.728 120.495C209.553 120.797 209.418 121.203 209.322 121.712C209.227 122.213 209.179 122.833 209.179 123.572V124.812C209.179 125.456 209.235 126.001 209.346 126.446C209.465 126.891 209.64 127.257 209.871 127.543C210.101 127.822 210.38 128.028 210.706 128.164C211.039 128.291 211.425 128.354 211.862 128.354C212.506 128.354 213.059 128.235 213.52 127.997C213.989 127.75 214.395 127.432 214.736 127.043L215.965 128.748C215.734 129.058 215.424 129.364 215.035 129.666C214.645 129.96 214.172 130.203 213.615 130.394C213.067 130.585 212.423 130.68 211.683 130.68ZM226.829 127.555L229.357 117.538H231.111L230.765 120.603L228.248 130.441H226.698L226.829 127.555ZM225.768 117.538L227.7 127.591L227.712 130.441H225.971L223.073 117.538H225.768ZM233.15 127.472L234.998 117.538H237.706L234.808 130.441H233.066L233.15 127.472ZM231.409 117.538L233.901 127.424L234.08 130.441H232.53L229.966 120.603L229.632 117.538H231.409ZM242.345 112.123V130.441H239.578V112.123H242.345ZM241.856 123.524H240.973C240.965 122.626 241.061 121.799 241.259 121.044C241.458 120.289 241.744 119.629 242.118 119.064C242.492 118.5 242.941 118.066 243.466 117.764C243.998 117.454 244.587 117.299 245.231 117.299C245.763 117.299 246.244 117.391 246.674 117.573C247.111 117.748 247.485 118.027 247.795 118.408C248.113 118.79 248.355 119.291 248.522 119.911C248.689 120.523 248.773 121.27 248.773 122.153V130.441H245.994V122.129C245.994 121.517 245.926 121.032 245.791 120.674C245.664 120.316 245.473 120.058 245.219 119.899C244.964 119.74 244.642 119.66 244.253 119.66C243.871 119.66 243.529 119.764 243.227 119.971C242.933 120.169 242.683 120.448 242.476 120.805C242.269 121.155 242.114 121.565 242.011 122.034C241.907 122.495 241.856 122.992 241.856 123.524ZM254.485 117.538V130.441H251.706V117.538H254.485ZM251.563 114.151C251.563 113.706 251.698 113.336 251.969 113.042C252.239 112.747 252.617 112.6 253.102 112.6C253.587 112.6 253.964 112.747 254.235 113.042C254.505 113.336 254.64 113.706 254.64 114.151C254.64 114.588 254.505 114.954 254.235 115.248C253.964 115.542 253.587 115.689 253.102 115.689C252.617 115.689 252.239 115.542 251.969 115.248C251.698 114.954 251.563 114.588 251.563 114.151ZM260.4 112.123V130.441H257.622V112.123H260.4ZM268.307 130.68C267.472 130.68 266.729 130.557 266.077 130.31C265.425 130.056 264.873 129.682 264.419 129.189C263.966 128.688 263.62 128.076 263.382 127.353C263.143 126.621 263.024 125.774 263.024 124.812V123.572C263.024 122.483 263.147 121.545 263.394 120.758C263.648 119.963 263.998 119.311 264.443 118.802C264.888 118.293 265.413 117.915 266.017 117.669C266.63 117.422 267.293 117.299 268.009 117.299C268.82 117.299 269.524 117.43 270.12 117.693C270.716 117.955 271.205 118.349 271.587 118.873C271.976 119.398 272.263 120.046 272.445 120.817C272.636 121.588 272.732 122.475 272.732 123.477V124.872H264.36V122.773H269.989V122.475C269.973 121.887 269.901 121.382 269.774 120.96C269.647 120.531 269.44 120.205 269.154 119.982C268.876 119.752 268.49 119.637 267.997 119.637C267.639 119.637 267.321 119.704 267.043 119.839C266.765 119.975 266.534 120.193 266.351 120.495C266.176 120.797 266.041 121.203 265.946 121.712C265.85 122.213 265.803 122.833 265.803 123.572V124.812C265.803 125.456 265.858 126.001 265.97 126.446C266.089 126.891 266.264 127.257 266.494 127.543C266.725 127.822 267.003 128.028 267.329 128.164C267.663 128.291 268.049 128.354 268.486 128.354C269.13 128.354 269.683 128.235 270.144 127.997C270.613 127.75 271.018 127.432 271.36 127.043L272.589 128.748C272.358 129.058 272.048 129.364 271.658 129.666C271.269 129.96 270.796 130.203 270.239 130.394C269.691 130.585 269.047 130.68 268.307 130.68ZM283.536 117.538V130.441H280.758V117.538H283.536ZM280.615 114.151C280.615 113.706 280.75 113.336 281.02 113.042C281.29 112.747 281.668 112.6 282.153 112.6C282.638 112.6 283.016 112.747 283.286 113.042C283.556 113.336 283.691 113.706 283.691 114.151C283.691 114.588 283.556 114.954 283.286 115.248C283.016 115.542 282.638 115.689 282.153 115.689C281.668 115.689 281.29 115.542 281.02 115.248C280.75 114.954 280.615 114.588 280.615 114.151ZM291.718 117.538V119.684H285.385V117.538H291.718ZM287.114 114.377H289.881V126.84C289.881 127.237 289.925 127.539 290.012 127.746C290.1 127.953 290.223 128.092 290.382 128.164C290.541 128.235 290.728 128.271 290.942 128.271C291.101 128.271 291.256 128.259 291.407 128.235C291.566 128.203 291.682 128.176 291.753 128.152V130.394C291.547 130.473 291.308 130.541 291.038 130.596C290.767 130.652 290.441 130.68 290.06 130.68C289.495 130.68 288.99 130.565 288.545 130.334C288.1 130.096 287.75 129.71 287.496 129.177C287.241 128.637 287.114 127.921 287.114 127.031V114.377ZM302.451 112.123V130.441H299.672V112.123H302.451ZM311.407 127.818V121.39C311.407 120.944 311.343 120.587 311.216 120.316C311.097 120.046 310.918 119.851 310.68 119.732C310.449 119.605 310.159 119.541 309.809 119.541C309.443 119.541 309.133 119.617 308.879 119.768C308.632 119.919 308.445 120.126 308.318 120.388C308.191 120.642 308.127 120.937 308.127 121.27H305.349C305.349 120.754 305.452 120.257 305.659 119.78C305.873 119.303 306.18 118.877 306.577 118.504C306.975 118.13 307.456 117.836 308.02 117.621C308.585 117.407 309.213 117.299 309.904 117.299C310.731 117.299 311.467 117.438 312.111 117.717C312.755 117.987 313.26 118.428 313.625 119.04C313.999 119.645 314.186 120.44 314.186 121.425V127.448C314.186 128.044 314.222 128.577 314.293 129.046C314.373 129.507 314.48 129.909 314.615 130.251V130.441H311.789C311.661 130.131 311.566 129.734 311.502 129.249C311.439 128.764 311.407 128.287 311.407 127.818ZM311.777 122.582L311.789 124.383H310.453C310.055 124.383 309.698 124.439 309.38 124.55C309.062 124.653 308.791 124.804 308.569 125.003C308.354 125.194 308.187 125.429 308.068 125.707C307.957 125.985 307.901 126.291 307.901 126.625C307.901 127.031 307.957 127.361 308.068 127.615C308.187 127.869 308.358 128.06 308.581 128.187C308.811 128.307 309.089 128.366 309.415 128.366C309.861 128.366 310.246 128.271 310.572 128.08C310.906 127.881 311.161 127.643 311.335 127.365C311.518 127.086 311.59 126.832 311.55 126.601L312.182 127.758C312.119 128.06 311.999 128.378 311.824 128.712C311.657 129.046 311.439 129.364 311.169 129.666C310.898 129.968 310.572 130.215 310.191 130.406C309.809 130.588 309.368 130.68 308.867 130.68C308.143 130.68 307.499 130.529 306.935 130.227C306.37 129.925 305.925 129.491 305.599 128.927C305.281 128.354 305.122 127.671 305.122 126.876C305.122 126.232 305.229 125.647 305.444 125.122C305.659 124.598 305.977 124.149 306.398 123.775C306.82 123.393 307.348 123.099 307.984 122.892C308.628 122.686 309.38 122.582 310.238 122.582H311.777ZM323.011 127.043C323.011 126.772 322.931 126.534 322.772 126.327C322.621 126.112 322.375 125.902 322.033 125.695C321.691 125.488 321.234 125.266 320.661 125.027C320.065 124.781 319.536 124.534 319.075 124.288C318.614 124.041 318.225 123.771 317.907 123.477C317.589 123.175 317.346 122.829 317.179 122.439C317.012 122.05 316.929 121.596 316.929 121.08C316.929 120.547 317.028 120.054 317.227 119.601C317.426 119.148 317.712 118.75 318.085 118.408C318.459 118.058 318.908 117.788 319.433 117.597C319.958 117.399 320.55 117.299 321.21 117.299C322.14 117.299 322.935 117.47 323.595 117.812C324.263 118.146 324.772 118.615 325.122 119.219C325.479 119.816 325.658 120.503 325.658 121.282H322.88C322.88 120.956 322.82 120.662 322.701 120.4C322.582 120.13 322.399 119.915 322.152 119.756C321.906 119.589 321.592 119.505 321.21 119.505C320.86 119.505 320.566 119.573 320.328 119.708C320.097 119.835 319.922 120.01 319.803 120.233C319.691 120.448 319.636 120.69 319.636 120.96C319.636 121.159 319.672 121.334 319.743 121.485C319.815 121.636 319.934 121.783 320.101 121.926C320.268 122.062 320.491 122.201 320.769 122.344C321.055 122.487 321.417 122.65 321.854 122.833C322.721 123.167 323.44 123.513 324.013 123.87C324.585 124.228 325.014 124.645 325.301 125.122C325.587 125.6 325.73 126.192 325.73 126.899C325.73 127.472 325.623 127.989 325.408 128.45C325.201 128.911 324.899 129.308 324.502 129.642C324.112 129.976 323.639 130.235 323.082 130.418C322.534 130.592 321.922 130.68 321.246 130.68C320.236 130.68 319.381 130.481 318.682 130.084C317.99 129.678 317.465 129.157 317.108 128.521C316.75 127.885 316.571 127.213 316.571 126.506H319.254C319.278 127.015 319.385 127.412 319.576 127.698C319.775 127.985 320.025 128.183 320.328 128.295C320.63 128.398 320.944 128.45 321.27 128.45C321.659 128.45 321.981 128.398 322.236 128.295C322.49 128.183 322.681 128.02 322.808 127.806C322.943 127.591 323.011 127.337 323.011 127.043ZM333.362 117.538V119.684H327.03V117.538H333.362ZM328.759 114.377H331.526V126.84C331.526 127.237 331.57 127.539 331.657 127.746C331.745 127.953 331.868 128.092 332.027 128.164C332.186 128.235 332.373 128.271 332.587 128.271C332.746 128.271 332.901 128.259 333.052 128.235C333.211 128.203 333.327 128.176 333.398 128.152V130.394C333.192 130.473 332.953 130.541 332.683 130.596C332.412 130.652 332.086 130.68 331.705 130.68C331.14 130.68 330.635 130.565 330.19 130.334C329.745 130.096 329.395 129.71 329.141 129.177C328.886 128.637 328.759 127.921 328.759 127.031V114.377ZM341.496 127.043C341.496 126.772 341.416 126.534 341.257 126.327C341.106 126.112 340.86 125.902 340.518 125.695C340.176 125.488 339.719 125.266 339.146 125.027C338.55 124.781 338.021 124.534 337.56 124.288C337.099 124.041 336.71 123.771 336.392 123.477C336.074 123.175 335.831 122.829 335.664 122.439C335.497 122.05 335.414 121.596 335.414 121.08C335.414 120.547 335.513 120.054 335.712 119.601C335.911 119.148 336.197 118.75 336.57 118.408C336.944 118.058 337.393 117.788 337.918 117.597C338.443 117.399 339.035 117.299 339.695 117.299C340.625 117.299 341.42 117.47 342.08 117.812C342.748 118.146 343.257 118.615 343.607 119.219C343.964 119.816 344.143 120.503 344.143 121.282H341.365C341.365 120.956 341.305 120.662 341.186 120.4C341.066 120.13 340.884 119.915 340.637 119.756C340.391 119.589 340.077 119.505 339.695 119.505C339.345 119.505 339.051 119.573 338.813 119.708C338.582 119.835 338.407 120.01 338.288 120.233C338.176 120.448 338.121 120.69 338.121 120.96C338.121 121.159 338.157 121.334 338.228 121.485C338.3 121.636 338.419 121.783 338.586 121.926C338.753 122.062 338.975 122.201 339.254 122.344C339.54 122.487 339.902 122.65 340.339 122.833C341.206 123.167 341.925 123.513 342.498 123.87C343.07 124.228 343.499 124.645 343.786 125.122C344.072 125.6 344.215 126.192 344.215 126.899C344.215 127.472 344.108 127.989 343.893 128.45C343.686 128.911 343.384 129.308 342.987 129.642C342.597 129.976 342.124 130.235 341.567 130.418C341.019 130.592 340.407 130.68 339.731 130.68C338.721 130.68 337.866 130.481 337.167 130.084C336.475 129.678 335.95 129.157 335.593 128.521C335.235 127.885 335.056 127.213 335.056 126.506H337.739C337.763 127.015 337.87 127.412 338.061 127.698C338.26 127.985 338.51 128.183 338.813 128.295C339.115 128.398 339.429 128.45 339.755 128.45C340.144 128.45 340.466 128.398 340.721 128.295C340.975 128.183 341.166 128.02 341.293 127.806C341.428 127.591 341.496 127.337 341.496 127.043ZM349.868 113.077L349.582 125.301H347.208L346.922 113.077H349.868ZM346.874 129.046C346.874 128.609 347.01 128.239 347.28 127.937C347.558 127.627 347.936 127.472 348.413 127.472C348.898 127.472 349.275 127.627 349.546 127.937C349.816 128.239 349.951 128.609 349.951 129.046C349.951 129.483 349.816 129.857 349.546 130.167C349.275 130.469 348.898 130.62 348.413 130.62C347.936 130.62 347.558 130.469 347.28 130.167C347.01 129.857 346.874 129.483 346.874 129.046Z" fill="white"/>
<path d="M203.23 32.6345V24.1675M203.23 15.7005H203.251M224.398 24.1675C224.398 35.858 214.921 45.335 203.23 45.335C191.54 45.335 182.062 35.858 182.062 24.1675C182.062 12.477 191.54 3 203.23 3C214.921 3 224.398 12.477 224.398 24.1675Z" stroke="white" stroke-width="5.69894" stroke-linecap="round" stroke-linejoin="round"/>
</g>
</svg>
