<svg width="20" height="24" viewBox="0 0 20 24" fill="none" xmlns="http://www.w3.org/2000/svg">
<path opacity="0.8" d="M10.6032 0.867188C11.0575 0.942908 11.5875 1.01862 12.0419 1.17007C14.6164 2.003 16.358 4.57751 16.1308 7.22774C15.9037 10.0294 13.8592 12.3768 11.1333 12.7554C7.80154 13.2854 4.69698 11.0138 4.16693 7.68207C3.7126 4.50179 5.90851 1.39724 9.08879 0.942913C9.24023 0.942913 9.4674 0.867188 9.61884 0.867188C9.92172 0.867188 10.2246 0.867188 10.6032 0.867188Z" fill="#564589"/>
<path opacity="0.8" d="M10.0728 23.5823C7.04398 23.5823 3.93942 23.5823 0.834864 23.5823C0.304818 23.5823 0.00195312 23.3551 0.00195312 22.7494C0.077674 18.6604 3.03078 15.1016 7.04398 14.2686C7.49831 14.1929 7.95265 14.1172 8.4827 14.1172C9.46707 14.1172 10.4514 14.1172 11.3601 14.1172C15.2218 14.1172 18.6293 16.7674 19.6894 20.5535C19.9165 21.3107 19.9922 22.0679 19.9922 22.8251C19.9922 23.3551 19.7651 23.5823 19.235 23.5823C16.2819 23.5823 13.1774 23.5823 10.0728 23.5823Z" fill="#564589"/>
</svg>
