<svg width="114" height="99" viewBox="0 0 114 99" fill="none" xmlns="http://www.w3.org/2000/svg">
<path d="M0.101562 56.2625C18.6016 56.2625 37.1016 56.2625 55.6016 56.2625C56.5016 56.2625 57.0016 56.4625 57.5016 57.2625C62.3016 64.3625 68.9016 69.5625 76.1016 74.0625C77.1016 74.6625 78.2016 75.3624 79.2016 75.9624C82.8016 77.9624 86.4016 78.1625 90.0016 76.0625C96.7016 72.2625 102.902 67.8626 108.102 62.1626C109.502 60.5626 110.702 58.8625 112.002 57.2625C112.202 56.9625 112.402 56.6625 112.902 56.0625C112.902 56.7625 113.002 57.0625 113.002 57.3625C113.002 68.5625 113.002 79.7624 113.002 90.9624C113.002 95.7624 110.102 98.6626 105.302 98.6626C72.8015 98.6626 40.4016 98.6626 7.90155 98.6626C3.80155 98.6626 1.50154 96.8624 0.301544 92.9624C0.301544 92.8624 0.201563 92.7626 0.101562 92.6626C0.101562 80.4626 0.101562 68.3625 0.101562 56.2625ZM24.7016 77.3625C26.9016 77.3625 29.2015 77.3625 31.4016 77.3625C33.8016 77.3625 35.3016 75.9625 35.4016 73.8625C35.4016 71.7625 33.8016 70.3625 31.5016 70.3625C27.1016 70.3625 22.6016 70.3625 18.2016 70.3625C15.9016 70.3625 14.3015 71.8624 14.3015 73.9624C14.3015 75.9624 15.9016 77.4624 18.2016 77.4624C20.3016 77.3624 22.5016 77.3625 24.7016 77.3625Z" fill="#5E5490"/>
<path d="M0.100006 26.8665C0.700006 24.6665 1.69999 22.7664 3.89999 21.7664C4.89999 21.2664 6.09999 20.9663 7.29999 20.9663C21.2 20.8663 35 20.9663 48.9 20.9663C49 20.9663 49.2 20.9664 49.5 21.0664C49.5 24.5664 49.3 28.0664 49.5 31.5664C49.7 35.0664 50.2 38.5665 50.6 42.1665C33.8 42.1665 16.9 42.1665 0 42.1665C0.1 37.0665 0.100006 31.9665 0.100006 26.8665Z" fill="#5E5490"/>
<path d="M113.198 22.7638C112.798 27.9638 112.698 33.1639 111.998 38.3639C110.698 47.8639 105.798 55.464 98.4984 61.664C94.8984 64.764 90.8984 67.3638 86.7984 69.7638C85.4984 70.5638 84.1984 70.6639 82.7984 69.8639C76.8984 66.3639 71.2984 62.5638 66.5984 57.4638C61.2984 51.7638 58.2984 44.9638 57.1984 37.2638C56.0984 29.5638 56.6984 21.7639 56.5984 14.0639C56.5984 12.4639 57.3984 11.364 58.8984 10.664C66.9984 7.16397 75.1984 3.66383 83.3984 0.263826C84.1984 -0.136174 85.4984 -0.0361741 86.2984 0.263826C94.3984 3.66383 102.598 7.16397 110.698 10.664C112.298 11.364 112.998 12.5638 112.998 14.2638C112.998 17.0638 112.998 19.9638 112.998 22.7638C112.998 22.6638 113.098 22.6638 113.198 22.7638ZM81.4984 36.0639C81.1984 35.6639 80.9984 35.364 80.7984 35.164C79.5984 33.364 78.4984 31.6639 77.2984 29.8639C75.9984 27.9639 73.9984 27.464 72.2984 28.664C70.5984 29.764 70.1984 31.8638 71.4984 33.7638C73.6984 37.0638 75.8984 40.4638 78.1984 43.7638C79.8984 46.1638 82.4984 46.3639 84.2984 44.0639C88.8984 38.3639 93.3984 32.6638 97.9984 26.9638C99.3984 25.1638 99.1984 23.0638 97.5984 21.7638C95.9984 20.4638 93.8984 20.8639 92.4984 22.5639C91.4984 23.7639 90.5984 24.964 89.5984 26.164C86.7984 29.464 84.1984 32.7639 81.4984 36.0639Z" fill="#5E5490"/>
</svg>
