<svg width="89" height="97" viewBox="0 0 89 97" fill="none" xmlns="http://www.w3.org/2000/svg">
<path d="M88.5032 30.527C88.4032 34.827 88.5032 39.227 88.1031 43.527C87.3031 54.427 83.6032 64.427 77.4032 73.527C70.4032 83.727 61.1031 91.127 49.7031 95.827C46.1031 97.327 42.6031 97.327 39.1031 95.827C20.2031 87.727 7.90322 73.827 2.30322 54.027C0.803223 48.827 0.203125 43.427 0.203125 38.027C0.203125 32.127 0.203125 26.227 0.203125 20.327C0.203125 13.527 4.3032 8.52699 10.9032 7.02699C20.9032 4.72699 31.0032 2.52704 41.0032 0.327035C43.7032 -0.272965 46.4031 0.0270839 49.1031 0.627084C58.7031 2.82708 68.2032 4.82699 77.8032 7.02699C84.4032 8.52699 88.3032 13.627 88.4032 20.327C88.4032 23.727 88.4032 27.1269 88.4032 30.4269C88.4032 30.5269 88.4032 30.527 88.5032 30.527ZM40.9032 50.1271C40.6032 49.8271 40.4031 49.6269 40.1031 49.4269C38.1031 47.4269 36.1031 45.427 34.1031 43.527C32.9031 42.327 31.4032 41.8269 29.8032 42.2269C26.4032 43.1269 25.4032 47.1269 27.9032 49.7269C31.0032 52.9269 34.2032 55.927 37.4032 59.027C39.8032 61.327 42.1032 61.427 44.5032 59.027C48.8032 54.827 53.1032 50.527 57.4032 46.327C59.9032 43.827 62.4032 41.2269 65.0032 38.9269C66.9032 37.2269 67.2032 34.5271 65.5032 32.6271C63.8032 30.7271 61.0032 30.7271 59.1031 32.6271C53.4031 38.1271 47.7031 43.6269 42.1031 49.2269C41.6031 49.5269 41.3032 49.8271 40.9032 50.1271Z" fill="#5E5490"/>
</svg>
