<svg width="42" height="39" viewBox="0 0 42 39" fill="none" xmlns="http://www.w3.org/2000/svg">
<path opacity="0.5" d="M19.1625 1.0158C19.8234 -0.323286 21.7329 -0.323288 22.3937 1.01579L27.2645 10.885C27.5269 11.4167 28.0342 11.7853 28.621 11.8706L39.5123 13.4532C40.9901 13.6679 41.5802 15.4839 40.5109 16.5263L32.6298 24.2084C32.2052 24.6223 32.0114 25.2186 32.1117 25.8031L33.9721 36.6504C34.2246 38.1222 32.6798 39.2446 31.358 38.5497L21.6165 33.4283C21.0916 33.1523 20.4646 33.1523 19.9397 33.4283L10.1983 38.5497C8.8765 39.2446 7.33169 38.1222 7.58412 36.6504L9.44458 25.8031C9.54482 25.2186 9.35105 24.6223 8.92642 24.2084L1.0454 16.5263C-0.0239204 15.4839 0.566143 13.6679 2.04391 13.4532L12.9352 11.8706C13.522 11.7853 14.0293 11.4167 14.2918 10.885L19.1625 1.0158Z" fill="#FFD768"/>
</svg>
