<svg width="42" height="39" viewBox="0 0 42 39" fill="none" xmlns="http://www.w3.org/2000/svg">
<path opacity="0.5" d="M19.6313 1.0158C20.2921 -0.323286 22.2016 -0.323288 22.8625 1.01579L27.7332 10.885C27.9957 11.4167 28.503 11.7853 29.0898 11.8706L39.9811 13.4532C41.4589 13.6679 42.0489 15.4839 40.9796 16.5263L33.0986 24.2084C32.6739 24.6223 32.4802 25.2186 32.5804 25.8031L34.4409 36.6504C34.6933 38.1222 33.1485 39.2446 31.8267 38.5497L22.0853 33.4283C21.5604 33.1523 20.9334 33.1523 20.4085 33.4283L10.667 38.5497C9.34525 39.2446 7.80044 38.1222 8.05287 36.6504L9.91333 25.8031C10.0136 25.2186 9.8198 24.6223 9.39517 24.2084L1.51415 16.5263C0.44483 15.4839 1.03489 13.6679 2.51266 13.4532L13.404 11.8706C13.9908 11.7853 14.4981 11.4167 14.7605 10.885L19.6313 1.0158Z" fill="#887CC4"/>
</svg>
