<svg width="352" height="147" viewBox="0 0 352 147" fill="none" xmlns="http://www.w3.org/2000/svg">
<path fill-rule="evenodd" clip-rule="evenodd" d="M36.7707 65.9516C29.1883 63.1341 25.0329 60.9426 25.0329 57.499C25.0329 54.5766 27.4222 52.9072 31.6812 52.9072C39.4716 52.9072 47.4692 55.9337 52.9747 58.6463L56.0908 39.3415C51.7282 37.2542 42.795 33.8105 30.4347 33.8105C21.7095 33.8105 14.4379 36.106 9.24486 40.3848C3.843 44.8717 1.03846 51.3419 1.03846 59.1684C1.03846 73.3602 9.66009 79.4132 23.6828 84.5262C32.7197 87.7609 35.7322 90.0572 35.7322 93.605C35.7322 97.0486 32.8233 99.0311 27.5258 99.0311C20.9819 99.0311 10.1797 95.7964 3.11616 91.6225L0 111.136C6.02431 114.58 17.2425 118.128 28.8767 118.128C38.1207 118.128 45.8075 115.936 51.0014 111.762C56.8177 107.171 59.8302 100.388 59.8302 91.6225C59.8302 77.1169 51.0014 71.0646 36.7707 65.9516ZM110.559 54.5766L113.675 35.3758H97.2241V12.0669L75.1056 15.7234L71.9116 35.3758L64.1321 36.6437L61.22 54.5766H71.8796V92.2486C71.8796 102.058 74.3726 108.841 79.462 113.015C83.721 116.458 89.849 118.128 98.4706 118.128C105.118 118.128 109.169 116.98 111.974 116.249V95.9005C110.416 96.3184 106.884 97.0486 104.495 97.0486C99.4054 97.0486 97.2241 94.4401 97.2241 88.4919V54.5766H110.559ZM159.963 34.2543C152.692 34.2543 146.875 38.0892 144.59 44.9766L143.032 35.3758H120.492V116.562H146.251V63.8643C149.472 59.8986 154.042 58.4648 160.274 58.4648C161.625 58.4648 163.079 58.4648 164.845 58.7778V34.8804C163.079 34.4632 161.521 34.2543 159.963 34.2543ZM184.061 27.3403C191.54 27.3403 197.564 21.184 197.564 13.6706C197.564 6.05224 191.54 0 184.061 0C176.478 0 170.454 6.05224 170.454 13.6706C170.454 21.184 176.478 27.3403 184.061 27.3403ZM171.077 35.3758H196.941V116.562H171.077V35.3758ZM270.236 42.6803C265.665 36.7321 259.329 33.8105 251.227 33.8105C243.748 33.8105 237.204 36.9411 231.076 43.5154L229.726 35.3758H207.081V90.996V146.616L232.842 142.338V116.249C236.788 117.502 240.839 118.128 244.475 118.128C250.915 118.128 260.264 116.458 267.535 108.528C274.494 100.909 278.026 89.118 278.026 73.5691C278.026 59.7945 275.429 49.3594 270.236 42.6803ZM248.838 92.7699C246.76 96.7356 243.54 98.8229 239.801 98.8229C237.204 98.8229 234.919 98.3009 232.842 97.2576V58.6463C237.204 54.0553 241.151 53.5333 242.605 53.5333C249.149 53.5333 252.369 60.6296 252.369 74.5083C252.369 82.4389 251.227 88.596 248.838 92.7699ZM351.879 75.2385C351.879 62.299 349.074 52.0721 343.569 44.8717C337.96 37.5672 329.546 33.8105 318.848 33.8105C296.93 33.8105 283.323 50.0896 283.323 76.1777C283.323 90.7874 286.958 101.745 294.126 108.736C300.566 114.997 309.811 118.128 321.756 118.128C332.766 118.128 342.946 115.519 349.386 111.24L346.581 93.5009C340.245 96.9445 332.87 98.8229 324.56 98.8229C319.574 98.8229 316.147 97.7789 313.654 95.5874C310.953 93.2919 309.395 89.5352 308.876 84.2132H351.567C351.671 82.9609 351.879 77.1169 351.879 75.2385ZM308.668 68.3512C309.395 56.768 312.511 51.3419 318.432 51.3419C324.249 51.3419 327.261 56.8728 327.677 68.3512H308.668Z" fill="#635BFF"/>
</svg>
