<svg width="25" height="30" viewBox="0 0 25 30" fill="none" xmlns="http://www.w3.org/2000/svg">
<path d="M22.9311 7.53789C21.5372 7.23807 20.2749 6.49837 19.3283 5.42663C18.3818 4.3549 17.8004 3.00716 17.669 1.5799V0.960938H12.8604V20.15C12.8575 20.9996 12.5898 21.8268 12.0952 22.5155C11.6006 23.2042 10.9037 23.7197 10.1027 23.9897C9.30162 24.2596 8.43658 24.2704 7.62911 24.0205C6.82165 23.7706 6.11235 23.2726 5.60089 22.5964C5.08149 21.9089 4.79337 21.073 4.7783 20.2097C4.76323 19.3465 5.02201 18.5009 5.5171 17.7955C6.01219 17.0901 6.71785 16.5616 7.53177 16.2867C8.34568 16.0118 9.22552 16.0047 10.0437 16.2665V11.3541C8.2192 11.1005 6.36148 11.4267 4.7304 12.287C3.09932 13.1473 1.77646 14.4988 0.946853 16.1523C0.117246 17.8059 -0.177613 19.6789 0.10352 21.5092C0.384652 23.3396 1.22771 25.0358 2.51478 26.3607C3.74219 27.6235 5.31599 28.4899 7.03529 28.8493C8.75459 29.2087 10.5414 29.0448 12.1676 28.3784C13.7939 27.7121 15.1857 26.5736 16.1656 25.1083C17.1455 23.6429 17.6688 21.9172 17.669 20.1514V10.3464C19.6122 11.7434 21.9423 12.4924 24.3311 12.4882V7.68386C23.8606 7.68445 23.3914 7.63552 22.9311 7.53789Z" fill="#473171"/>
</svg>
