<svg width="479" height="105" viewBox="0 0 479 105" fill="none" xmlns="http://www.w3.org/2000/svg">
<rect x="12" width="467" height="105" rx="7" fill="#8653FF"/>
<path d="M5.89131 0H20.1248C22.2321 0 23.6826 2.11553 22.9232 4.0812L17.985 16.8623C17.1287 19.0787 14.158 19.4673 12.7604 17.5456L3.4651 4.76451C2.02299 2.78161 3.43945 0 5.89131 0Z" fill="#8653FF"/>
<path d="M34.3267 26.4629H31.1787V24.3813H34.3267C34.8462 24.3813 35.2632 24.272 35.5776 24.0532C35.8921 23.8345 36.1211 23.5337 36.2646 23.1509C36.415 22.7681 36.4902 22.334 36.4902 21.8486C36.4902 21.3838 36.415 20.9463 36.2646 20.5361C36.1211 20.126 35.8921 19.7944 35.5776 19.5415C35.2632 19.2886 34.8462 19.1621 34.3267 19.1621H31.8862V32H29.3945V17.0703H34.3267C35.3179 17.0703 36.1587 17.2754 36.8491 17.6855C37.5464 18.0957 38.0796 18.6597 38.4487 19.3774C38.8179 20.0884 39.0024 20.9053 39.0024 21.8281C39.0024 22.792 38.8179 23.6191 38.4487 24.3096C38.0796 25 37.5464 25.5332 36.8491 25.9092C36.1587 26.2783 35.3179 26.4629 34.3267 26.4629ZM43.5449 16.25V32H41.1558V16.25H43.5449ZM50.3433 32.2051C49.6255 32.2051 48.9863 32.0991 48.4258 31.8872C47.8652 31.6685 47.3901 31.3472 47.0005 30.9233C46.6108 30.4927 46.3135 29.9663 46.1084 29.3442C45.9033 28.7153 45.8008 27.9873 45.8008 27.1602V26.0938C45.8008 25.1572 45.9067 24.3506 46.1187 23.6738C46.3374 22.9902 46.6382 22.4297 47.021 21.9922C47.4038 21.5547 47.855 21.23 48.3745 21.0181C48.9009 20.8062 49.4717 20.7002 50.0869 20.7002C50.7842 20.7002 51.3892 20.813 51.9019 21.0386C52.4146 21.2642 52.835 21.6025 53.1631 22.0537C53.498 22.5049 53.7441 23.062 53.9014 23.7251C54.0654 24.3882 54.1475 25.1504 54.1475 26.0117V27.2114H46.9492V25.4067H51.7891V25.1504C51.7754 24.6445 51.7139 24.2104 51.6045 23.8481C51.4951 23.479 51.3174 23.1987 51.0713 23.0073C50.832 22.8091 50.5005 22.71 50.0767 22.71C49.769 22.71 49.4956 22.7681 49.2563 22.8843C49.0171 23.0005 48.8188 23.1885 48.6616 23.4482C48.5112 23.708 48.395 24.0566 48.313 24.4941C48.231 24.9248 48.1899 25.458 48.1899 26.0938V27.1602C48.1899 27.7139 48.2378 28.1821 48.3335 28.5649C48.436 28.9478 48.5864 29.2622 48.7847 29.5083C48.9829 29.7476 49.2222 29.9253 49.5024 30.0415C49.7896 30.1509 50.1211 30.2056 50.4971 30.2056C51.0508 30.2056 51.5259 30.103 51.9224 29.8979C52.3257 29.686 52.6743 29.4126 52.9683 29.0776L54.0244 30.5439C53.8262 30.8105 53.5596 31.0737 53.2246 31.3335C52.8896 31.5864 52.4829 31.7949 52.0044 31.959C51.5327 32.123 50.979 32.2051 50.3433 32.2051ZM61.2124 29.7441V24.2173C61.2124 23.8345 61.1577 23.5269 61.0483 23.2944C60.9458 23.062 60.792 22.8945 60.5869 22.792C60.3887 22.6826 60.1392 22.6279 59.8384 22.6279C59.5239 22.6279 59.2573 22.6929 59.0386 22.8228C58.8267 22.9526 58.666 23.1304 58.5566 23.356C58.4473 23.5747 58.3926 23.8276 58.3926 24.1147H56.0034C56.0034 23.6704 56.0923 23.2432 56.27 22.833C56.4546 22.4229 56.7178 22.0571 57.0596 21.7358C57.4014 21.4146 57.8149 21.1616 58.3003 20.9771C58.7856 20.7925 59.3257 20.7002 59.9204 20.7002C60.6313 20.7002 61.2637 20.8198 61.8174 21.0591C62.3711 21.2915 62.8052 21.6709 63.1196 22.1973C63.4409 22.7168 63.6016 23.4004 63.6016 24.248V29.4263C63.6016 29.939 63.6323 30.397 63.6938 30.8003C63.7622 31.1968 63.8545 31.542 63.9707 31.8359V32H61.5405C61.4312 31.7334 61.3491 31.3916 61.2944 30.9746C61.2397 30.5576 61.2124 30.1475 61.2124 29.7441ZM61.5303 25.2427L61.5405 26.791H60.3921C60.0503 26.791 59.7427 26.8389 59.4692 26.9346C59.1958 27.0234 58.9634 27.1533 58.772 27.3242C58.5874 27.4883 58.4438 27.6899 58.3413 27.9292C58.2456 28.1685 58.1978 28.4316 58.1978 28.7188C58.1978 29.0674 58.2456 29.3511 58.3413 29.5698C58.4438 29.7886 58.5908 29.9526 58.7822 30.062C58.9805 30.1646 59.2197 30.2158 59.5 30.2158C59.8828 30.2158 60.2144 30.1338 60.4946 29.9697C60.7817 29.7988 61.0005 29.5938 61.1509 29.3545C61.3081 29.1152 61.3696 28.8965 61.3354 28.6982L61.8789 29.6929C61.8242 29.9526 61.7217 30.2261 61.5713 30.5132C61.4277 30.8003 61.2397 31.0737 61.0073 31.3335C60.7749 31.5933 60.4946 31.8052 60.1665 31.9692C59.8384 32.1265 59.459 32.2051 59.0283 32.2051C58.4062 32.2051 57.8525 32.0752 57.3672 31.8154C56.8818 31.5557 56.499 31.1831 56.2188 30.6978C55.9453 30.2056 55.8086 29.6177 55.8086 28.9341C55.8086 28.3804 55.9009 27.8779 56.0854 27.4268C56.27 26.9756 56.5435 26.5894 56.9058 26.2681C57.2681 25.9399 57.7227 25.687 58.2695 25.5093C58.8232 25.3315 59.4692 25.2427 60.2075 25.2427H61.5303ZM71.1895 29.0776C71.1895 28.8452 71.1211 28.6401 70.9844 28.4624C70.8545 28.2778 70.6426 28.0967 70.3486 27.9189C70.0547 27.7412 69.6616 27.5498 69.1694 27.3447C68.6567 27.1328 68.2021 26.9209 67.8057 26.709C67.4092 26.4971 67.0742 26.2646 66.8008 26.0117C66.5273 25.752 66.3188 25.4546 66.1753 25.1196C66.0317 24.7847 65.96 24.395 65.96 23.9507C65.96 23.4927 66.0454 23.0688 66.2163 22.6792C66.3872 22.2896 66.6333 21.9478 66.9546 21.6538C67.2759 21.353 67.6621 21.1206 68.1133 20.9565C68.5645 20.7856 69.0737 20.7002 69.6411 20.7002C70.4409 20.7002 71.1245 20.8472 71.6919 21.1411C72.2661 21.4282 72.7036 21.8315 73.0044 22.3511C73.312 22.8638 73.4658 23.4551 73.4658 24.125H71.0767C71.0767 23.8447 71.0254 23.5918 70.9229 23.3662C70.8203 23.1338 70.6631 22.9492 70.4512 22.8125C70.2393 22.6689 69.9692 22.5972 69.6411 22.5972C69.3403 22.5972 69.0874 22.6553 68.8823 22.7715C68.6841 22.8809 68.5337 23.0312 68.4312 23.2227C68.3354 23.4072 68.2876 23.6157 68.2876 23.8481C68.2876 24.019 68.3184 24.1694 68.3799 24.2993C68.4414 24.4292 68.5439 24.5557 68.6875 24.6787C68.8311 24.7949 69.0225 24.9146 69.2617 25.0376C69.5078 25.1606 69.8188 25.3008 70.1948 25.458C70.9399 25.7451 71.5586 26.0425 72.0508 26.3501C72.543 26.6577 72.9121 27.0166 73.1582 27.4268C73.4043 27.8369 73.5273 28.3462 73.5273 28.9546C73.5273 29.4468 73.4351 29.8911 73.2505 30.2876C73.0728 30.6841 72.813 31.0259 72.4712 31.313C72.1362 31.6001 71.7295 31.8223 71.251 31.9795C70.7793 32.1299 70.2529 32.2051 69.6719 32.2051C68.8037 32.2051 68.0688 32.0342 67.4673 31.6924C66.8726 31.3438 66.4214 30.896 66.1138 30.3491C65.8062 29.8022 65.6523 29.2246 65.6523 28.6162H67.9595C67.98 29.0537 68.0723 29.3955 68.2363 29.6416C68.4072 29.8877 68.6226 30.0586 68.8823 30.1543C69.1421 30.2432 69.4121 30.2876 69.6924 30.2876C70.0273 30.2876 70.3042 30.2432 70.5229 30.1543C70.7417 30.0586 70.9058 29.9185 71.0151 29.7339C71.1313 29.5493 71.1895 29.3306 71.1895 29.0776ZM79.854 32.2051C79.1362 32.2051 78.4971 32.0991 77.9365 31.8872C77.376 31.6685 76.9009 31.3472 76.5112 30.9233C76.1216 30.4927 75.8242 29.9663 75.6191 29.3442C75.4141 28.7153 75.3115 27.9873 75.3115 27.1602V26.0938C75.3115 25.1572 75.4175 24.3506 75.6294 23.6738C75.8481 22.9902 76.1489 22.4297 76.5317 21.9922C76.9146 21.5547 77.3657 21.23 77.8853 21.0181C78.4116 20.8062 78.9824 20.7002 79.5977 20.7002C80.2949 20.7002 80.8999 20.813 81.4126 21.0386C81.9253 21.2642 82.3457 21.6025 82.6738 22.0537C83.0088 22.5049 83.2549 23.062 83.4121 23.7251C83.5762 24.3882 83.6582 25.1504 83.6582 26.0117V27.2114H76.46V25.4067H81.2998V25.1504C81.2861 24.6445 81.2246 24.2104 81.1152 23.8481C81.0059 23.479 80.8281 23.1987 80.582 23.0073C80.3428 22.8091 80.0112 22.71 79.5874 22.71C79.2798 22.71 79.0063 22.7681 78.7671 22.8843C78.5278 23.0005 78.3296 23.1885 78.1724 23.4482C78.022 23.708 77.9058 24.0566 77.8237 24.4941C77.7417 24.9248 77.7007 25.458 77.7007 26.0938V27.1602C77.7007 27.7139 77.7485 28.1821 77.8442 28.5649C77.9468 28.9478 78.0972 29.2622 78.2954 29.5083C78.4937 29.7476 78.7329 29.9253 79.0132 30.0415C79.3003 30.1509 79.6318 30.2056 80.0078 30.2056C80.5615 30.2056 81.0366 30.103 81.4331 29.8979C81.8364 29.686 82.1851 29.4126 82.479 29.0776L83.5352 30.5439C83.3369 30.8105 83.0703 31.0737 82.7354 31.3335C82.4004 31.5864 81.9937 31.7949 81.5151 31.959C81.0435 32.123 80.4897 32.2051 79.854 32.2051ZM95.8911 29.3853V20.9053H98.2803V32H96.0347L95.8911 29.3853ZM96.2295 27.0679L96.9883 27.0474C96.9883 27.7925 96.9199 28.4795 96.7832 29.1084C96.6465 29.7373 96.4346 30.2842 96.1475 30.749C95.8672 31.207 95.5015 31.5659 95.0503 31.8257C94.606 32.0786 94.0693 32.2051 93.4404 32.2051C92.9893 32.2051 92.5757 32.1265 92.1997 31.9692C91.8237 31.812 91.499 31.5693 91.2256 31.2412C90.9521 30.9131 90.7402 30.4858 90.5898 29.9595C90.4395 29.4331 90.3643 28.8042 90.3643 28.0728V20.9053H92.7534V28.0933C92.7534 28.4897 92.7876 28.8213 92.856 29.0879C92.9243 29.3477 93.02 29.5596 93.1431 29.7236C93.2661 29.8809 93.4028 29.9937 93.5532 30.062C93.7104 30.1235 93.8779 30.1543 94.0557 30.1543C94.5957 30.1543 95.0229 30.021 95.3374 29.7544C95.6587 29.481 95.8877 29.1118 96.0244 28.647C96.1611 28.1821 96.2295 27.6558 96.2295 27.0679ZM103.059 23.0381V36.2656H100.68V20.9053H102.864L103.059 23.0381ZM109.026 26.0117V26.8936C109.026 27.7617 108.948 28.5273 108.791 29.1904C108.633 29.8535 108.401 30.4106 108.093 30.8618C107.792 31.3062 107.42 31.6411 106.976 31.8667C106.531 32.0923 106.012 32.2051 105.417 32.2051C104.856 32.2051 104.368 32.082 103.951 31.8359C103.541 31.5898 103.195 31.2446 102.915 30.8003C102.635 30.356 102.409 29.8296 102.238 29.2212C102.074 28.606 101.955 27.936 101.879 27.2114V25.8579C101.955 25.0923 102.071 24.395 102.228 23.7661C102.392 23.1304 102.614 22.5835 102.895 22.1255C103.182 21.6675 103.53 21.3154 103.94 21.0693C104.351 20.8232 104.839 20.7002 105.407 20.7002C106.001 20.7002 106.524 20.8062 106.976 21.0181C107.427 21.23 107.803 21.5547 108.104 21.9922C108.411 22.4297 108.64 22.9834 108.791 23.6533C108.948 24.3164 109.026 25.1025 109.026 26.0117ZM106.637 26.8936V26.0117C106.637 25.4443 106.6 24.9556 106.524 24.5454C106.456 24.1284 106.34 23.7866 106.176 23.52C106.019 23.2534 105.817 23.0552 105.571 22.9253C105.332 22.7954 105.034 22.7305 104.679 22.7305C104.364 22.7305 104.087 22.7954 103.848 22.9253C103.609 23.0552 103.407 23.2363 103.243 23.4688C103.079 23.6943 102.949 23.9644 102.854 24.2788C102.758 24.5864 102.696 24.9214 102.669 25.2837V27.7959C102.73 28.2334 102.833 28.6367 102.977 29.0059C103.12 29.3682 103.329 29.6587 103.602 29.8774C103.882 30.0962 104.248 30.2056 104.699 30.2056C105.048 30.2056 105.345 30.1372 105.591 30.0005C105.837 29.8638 106.036 29.6587 106.186 29.3853C106.343 29.1118 106.456 28.77 106.524 28.3599C106.6 27.9429 106.637 27.4541 106.637 26.8936ZM113.579 16.25V32H111.19V16.25H113.579ZM115.784 26.9038V26.0117C115.784 25.1504 115.89 24.3882 116.102 23.7251C116.313 23.062 116.614 22.5083 117.004 22.064C117.4 21.6128 117.865 21.2744 118.398 21.0488C118.932 20.8164 119.52 20.7002 120.162 20.7002C120.818 20.7002 121.413 20.8164 121.946 21.0488C122.486 21.2744 122.951 21.6128 123.341 22.064C123.737 22.5083 124.042 23.062 124.253 23.7251C124.465 24.3882 124.571 25.1504 124.571 26.0117V26.9038C124.571 27.7651 124.465 28.5273 124.253 29.1904C124.042 29.8535 123.737 30.4106 123.341 30.8618C122.951 31.3062 122.49 31.6411 121.957 31.8667C121.423 32.0923 120.832 32.2051 120.183 32.2051C119.54 32.2051 118.949 32.0923 118.409 31.8667C117.875 31.6411 117.411 31.3062 117.014 30.8618C116.618 30.4106 116.313 29.8535 116.102 29.1904C115.89 28.5273 115.784 27.7651 115.784 26.9038ZM118.173 26.0117V26.9038C118.173 27.4575 118.221 27.9429 118.316 28.3599C118.412 28.77 118.549 29.1118 118.727 29.3853C118.904 29.6587 119.116 29.8638 119.362 30.0005C119.608 30.1372 119.882 30.2056 120.183 30.2056C120.518 30.2056 120.808 30.1372 121.054 30.0005C121.307 29.8638 121.516 29.6587 121.68 29.3853C121.851 29.1118 121.977 28.77 122.059 28.3599C122.141 27.9429 122.182 27.4575 122.182 26.9038V26.0117C122.182 25.4648 122.134 24.9863 122.039 24.5762C121.943 24.1592 121.806 23.814 121.628 23.5405C121.451 23.2603 121.235 23.0518 120.982 22.915C120.736 22.7783 120.463 22.71 120.162 22.71C119.868 22.71 119.598 22.7783 119.352 22.915C119.113 23.0518 118.904 23.2603 118.727 23.5405C118.549 23.814 118.412 24.1592 118.316 24.5762C118.221 24.9863 118.173 25.4648 118.173 26.0117ZM131.78 29.7441V24.2173C131.78 23.8345 131.725 23.5269 131.616 23.2944C131.513 23.062 131.359 22.8945 131.154 22.792C130.956 22.6826 130.707 22.6279 130.406 22.6279C130.091 22.6279 129.825 22.6929 129.606 22.8228C129.394 22.9526 129.233 23.1304 129.124 23.356C129.015 23.5747 128.96 23.8276 128.96 24.1147H126.571C126.571 23.6704 126.66 23.2432 126.837 22.833C127.022 22.4229 127.285 22.0571 127.627 21.7358C127.969 21.4146 128.382 21.1616 128.868 20.9771C129.353 20.7925 129.893 20.7002 130.488 20.7002C131.199 20.7002 131.831 20.8198 132.385 21.0591C132.938 21.2915 133.373 21.6709 133.687 22.1973C134.008 22.7168 134.169 23.4004 134.169 24.248V29.4263C134.169 29.939 134.2 30.397 134.261 30.8003C134.33 31.1968 134.422 31.542 134.538 31.8359V32H132.108C131.999 31.7334 131.917 31.3916 131.862 30.9746C131.807 30.5576 131.78 30.1475 131.78 29.7441ZM132.098 25.2427L132.108 26.791H130.959C130.618 26.791 130.31 26.8389 130.037 26.9346C129.763 27.0234 129.531 27.1533 129.339 27.3242C129.155 27.4883 129.011 27.6899 128.909 27.9292C128.813 28.1685 128.765 28.4316 128.765 28.7188C128.765 29.0674 128.813 29.3511 128.909 29.5698C129.011 29.7886 129.158 29.9526 129.35 30.062C129.548 30.1646 129.787 30.2158 130.067 30.2158C130.45 30.2158 130.782 30.1338 131.062 29.9697C131.349 29.7988 131.568 29.5938 131.718 29.3545C131.875 29.1152 131.937 28.8965 131.903 28.6982L132.446 29.6929C132.392 29.9526 132.289 30.2261 132.139 30.5132C131.995 30.8003 131.807 31.0737 131.575 31.3335C131.342 31.5933 131.062 31.8052 130.734 31.9692C130.406 32.1265 130.026 32.2051 129.596 32.2051C128.974 32.2051 128.42 32.0752 127.935 31.8154C127.449 31.5557 127.066 31.1831 126.786 30.6978C126.513 30.2056 126.376 29.6177 126.376 28.9341C126.376 28.3804 126.468 27.8779 126.653 27.4268C126.837 26.9756 127.111 26.5894 127.473 26.2681C127.835 25.9399 128.29 25.687 128.837 25.5093C129.391 25.3315 130.037 25.2427 130.775 25.2427H132.098ZM142.198 29.6826V16.25H144.587V32L142.423 32.0103L142.198 29.6826ZM136.24 26.9038V26.0322C136.24 25.123 136.322 24.3369 136.486 23.6738C136.65 23.0039 136.89 22.4468 137.204 22.0024C137.525 21.5581 137.912 21.23 138.363 21.0181C138.814 20.8062 139.323 20.7002 139.891 20.7002C140.444 20.7002 140.923 20.8267 141.326 21.0796C141.729 21.3257 142.071 21.6777 142.352 22.1357C142.632 22.5938 142.854 23.1406 143.018 23.7764C143.189 24.4053 143.305 25.1094 143.367 25.8887V27.0986C143.292 27.8506 143.172 28.541 143.008 29.1699C142.844 29.792 142.622 30.3286 142.341 30.7798C142.061 31.231 141.716 31.583 141.306 31.8359C140.902 32.082 140.427 32.2051 139.88 32.2051C139.313 32.2051 138.804 32.0923 138.353 31.8667C137.908 31.6411 137.525 31.3062 137.204 30.8618C136.89 30.4175 136.65 29.8672 136.486 29.2109C136.322 28.5479 136.24 27.7788 136.24 26.9038ZM138.629 26.0322V26.9038C138.629 27.4712 138.664 27.96 138.732 28.3701C138.8 28.7803 138.91 29.1187 139.06 29.3853C139.21 29.645 139.409 29.8398 139.655 29.9697C139.901 30.0928 140.198 30.1543 140.547 30.1543C140.984 30.1543 141.34 30.0449 141.613 29.8262C141.894 29.6074 142.109 29.3135 142.259 28.9443C142.417 28.5684 142.526 28.1514 142.587 27.6934V25.3042C142.553 24.9419 142.485 24.6069 142.382 24.2993C142.28 23.9849 142.146 23.7114 141.982 23.479C141.818 23.2466 141.617 23.0654 141.377 22.9355C141.145 22.7988 140.872 22.7305 140.557 22.7305C140.208 22.7305 139.911 22.7988 139.665 22.9355C139.419 23.0654 139.221 23.2671 139.07 23.5405C138.92 23.8071 138.807 24.1489 138.732 24.5659C138.664 24.9761 138.629 25.4648 138.629 26.0322ZM154.574 30.7798L156.953 20.9053H159.465L155.805 33.6816C155.723 33.9619 155.606 34.2627 155.456 34.584C155.312 34.9053 155.125 35.2095 154.892 35.4966C154.667 35.7905 154.383 36.0264 154.041 36.2041C153.706 36.3887 153.306 36.481 152.841 36.481C152.65 36.481 152.465 36.4639 152.288 36.4297C152.11 36.3955 151.939 36.3545 151.775 36.3066V34.3789C151.83 34.3857 151.891 34.3926 151.959 34.3994C152.028 34.4062 152.089 34.4097 152.144 34.4097C152.479 34.4097 152.756 34.3584 152.975 34.2559C153.193 34.1602 153.375 34.0029 153.518 33.7842C153.662 33.5723 153.788 33.2886 153.897 32.9331L154.574 30.7798ZM153.518 20.9053L155.466 29.1597L155.887 31.8359L154.246 32.2563L150.944 20.9053H153.518ZM160.45 26.9038V26.0117C160.45 25.1504 160.556 24.3882 160.768 23.7251C160.979 23.062 161.28 22.5083 161.67 22.064C162.066 21.6128 162.531 21.2744 163.064 21.0488C163.598 20.8164 164.186 20.7002 164.828 20.7002C165.484 20.7002 166.079 20.8164 166.612 21.0488C167.152 21.2744 167.617 21.6128 168.007 22.064C168.403 22.5083 168.708 23.062 168.919 23.7251C169.131 24.3882 169.237 25.1504 169.237 26.0117V26.9038C169.237 27.7651 169.131 28.5273 168.919 29.1904C168.708 29.8535 168.403 30.4106 168.007 30.8618C167.617 31.3062 167.156 31.6411 166.623 31.8667C166.089 32.0923 165.498 32.2051 164.849 32.2051C164.206 32.2051 163.615 32.0923 163.075 31.8667C162.542 31.6411 162.077 31.3062 161.68 30.8618C161.284 30.4106 160.979 29.8535 160.768 29.1904C160.556 28.5273 160.45 27.7651 160.45 26.9038ZM162.839 26.0117V26.9038C162.839 27.4575 162.887 27.9429 162.982 28.3599C163.078 28.77 163.215 29.1118 163.393 29.3853C163.57 29.6587 163.782 29.8638 164.028 30.0005C164.274 30.1372 164.548 30.2056 164.849 30.2056C165.184 30.2056 165.474 30.1372 165.72 30.0005C165.973 29.8638 166.182 29.6587 166.346 29.3853C166.517 29.1118 166.643 28.77 166.725 28.3599C166.807 27.9429 166.848 27.4575 166.848 26.9038V26.0117C166.848 25.4648 166.8 24.9863 166.705 24.5762C166.609 24.1592 166.472 23.814 166.294 23.5405C166.117 23.2603 165.901 23.0518 165.648 22.915C165.402 22.7783 165.129 22.71 164.828 22.71C164.534 22.71 164.264 22.7783 164.018 22.915C163.779 23.0518 163.57 23.2603 163.393 23.5405C163.215 23.814 163.078 24.1592 162.982 24.5762C162.887 24.9863 162.839 25.4648 162.839 26.0117ZM176.774 29.3853V20.9053H179.163V32H176.917L176.774 29.3853ZM177.112 27.0679L177.871 27.0474C177.871 27.7925 177.803 28.4795 177.666 29.1084C177.529 29.7373 177.317 30.2842 177.03 30.749C176.75 31.207 176.384 31.5659 175.933 31.8257C175.489 32.0786 174.952 32.2051 174.323 32.2051C173.872 32.2051 173.458 32.1265 173.083 31.9692C172.707 31.812 172.382 31.5693 172.108 31.2412C171.835 30.9131 171.623 30.4858 171.473 29.9595C171.322 29.4331 171.247 28.8042 171.247 28.0728V20.9053H173.636V28.0933C173.636 28.4897 173.67 28.8213 173.739 29.0879C173.807 29.3477 173.903 29.5596 174.026 29.7236C174.149 29.8809 174.286 29.9937 174.436 30.062C174.593 30.1235 174.761 30.1543 174.938 30.1543C175.479 30.1543 175.906 30.021 176.22 29.7544C176.542 29.481 176.771 29.1118 176.907 28.647C177.044 28.1821 177.112 27.6558 177.112 27.0679ZM183.941 23.0483V32H181.552V20.9053H183.829L183.941 23.0483ZM186.618 20.8335L186.607 23.1919C186.471 23.1577 186.324 23.1372 186.167 23.1304C186.016 23.1167 185.866 23.1099 185.715 23.1099C185.387 23.1099 185.104 23.168 184.864 23.2842C184.625 23.4004 184.423 23.5679 184.259 23.7866C184.095 24.0054 183.965 24.2686 183.87 24.5762C183.781 24.8838 183.726 25.2324 183.706 25.6221L183.193 25.6426C183.193 24.9453 183.248 24.2993 183.357 23.7046C183.466 23.103 183.63 22.5801 183.849 22.1357C184.075 21.6846 184.355 21.3325 184.69 21.0796C185.025 20.8267 185.415 20.7002 185.859 20.7002C185.982 20.7002 186.122 20.7139 186.279 20.7412C186.437 20.7686 186.549 20.7993 186.618 20.8335ZM196.195 30.0107L198.246 20.9053H200.717L197.559 32H196.031L196.195 30.0107ZM194.739 20.9053L196.861 30.0415L196.964 32H195.446L192.268 20.9053H194.739ZM204.859 20.9053V32H202.47V20.9053H204.859ZM202.347 17.9932C202.347 17.6104 202.463 17.2925 202.696 17.0396C202.928 16.7866 203.253 16.6602 203.67 16.6602C204.087 16.6602 204.412 16.7866 204.644 17.0396C204.876 17.2925 204.993 17.6104 204.993 17.9932C204.993 18.3691 204.876 18.6836 204.644 18.9365C204.412 19.1895 204.087 19.3159 203.67 19.3159C203.253 19.3159 202.928 19.1895 202.696 18.9365C202.463 18.6836 202.347 18.3691 202.347 17.9932ZM212.991 29.6826V16.25H215.38V32L213.216 32.0103L212.991 29.6826ZM207.033 26.9038V26.0322C207.033 25.123 207.115 24.3369 207.279 23.6738C207.443 23.0039 207.683 22.4468 207.997 22.0024C208.318 21.5581 208.705 21.23 209.156 21.0181C209.607 20.8062 210.116 20.7002 210.684 20.7002C211.237 20.7002 211.716 20.8267 212.119 21.0796C212.522 21.3257 212.864 21.6777 213.145 22.1357C213.425 22.5938 213.647 23.1406 213.811 23.7764C213.982 24.4053 214.098 25.1094 214.16 25.8887V27.0986C214.084 27.8506 213.965 28.541 213.801 29.1699C213.637 29.792 213.415 30.3286 213.134 30.7798C212.854 31.231 212.509 31.583 212.099 31.8359C211.695 32.082 211.22 32.2051 210.673 32.2051C210.106 32.2051 209.597 32.0923 209.146 31.8667C208.701 31.6411 208.318 31.3062 207.997 30.8618C207.683 30.4175 207.443 29.8672 207.279 29.2109C207.115 28.5479 207.033 27.7788 207.033 26.9038ZM209.422 26.0322V26.9038C209.422 27.4712 209.457 27.96 209.525 28.3701C209.593 28.7803 209.703 29.1187 209.853 29.3853C210.003 29.645 210.202 29.8398 210.448 29.9697C210.694 30.0928 210.991 30.1543 211.34 30.1543C211.777 30.1543 212.133 30.0449 212.406 29.8262C212.687 29.6074 212.902 29.3135 213.052 28.9443C213.209 28.5684 213.319 28.1514 213.38 27.6934V25.3042C213.346 24.9419 213.278 24.6069 213.175 24.2993C213.073 23.9849 212.939 23.7114 212.775 23.479C212.611 23.2466 212.41 23.0654 212.17 22.9355C211.938 22.7988 211.665 22.7305 211.35 22.7305C211.001 22.7305 210.704 22.7988 210.458 22.9355C210.212 23.0654 210.014 23.2671 209.863 23.5405C209.713 23.8071 209.6 24.1489 209.525 24.5659C209.457 24.9761 209.422 25.4648 209.422 26.0322ZM222.076 32.2051C221.358 32.2051 220.719 32.0991 220.158 31.8872C219.598 31.6685 219.123 31.3472 218.733 30.9233C218.343 30.4927 218.046 29.9663 217.841 29.3442C217.636 28.7153 217.533 27.9873 217.533 27.1602V26.0938C217.533 25.1572 217.639 24.3506 217.851 23.6738C218.07 22.9902 218.371 22.4297 218.753 21.9922C219.136 21.5547 219.587 21.23 220.107 21.0181C220.633 20.8062 221.204 20.7002 221.819 20.7002C222.517 20.7002 223.122 20.813 223.634 21.0386C224.147 21.2642 224.567 21.6025 224.896 22.0537C225.23 22.5049 225.477 23.062 225.634 23.7251C225.798 24.3882 225.88 25.1504 225.88 26.0117V27.2114H218.682V25.4067H223.521V25.1504C223.508 24.6445 223.446 24.2104 223.337 23.8481C223.228 23.479 223.05 23.1987 222.804 23.0073C222.564 22.8091 222.233 22.71 221.809 22.71C221.501 22.71 221.228 22.7681 220.989 22.8843C220.75 23.0005 220.551 23.1885 220.394 23.4482C220.244 23.708 220.127 24.0566 220.045 24.4941C219.963 24.9248 219.922 25.458 219.922 26.0938V27.1602C219.922 27.7139 219.97 28.1821 220.066 28.5649C220.168 28.9478 220.319 29.2622 220.517 29.5083C220.715 29.7476 220.955 29.9253 221.235 30.0415C221.522 30.1509 221.854 30.2056 222.229 30.2056C222.783 30.2056 223.258 30.103 223.655 29.8979C224.058 29.686 224.407 29.4126 224.701 29.0776L225.757 30.5439C225.559 30.8105 225.292 31.0737 224.957 31.3335C224.622 31.5864 224.215 31.7949 223.737 31.959C223.265 32.123 222.711 32.2051 222.076 32.2051ZM227.449 26.9038V26.0117C227.449 25.1504 227.555 24.3882 227.767 23.7251C227.979 23.062 228.279 22.5083 228.669 22.064C229.065 21.6128 229.53 21.2744 230.063 21.0488C230.597 20.8164 231.185 20.7002 231.827 20.7002C232.483 20.7002 233.078 20.8164 233.611 21.0488C234.151 21.2744 234.616 21.6128 235.006 22.064C235.402 22.5083 235.707 23.062 235.918 23.7251C236.13 24.3882 236.236 25.1504 236.236 26.0117V26.9038C236.236 27.7651 236.13 28.5273 235.918 29.1904C235.707 29.8535 235.402 30.4106 235.006 30.8618C234.616 31.3062 234.155 31.6411 233.622 31.8667C233.088 32.0923 232.497 32.2051 231.848 32.2051C231.205 32.2051 230.614 32.0923 230.074 31.8667C229.541 31.6411 229.076 31.3062 228.679 30.8618C228.283 30.4106 227.979 29.8535 227.767 29.1904C227.555 28.5273 227.449 27.7651 227.449 26.9038ZM229.838 26.0117V26.9038C229.838 27.4575 229.886 27.9429 229.981 28.3599C230.077 28.77 230.214 29.1118 230.392 29.3853C230.569 29.6587 230.781 29.8638 231.027 30.0005C231.273 30.1372 231.547 30.2056 231.848 30.2056C232.183 30.2056 232.473 30.1372 232.719 30.0005C232.972 29.8638 233.181 29.6587 233.345 29.3853C233.516 29.1118 233.642 28.77 233.724 28.3599C233.806 27.9429 233.847 27.4575 233.847 26.9038V26.0117C233.847 25.4648 233.799 24.9863 233.704 24.5762C233.608 24.1592 233.471 23.814 233.293 23.5405C233.116 23.2603 232.9 23.0518 232.647 22.915C232.401 22.7783 232.128 22.71 231.827 22.71C231.533 22.71 231.263 22.7783 231.017 22.915C230.778 23.0518 230.569 23.2603 230.392 23.5405C230.214 23.814 230.077 24.1592 229.981 24.5762C229.886 24.9863 229.838 25.4648 229.838 26.0117ZM245.67 20.9053V32H243.281V20.9053H245.67ZM243.158 17.9932C243.158 17.6104 243.274 17.2925 243.506 17.0396C243.739 16.7866 244.063 16.6602 244.48 16.6602C244.897 16.6602 245.222 16.7866 245.455 17.0396C245.687 17.2925 245.803 17.6104 245.803 17.9932C245.803 18.3691 245.687 18.6836 245.455 18.9365C245.222 19.1895 244.897 19.3159 244.48 19.3159C244.063 19.3159 243.739 19.1895 243.506 18.9365C243.274 18.6836 243.158 18.3691 243.158 17.9932ZM250.582 23.2739V32H248.192V20.9053H250.438L250.582 23.2739ZM250.151 26.0527H249.392C249.385 25.2529 249.471 24.5249 249.648 23.8687C249.826 23.2124 250.079 22.6484 250.407 22.1768C250.735 21.7051 251.128 21.3428 251.586 21.0898C252.051 20.8301 252.567 20.7002 253.135 20.7002C253.579 20.7002 253.982 20.7754 254.345 20.9258C254.714 21.0693 255.028 21.3052 255.288 21.6333C255.548 21.9614 255.746 22.3887 255.883 22.915C256.026 23.4414 256.098 24.084 256.098 24.8428V32H253.709V24.8223C253.709 24.3027 253.651 23.8926 253.535 23.5918C253.425 23.2842 253.261 23.0654 253.042 22.9355C252.824 22.7988 252.547 22.7305 252.212 22.7305C251.904 22.7305 251.621 22.8193 251.361 22.9971C251.108 23.168 250.889 23.4072 250.705 23.7148C250.527 24.0156 250.39 24.3677 250.294 24.771C250.199 25.1675 250.151 25.5947 250.151 26.0527ZM262.979 20.9053V22.751H257.534V20.9053H262.979ZM259.021 18.188H261.399V28.9033C261.399 29.2451 261.437 29.5049 261.512 29.6826C261.587 29.8604 261.693 29.98 261.83 30.0415C261.967 30.103 262.127 30.1338 262.312 30.1338C262.449 30.1338 262.582 30.1235 262.712 30.103C262.849 30.0757 262.948 30.0518 263.009 30.0312V31.959C262.832 32.0273 262.626 32.0854 262.394 32.1333C262.162 32.1812 261.881 32.2051 261.553 32.2051C261.068 32.2051 260.634 32.106 260.251 31.9077C259.868 31.7026 259.567 31.3711 259.349 30.9131C259.13 30.4482 259.021 29.833 259.021 29.0674V18.188ZM267.224 23.0483V32H264.834V20.9053H267.111L267.224 23.0483ZM269.9 20.8335L269.89 23.1919C269.753 23.1577 269.606 23.1372 269.449 23.1304C269.298 23.1167 269.148 23.1099 268.998 23.1099C268.669 23.1099 268.386 23.168 268.146 23.2842C267.907 23.4004 267.706 23.5679 267.542 23.7866C267.377 24.0054 267.248 24.2686 267.152 24.5762C267.063 24.8838 267.008 25.2324 266.988 25.6221L266.475 25.6426C266.475 24.9453 266.53 24.2993 266.639 23.7046C266.749 23.103 266.913 22.5801 267.131 22.1357C267.357 21.6846 267.637 21.3325 267.972 21.0796C268.307 20.8267 268.697 20.7002 269.141 20.7002C269.264 20.7002 269.404 20.7139 269.562 20.7412C269.719 20.7686 269.832 20.7993 269.9 20.8335ZM270.905 26.9038V26.0117C270.905 25.1504 271.011 24.3882 271.223 23.7251C271.435 23.062 271.735 22.5083 272.125 22.064C272.521 21.6128 272.986 21.2744 273.52 21.0488C274.053 20.8164 274.641 20.7002 275.283 20.7002C275.939 20.7002 276.534 20.8164 277.067 21.0488C277.607 21.2744 278.072 21.6128 278.462 22.064C278.858 22.5083 279.163 23.062 279.375 23.7251C279.586 24.3882 279.692 25.1504 279.692 26.0117V26.9038C279.692 27.7651 279.586 28.5273 279.375 29.1904C279.163 29.8535 278.858 30.4106 278.462 30.8618C278.072 31.3062 277.611 31.6411 277.078 31.8667C276.544 32.0923 275.953 32.2051 275.304 32.2051C274.661 32.2051 274.07 32.0923 273.53 31.8667C272.997 31.6411 272.532 31.3062 272.135 30.8618C271.739 30.4106 271.435 29.8535 271.223 29.1904C271.011 28.5273 270.905 27.7651 270.905 26.9038ZM273.294 26.0117V26.9038C273.294 27.4575 273.342 27.9429 273.438 28.3599C273.533 28.77 273.67 29.1118 273.848 29.3853C274.025 29.6587 274.237 29.8638 274.483 30.0005C274.729 30.1372 275.003 30.2056 275.304 30.2056C275.639 30.2056 275.929 30.1372 276.175 30.0005C276.428 29.8638 276.637 29.6587 276.801 29.3853C276.972 29.1118 277.098 28.77 277.18 28.3599C277.262 27.9429 277.303 27.4575 277.303 26.9038V26.0117C277.303 25.4648 277.255 24.9863 277.16 24.5762C277.064 24.1592 276.927 23.814 276.75 23.5405C276.572 23.2603 276.356 23.0518 276.104 22.915C275.857 22.7783 275.584 22.71 275.283 22.71C274.989 22.71 274.719 22.7783 274.473 22.915C274.234 23.0518 274.025 23.2603 273.848 23.5405C273.67 23.814 273.533 24.1592 273.438 24.5762C273.342 24.9863 273.294 25.4648 273.294 26.0117ZM291.074 20.9053V22.751H285.629V20.9053H291.074ZM287.116 18.188H289.495V28.9033C289.495 29.2451 289.533 29.5049 289.608 29.6826C289.683 29.8604 289.789 29.98 289.926 30.0415C290.062 30.103 290.223 30.1338 290.408 30.1338C290.544 30.1338 290.678 30.1235 290.808 30.103C290.944 30.0757 291.043 30.0518 291.105 30.0312V31.959C290.927 32.0273 290.722 32.0854 290.49 32.1333C290.257 32.1812 289.977 32.2051 289.649 32.2051C289.164 32.2051 288.729 32.106 288.347 31.9077C287.964 31.7026 287.663 31.3711 287.444 30.9131C287.226 30.4482 287.116 29.833 287.116 29.0674V18.188ZM292.315 26.9038V26.0117C292.315 25.1504 292.421 24.3882 292.633 23.7251C292.845 23.062 293.146 22.5083 293.535 22.064C293.932 21.6128 294.396 21.2744 294.93 21.0488C295.463 20.8164 296.051 20.7002 296.693 20.7002C297.35 20.7002 297.944 20.8164 298.478 21.0488C299.018 21.2744 299.482 21.6128 299.872 22.064C300.269 22.5083 300.573 23.062 300.785 23.7251C300.997 24.3882 301.103 25.1504 301.103 26.0117V26.9038C301.103 27.7651 300.997 28.5273 300.785 29.1904C300.573 29.8535 300.269 30.4106 299.872 30.8618C299.482 31.3062 299.021 31.6411 298.488 31.8667C297.955 32.0923 297.363 32.2051 296.714 32.2051C296.071 32.2051 295.48 32.0923 294.94 31.8667C294.407 31.6411 293.942 31.3062 293.545 30.8618C293.149 30.4106 292.845 29.8535 292.633 29.1904C292.421 28.5273 292.315 27.7651 292.315 26.9038ZM294.704 26.0117V26.9038C294.704 27.4575 294.752 27.9429 294.848 28.3599C294.943 28.77 295.08 29.1118 295.258 29.3853C295.436 29.6587 295.647 29.8638 295.894 30.0005C296.14 30.1372 296.413 30.2056 296.714 30.2056C297.049 30.2056 297.339 30.1372 297.585 30.0005C297.838 29.8638 298.047 29.6587 298.211 29.3853C298.382 29.1118 298.508 28.77 298.59 28.3599C298.672 27.9429 298.713 27.4575 298.713 26.9038V26.0117C298.713 25.4648 298.666 24.9863 298.57 24.5762C298.474 24.1592 298.337 23.814 298.16 23.5405C297.982 23.2603 297.767 23.0518 297.514 22.915C297.268 22.7783 296.994 22.71 296.693 22.71C296.399 22.71 296.129 22.7783 295.883 22.915C295.644 23.0518 295.436 23.2603 295.258 23.5405C295.08 23.814 294.943 24.1592 294.848 24.5762C294.752 24.9863 294.704 25.4648 294.704 26.0117ZM313.151 29.7441V24.2173C313.151 23.8345 313.096 23.5269 312.987 23.2944C312.884 23.062 312.73 22.8945 312.525 22.792C312.327 22.6826 312.078 22.6279 311.777 22.6279C311.462 22.6279 311.196 22.6929 310.977 22.8228C310.765 22.9526 310.604 23.1304 310.495 23.356C310.386 23.5747 310.331 23.8276 310.331 24.1147H307.942C307.942 23.6704 308.031 23.2432 308.208 22.833C308.393 22.4229 308.656 22.0571 308.998 21.7358C309.34 21.4146 309.753 21.1616 310.239 20.9771C310.724 20.7925 311.264 20.7002 311.859 20.7002C312.57 20.7002 313.202 20.8198 313.756 21.0591C314.31 21.2915 314.744 21.6709 315.058 22.1973C315.379 22.7168 315.54 23.4004 315.54 24.248V29.4263C315.54 29.939 315.571 30.397 315.632 30.8003C315.701 31.1968 315.793 31.542 315.909 31.8359V32H313.479C313.37 31.7334 313.288 31.3916 313.233 30.9746C313.178 30.5576 313.151 30.1475 313.151 29.7441ZM313.469 25.2427L313.479 26.791H312.331C311.989 26.791 311.681 26.8389 311.408 26.9346C311.134 27.0234 310.902 27.1533 310.71 27.3242C310.526 27.4883 310.382 27.6899 310.28 27.9292C310.184 28.1685 310.136 28.4316 310.136 28.7188C310.136 29.0674 310.184 29.3511 310.28 29.5698C310.382 29.7886 310.529 29.9526 310.721 30.062C310.919 30.1646 311.158 30.2158 311.438 30.2158C311.821 30.2158 312.153 30.1338 312.433 29.9697C312.72 29.7988 312.939 29.5938 313.089 29.3545C313.247 29.1152 313.308 28.8965 313.274 28.6982L313.817 29.6929C313.763 29.9526 313.66 30.2261 313.51 30.5132C313.366 30.8003 313.178 31.0737 312.946 31.3335C312.713 31.5933 312.433 31.8052 312.105 31.9692C311.777 32.1265 311.397 32.2051 310.967 32.2051C310.345 32.2051 309.791 32.0752 309.306 31.8154C308.82 31.5557 308.438 31.1831 308.157 30.6978C307.884 30.2056 307.747 29.6177 307.747 28.9341C307.747 28.3804 307.839 27.8779 308.024 27.4268C308.208 26.9756 308.482 26.5894 308.844 26.2681C309.207 25.9399 309.661 25.687 310.208 25.5093C310.762 25.3315 311.408 25.2427 312.146 25.2427H313.469ZM326.686 32H324.092L324.112 29.9185H326.686C327.486 29.9185 328.125 29.7715 328.604 29.4775C329.082 29.1768 329.427 28.7188 329.639 28.1035C329.851 27.4883 329.957 26.7021 329.957 25.7451V23.3149C329.957 22.5767 329.896 21.9478 329.772 21.4282C329.656 20.9019 329.472 20.4746 329.219 20.1465C328.973 19.8115 328.648 19.5654 328.245 19.4082C327.841 19.2441 327.356 19.1621 326.789 19.1621H324.041V17.0703H326.789C327.643 17.0703 328.416 17.207 329.106 17.4805C329.796 17.7539 330.388 18.1572 330.88 18.6904C331.379 19.2168 331.762 19.8696 332.028 20.6489C332.295 21.4282 332.428 22.3237 332.428 23.3354V25.7451C332.428 26.7568 332.295 27.6523 332.028 28.4316C331.762 29.2041 331.379 29.8569 330.88 30.3901C330.381 30.9165 329.779 31.3164 329.075 31.5898C328.371 31.8633 327.575 32 326.686 32ZM325.517 17.0703V32H323.025V17.0703H325.517ZM337.155 23.0483V32H334.766V20.9053H337.042L337.155 23.0483ZM339.832 20.8335L339.821 23.1919C339.685 23.1577 339.538 23.1372 339.38 23.1304C339.23 23.1167 339.08 23.1099 338.929 23.1099C338.601 23.1099 338.317 23.168 338.078 23.2842C337.839 23.4004 337.637 23.5679 337.473 23.7866C337.309 24.0054 337.179 24.2686 337.083 24.5762C336.995 24.8838 336.94 25.2324 336.919 25.6221L336.407 25.6426C336.407 24.9453 336.461 24.2993 336.571 23.7046C336.68 23.103 336.844 22.5801 337.063 22.1357C337.289 21.6846 337.569 21.3325 337.904 21.0796C338.239 20.8267 338.628 20.7002 339.073 20.7002C339.196 20.7002 339.336 20.7139 339.493 20.7412C339.65 20.7686 339.763 20.7993 339.832 20.8335ZM344.005 20.9053V32H341.616V20.9053H344.005ZM341.493 17.9932C341.493 17.6104 341.609 17.2925 341.841 17.0396C342.074 16.7866 342.398 16.6602 342.815 16.6602C343.232 16.6602 343.557 16.7866 343.79 17.0396C344.022 17.2925 344.138 17.6104 344.138 17.9932C344.138 18.3691 344.022 18.6836 343.79 18.9365C343.557 19.1895 343.232 19.3159 342.815 19.3159C342.398 19.3159 342.074 19.1895 341.841 18.9365C341.609 18.6836 341.493 18.3691 341.493 17.9932ZM349.655 30.0107L351.706 20.9053H354.177L351.019 32H349.491L349.655 30.0107ZM348.199 20.9053L350.321 30.0415L350.424 32H348.906L345.728 20.9053H348.199ZM359.888 32.2051C359.17 32.2051 358.531 32.0991 357.971 31.8872C357.41 31.6685 356.935 31.3472 356.545 30.9233C356.156 30.4927 355.858 29.9663 355.653 29.3442C355.448 28.7153 355.346 27.9873 355.346 27.1602V26.0938C355.346 25.1572 355.452 24.3506 355.664 23.6738C355.882 22.9902 356.183 22.4297 356.566 21.9922C356.949 21.5547 357.4 21.23 357.919 21.0181C358.446 20.8062 359.017 20.7002 359.632 20.7002C360.329 20.7002 360.934 20.813 361.447 21.0386C361.959 21.2642 362.38 21.6025 362.708 22.0537C363.043 22.5049 363.289 23.062 363.446 23.7251C363.61 24.3882 363.692 25.1504 363.692 26.0117V27.2114H356.494V25.4067H361.334V25.1504C361.32 24.6445 361.259 24.2104 361.149 23.8481C361.04 23.479 360.862 23.1987 360.616 23.0073C360.377 22.8091 360.045 22.71 359.622 22.71C359.314 22.71 359.041 22.7681 358.801 22.8843C358.562 23.0005 358.364 23.1885 358.207 23.4482C358.056 23.708 357.94 24.0566 357.858 24.4941C357.776 24.9248 357.735 25.458 357.735 26.0938V27.1602C357.735 27.7139 357.783 28.1821 357.878 28.5649C357.981 28.9478 358.131 29.2622 358.33 29.5083C358.528 29.7476 358.767 29.9253 359.047 30.0415C359.334 30.1509 359.666 30.2056 360.042 30.2056C360.596 30.2056 361.071 30.103 361.467 29.8979C361.871 29.686 362.219 29.4126 362.513 29.0776L363.569 30.5439C363.371 30.8105 363.104 31.0737 362.77 31.3335C362.435 31.5864 362.028 31.7949 361.549 31.959C361.078 32.123 360.524 32.2051 359.888 32.2051ZM375.597 29.7441V24.2173C375.597 23.8345 375.542 23.5269 375.433 23.2944C375.331 23.062 375.177 22.8945 374.972 22.792C374.773 22.6826 374.524 22.6279 374.223 22.6279C373.909 22.6279 373.642 22.6929 373.423 22.8228C373.211 22.9526 373.051 23.1304 372.941 23.356C372.832 23.5747 372.777 23.8276 372.777 24.1147H370.388C370.388 23.6704 370.477 23.2432 370.655 22.833C370.839 22.4229 371.103 22.0571 371.444 21.7358C371.786 21.4146 372.2 21.1616 372.685 20.9771C373.17 20.7925 373.71 20.7002 374.305 20.7002C375.016 20.7002 375.648 20.8198 376.202 21.0591C376.756 21.2915 377.19 21.6709 377.504 22.1973C377.826 22.7168 377.986 23.4004 377.986 24.248V29.4263C377.986 29.939 378.017 30.397 378.079 30.8003C378.147 31.1968 378.239 31.542 378.355 31.8359V32H375.925C375.816 31.7334 375.734 31.3916 375.679 30.9746C375.625 30.5576 375.597 30.1475 375.597 29.7441ZM375.915 25.2427L375.925 26.791H374.777C374.435 26.791 374.127 26.8389 373.854 26.9346C373.581 27.0234 373.348 27.1533 373.157 27.3242C372.972 27.4883 372.829 27.6899 372.726 27.9292C372.63 28.1685 372.583 28.4316 372.583 28.7188C372.583 29.0674 372.63 29.3511 372.726 29.5698C372.829 29.7886 372.976 29.9526 373.167 30.062C373.365 30.1646 373.604 30.2158 373.885 30.2158C374.268 30.2158 374.599 30.1338 374.879 29.9697C375.167 29.7988 375.385 29.5938 375.536 29.3545C375.693 29.1152 375.754 28.8965 375.72 28.6982L376.264 29.6929C376.209 29.9526 376.106 30.2261 375.956 30.5132C375.812 30.8003 375.625 31.0737 375.392 31.3335C375.16 31.5933 374.879 31.8052 374.551 31.9692C374.223 32.1265 373.844 32.2051 373.413 32.2051C372.791 32.2051 372.237 32.0752 371.752 31.8154C371.267 31.5557 370.884 31.1831 370.604 30.6978C370.33 30.2056 370.193 29.6177 370.193 28.9341C370.193 28.3804 370.286 27.8779 370.47 27.4268C370.655 26.9756 370.928 26.5894 371.291 26.2681C371.653 25.9399 372.107 25.687 372.654 25.5093C373.208 25.3315 373.854 25.2427 374.592 25.2427H375.915ZM382.795 23.2739V32H380.406V20.9053H382.652L382.795 23.2739ZM382.365 26.0527H381.606C381.599 25.2529 381.685 24.5249 381.862 23.8687C382.04 23.2124 382.293 22.6484 382.621 22.1768C382.949 21.7051 383.342 21.3428 383.8 21.0898C384.265 20.8301 384.781 20.7002 385.349 20.7002C385.793 20.7002 386.196 20.7754 386.559 20.9258C386.928 21.0693 387.242 21.3052 387.502 21.6333C387.762 21.9614 387.96 22.3887 388.097 22.915C388.24 23.4414 388.312 24.084 388.312 24.8428V32H385.923V24.8223C385.923 24.3027 385.865 23.8926 385.749 23.5918C385.639 23.2842 385.475 23.0654 385.256 22.9355C385.038 22.7988 384.761 22.7305 384.426 22.7305C384.118 22.7305 383.834 22.8193 383.575 22.9971C383.322 23.168 383.103 23.4072 382.918 23.7148C382.741 24.0156 382.604 24.3677 382.508 24.771C382.413 25.1675 382.365 25.5947 382.365 26.0527ZM396.29 29.6826V16.25H398.679V32L396.515 32.0103L396.29 29.6826ZM390.332 26.9038V26.0322C390.332 25.123 390.414 24.3369 390.578 23.6738C390.742 23.0039 390.981 22.4468 391.296 22.0024C391.617 21.5581 392.003 21.23 392.455 21.0181C392.906 20.8062 393.415 20.7002 393.982 20.7002C394.536 20.7002 395.015 20.8267 395.418 21.0796C395.821 21.3257 396.163 21.6777 396.443 22.1357C396.724 22.5938 396.946 23.1406 397.11 23.7764C397.281 24.4053 397.397 25.1094 397.458 25.8887V27.0986C397.383 27.8506 397.264 28.541 397.1 29.1699C396.936 29.792 396.713 30.3286 396.433 30.7798C396.153 31.231 395.808 31.583 395.397 31.8359C394.994 32.082 394.519 32.2051 393.972 32.2051C393.405 32.2051 392.896 32.0923 392.444 31.8667C392 31.6411 391.617 31.3062 391.296 30.8618C390.981 30.4175 390.742 29.8672 390.578 29.2109C390.414 28.5479 390.332 27.7788 390.332 26.9038ZM392.721 26.0322V26.9038C392.721 27.4712 392.755 27.96 392.824 28.3701C392.892 28.7803 393.001 29.1187 393.152 29.3853C393.302 29.645 393.5 29.8398 393.747 29.9697C393.993 30.0928 394.29 30.1543 394.639 30.1543C395.076 30.1543 395.432 30.0449 395.705 29.8262C395.985 29.6074 396.201 29.3135 396.351 28.9443C396.508 28.5684 396.618 28.1514 396.679 27.6934V25.3042C396.645 24.9419 396.577 24.6069 396.474 24.2993C396.372 23.9849 396.238 23.7114 396.074 23.479C395.91 23.2466 395.708 23.0654 395.469 22.9355C395.237 22.7988 394.963 22.7305 394.649 22.7305C394.3 22.7305 394.003 22.7988 393.757 22.9355C393.511 23.0654 393.312 23.2671 393.162 23.5405C393.012 23.8071 392.899 24.1489 392.824 24.5659C392.755 24.9761 392.721 25.4648 392.721 26.0322ZM411.106 29.0776C411.106 28.8452 411.038 28.6401 410.901 28.4624C410.771 28.2778 410.56 28.0967 410.266 27.9189C409.972 27.7412 409.579 27.5498 409.086 27.3447C408.574 27.1328 408.119 26.9209 407.723 26.709C407.326 26.4971 406.991 26.2646 406.718 26.0117C406.444 25.752 406.236 25.4546 406.092 25.1196C405.949 24.7847 405.877 24.395 405.877 23.9507C405.877 23.4927 405.962 23.0688 406.133 22.6792C406.304 22.2896 406.55 21.9478 406.872 21.6538C407.193 21.353 407.579 21.1206 408.03 20.9565C408.481 20.7856 408.991 20.7002 409.558 20.7002C410.358 20.7002 411.042 20.8472 411.609 21.1411C412.183 21.4282 412.621 21.8315 412.921 22.3511C413.229 22.8638 413.383 23.4551 413.383 24.125H410.994C410.994 23.8447 410.942 23.5918 410.84 23.3662C410.737 23.1338 410.58 22.9492 410.368 22.8125C410.156 22.6689 409.886 22.5972 409.558 22.5972C409.257 22.5972 409.004 22.6553 408.799 22.7715C408.601 22.8809 408.451 23.0312 408.348 23.2227C408.252 23.4072 408.205 23.6157 408.205 23.8481C408.205 24.019 408.235 24.1694 408.297 24.2993C408.358 24.4292 408.461 24.5557 408.604 24.6787C408.748 24.7949 408.939 24.9146 409.179 25.0376C409.425 25.1606 409.736 25.3008 410.112 25.458C410.857 25.7451 411.476 26.0425 411.968 26.3501C412.46 26.6577 412.829 27.0166 413.075 27.4268C413.321 27.8369 413.444 28.3462 413.444 28.9546C413.444 29.4468 413.352 29.8911 413.167 30.2876C412.99 30.6841 412.73 31.0259 412.388 31.313C412.053 31.6001 411.646 31.8223 411.168 31.9795C410.696 32.1299 410.17 32.2051 409.589 32.2051C408.721 32.2051 407.986 32.0342 407.384 31.6924C406.79 31.3438 406.338 30.896 406.031 30.3491C405.723 29.8022 405.569 29.2246 405.569 28.6162H407.876C407.897 29.0537 407.989 29.3955 408.153 29.6416C408.324 29.8877 408.54 30.0586 408.799 30.1543C409.059 30.2432 409.329 30.2876 409.609 30.2876C409.944 30.2876 410.221 30.2432 410.44 30.1543C410.659 30.0586 410.823 29.9185 410.932 29.7339C411.048 29.5493 411.106 29.3306 411.106 29.0776ZM417.874 16.25V32H415.495V16.25H417.874ZM417.454 26.0527H416.695C416.688 25.2803 416.77 24.5693 416.941 23.9199C417.112 23.2705 417.358 22.7031 417.679 22.2178C418 21.7324 418.387 21.3599 418.838 21.1001C419.296 20.8335 419.802 20.7002 420.355 20.7002C420.813 20.7002 421.227 20.7788 421.596 20.936C421.972 21.0864 422.293 21.3257 422.56 21.6538C422.833 21.9819 423.042 22.4126 423.186 22.9458C423.329 23.4722 423.401 24.1147 423.401 24.8735V32H421.012V24.853C421.012 24.3267 420.954 23.9097 420.837 23.6021C420.728 23.2944 420.564 23.0723 420.345 22.9355C420.126 22.7988 419.85 22.7305 419.515 22.7305C419.187 22.7305 418.893 22.8193 418.633 22.9971C418.38 23.168 418.165 23.4072 417.987 23.7148C417.809 24.0156 417.676 24.3677 417.587 24.771C417.498 25.1675 417.454 25.5947 417.454 26.0527ZM430.927 29.7441V24.2173C430.927 23.8345 430.873 23.5269 430.763 23.2944C430.661 23.062 430.507 22.8945 430.302 22.792C430.104 22.6826 429.854 22.6279 429.553 22.6279C429.239 22.6279 428.972 22.6929 428.753 22.8228C428.542 22.9526 428.381 23.1304 428.271 23.356C428.162 23.5747 428.107 23.8276 428.107 24.1147H425.718C425.718 23.6704 425.807 23.2432 425.985 22.833C426.169 22.4229 426.433 22.0571 426.774 21.7358C427.116 21.4146 427.53 21.1616 428.015 20.9771C428.5 20.7925 429.041 20.7002 429.635 20.7002C430.346 20.7002 430.979 20.8198 431.532 21.0591C432.086 21.2915 432.52 21.6709 432.834 22.1973C433.156 22.7168 433.316 23.4004 433.316 24.248V29.4263C433.316 29.939 433.347 30.397 433.409 30.8003C433.477 31.1968 433.569 31.542 433.686 31.8359V32H431.255C431.146 31.7334 431.064 31.3916 431.009 30.9746C430.955 30.5576 430.927 30.1475 430.927 29.7441ZM431.245 25.2427L431.255 26.791H430.107C429.765 26.791 429.458 26.8389 429.184 26.9346C428.911 27.0234 428.678 27.1533 428.487 27.3242C428.302 27.4883 428.159 27.6899 428.056 27.9292C427.96 28.1685 427.913 28.4316 427.913 28.7188C427.913 29.0674 427.96 29.3511 428.056 29.5698C428.159 29.7886 428.306 29.9526 428.497 30.062C428.695 30.1646 428.935 30.2158 429.215 30.2158C429.598 30.2158 429.929 30.1338 430.209 29.9697C430.497 29.7988 430.715 29.5938 430.866 29.3545C431.023 29.1152 431.084 28.8965 431.05 28.6982L431.594 29.6929C431.539 29.9526 431.437 30.2261 431.286 30.5132C431.143 30.8003 430.955 31.0737 430.722 31.3335C430.49 31.5933 430.209 31.8052 429.881 31.9692C429.553 32.1265 429.174 32.2051 428.743 32.2051C428.121 32.2051 427.567 32.0752 427.082 31.8154C426.597 31.5557 426.214 31.1831 425.934 30.6978C425.66 30.2056 425.523 29.6177 425.523 28.9341C425.523 28.3804 425.616 27.8779 425.8 27.4268C425.985 26.9756 426.258 26.5894 426.621 26.2681C426.983 25.9399 427.438 25.687 427.984 25.5093C428.538 25.3315 429.184 25.2427 429.922 25.2427H431.245ZM438.156 23.0483V32H435.767V20.9053H438.043L438.156 23.0483ZM440.833 20.8335L440.822 23.1919C440.686 23.1577 440.539 23.1372 440.381 23.1304C440.231 23.1167 440.081 23.1099 439.93 23.1099C439.602 23.1099 439.318 23.168 439.079 23.2842C438.84 23.4004 438.638 23.5679 438.474 23.7866C438.31 24.0054 438.18 24.2686 438.084 24.5762C437.996 24.8838 437.941 25.2324 437.92 25.6221L437.408 25.6426C437.408 24.9453 437.462 24.2993 437.572 23.7046C437.681 23.103 437.845 22.5801 438.064 22.1357C438.29 21.6846 438.57 21.3325 438.905 21.0796C439.24 20.8267 439.629 20.7002 440.074 20.7002C440.197 20.7002 440.337 20.7139 440.494 20.7412C440.651 20.7686 440.764 20.7993 440.833 20.8335ZM446.513 32.2051C445.795 32.2051 445.156 32.0991 444.596 31.8872C444.035 31.6685 443.56 31.3472 443.17 30.9233C442.781 30.4927 442.483 29.9663 442.278 29.3442C442.073 28.7153 441.971 27.9873 441.971 27.1602V26.0938C441.971 25.1572 442.077 24.3506 442.289 23.6738C442.507 22.9902 442.808 22.4297 443.191 21.9922C443.574 21.5547 444.025 21.23 444.544 21.0181C445.071 20.8062 445.642 20.7002 446.257 20.7002C446.954 20.7002 447.559 20.813 448.072 21.0386C448.584 21.2642 449.005 21.6025 449.333 22.0537C449.668 22.5049 449.914 23.062 450.071 23.7251C450.235 24.3882 450.317 25.1504 450.317 26.0117V27.2114H443.119V25.4067H447.959V25.1504C447.945 24.6445 447.884 24.2104 447.774 23.8481C447.665 23.479 447.487 23.1987 447.241 23.0073C447.002 22.8091 446.67 22.71 446.247 22.71C445.939 22.71 445.666 22.7681 445.426 22.8843C445.187 23.0005 444.989 23.1885 444.832 23.4482C444.681 23.708 444.565 24.0566 444.483 24.4941C444.401 24.9248 444.36 25.458 444.36 26.0938V27.1602C444.36 27.7139 444.408 28.1821 444.503 28.5649C444.606 28.9478 444.756 29.2622 444.955 29.5083C445.153 29.7476 445.392 29.9253 445.672 30.0415C445.959 30.1509 446.291 30.2056 446.667 30.2056C447.221 30.2056 447.696 30.103 448.092 29.8979C448.496 29.686 448.844 29.4126 449.138 29.0776L450.194 30.5439C449.996 30.8105 449.729 31.0737 449.395 31.3335C449.06 31.5864 448.653 31.7949 448.174 31.959C447.703 32.123 447.149 32.2051 446.513 32.2051ZM33.6807 45.9053V47.751H28.2358V45.9053H33.6807ZM29.7227 43.188H32.1016V53.9033C32.1016 54.2451 32.1392 54.5049 32.2144 54.6826C32.2896 54.8604 32.3955 54.98 32.5322 55.0415C32.6689 55.103 32.8296 55.1338 33.0142 55.1338C33.1509 55.1338 33.2842 55.1235 33.4141 55.103C33.5508 55.0757 33.6499 55.0518 33.7114 55.0312V56.959C33.5337 57.0273 33.3286 57.0854 33.0962 57.1333C32.8638 57.1812 32.5835 57.2051 32.2554 57.2051C31.77 57.2051 31.3359 57.106 30.9531 56.9077C30.5703 56.7026 30.2695 56.3711 30.0508 55.9131C29.832 55.4482 29.7227 54.833 29.7227 54.0674V43.188ZM37.8848 41.25V57H35.5059V41.25H37.8848ZM37.4644 51.0527H36.7056C36.6987 50.2803 36.7808 49.5693 36.9517 48.9199C37.1226 48.2705 37.3687 47.7031 37.6899 47.2178C38.0112 46.7324 38.3975 46.3599 38.8486 46.1001C39.3066 45.8335 39.8125 45.7002 40.3662 45.7002C40.8242 45.7002 41.2378 45.7788 41.6069 45.936C41.9829 46.0864 42.3042 46.3257 42.5708 46.6538C42.8442 46.9819 43.0527 47.4126 43.1963 47.9458C43.3398 48.4722 43.4116 49.1147 43.4116 49.8735V57H41.0225V49.853C41.0225 49.3267 40.9644 48.9097 40.8481 48.6021C40.7388 48.2944 40.5747 48.0723 40.356 47.9355C40.1372 47.7988 39.8604 47.7305 39.5254 47.7305C39.1973 47.7305 38.9033 47.8193 38.6436 47.9971C38.3906 48.168 38.1753 48.4072 37.9976 48.7148C37.8198 49.0156 37.6865 49.3677 37.5977 49.771C37.5088 50.1675 37.4644 50.5947 37.4644 51.0527ZM50.0356 57.2051C49.3179 57.2051 48.6787 57.0991 48.1182 56.8872C47.5576 56.6685 47.0825 56.3472 46.6929 55.9233C46.3032 55.4927 46.0059 54.9663 45.8008 54.3442C45.5957 53.7153 45.4932 52.9873 45.4932 52.1602V51.0938C45.4932 50.1572 45.5991 49.3506 45.811 48.6738C46.0298 47.9902 46.3306 47.4297 46.7134 46.9922C47.0962 46.5547 47.5474 46.23 48.0669 46.0181C48.5933 45.8062 49.1641 45.7002 49.7793 45.7002C50.4766 45.7002 51.0815 45.813 51.5942 46.0386C52.1069 46.2642 52.5273 46.6025 52.8555 47.0537C53.1904 47.5049 53.4365 48.062 53.5938 48.7251C53.7578 49.3882 53.8398 50.1504 53.8398 51.0117V52.2114H46.6416V50.4067H51.4814V50.1504C51.4678 49.6445 51.4062 49.2104 51.2969 48.8481C51.1875 48.479 51.0098 48.1987 50.7637 48.0073C50.5244 47.8091 50.1929 47.71 49.769 47.71C49.4614 47.71 49.188 47.7681 48.9487 47.8843C48.7095 48.0005 48.5112 48.1885 48.354 48.4482C48.2036 48.708 48.0874 49.0566 48.0054 49.4941C47.9233 49.9248 47.8823 50.458 47.8823 51.0938V52.1602C47.8823 52.7139 47.9302 53.1821 48.0259 53.5649C48.1284 53.9478 48.2788 54.2622 48.4771 54.5083C48.6753 54.7476 48.9146 54.9253 49.1948 55.0415C49.4819 55.1509 49.8135 55.2056 50.1895 55.2056C50.7432 55.2056 51.2183 55.103 51.6147 54.8979C52.0181 54.686 52.3667 54.4126 52.6606 54.0776L53.7168 55.5439C53.5186 55.8105 53.252 56.0737 52.917 56.3335C52.582 56.5864 52.1753 56.7949 51.6968 56.959C51.2251 57.123 50.6714 57.2051 50.0356 57.2051ZM63.1299 41.25V57H60.7407V41.25H63.1299ZM68.2158 45.9053V57H65.8267V45.9053H68.2158ZM65.7036 42.9932C65.7036 42.6104 65.8198 42.2925 66.0522 42.0396C66.2847 41.7866 66.6094 41.6602 67.0264 41.6602C67.4434 41.6602 67.7681 41.7866 68.0005 42.0396C68.2329 42.2925 68.3491 42.6104 68.3491 42.9932C68.3491 43.3691 68.2329 43.6836 68.0005 43.9365C67.7681 44.1895 67.4434 44.3159 67.0264 44.3159C66.6094 44.3159 66.2847 44.1895 66.0522 43.9365C65.8198 43.6836 65.7036 43.3691 65.7036 42.9932ZM73.1274 48.2739V57H70.7383V45.9053H72.9839L73.1274 48.2739ZM72.6968 51.0527H71.938C71.9312 50.2529 72.0166 49.5249 72.1943 48.8687C72.3721 48.2124 72.625 47.6484 72.9531 47.1768C73.2812 46.7051 73.6743 46.3428 74.1323 46.0898C74.5972 45.8301 75.1133 45.7002 75.6807 45.7002C76.125 45.7002 76.5283 45.7754 76.8906 45.9258C77.2598 46.0693 77.5742 46.3052 77.834 46.6333C78.0938 46.9614 78.292 47.3887 78.4287 47.915C78.5723 48.4414 78.644 49.084 78.644 49.8428V57H76.2549V49.8223C76.2549 49.3027 76.1968 48.8926 76.0806 48.5918C75.9712 48.2842 75.8071 48.0654 75.5884 47.9355C75.3696 47.7988 75.0928 47.7305 74.7578 47.7305C74.4502 47.7305 74.1665 47.8193 73.9067 47.9971C73.6538 48.168 73.4351 48.4072 73.2505 48.7148C73.0728 49.0156 72.936 49.3677 72.8403 49.771C72.7446 50.1675 72.6968 50.5947 72.6968 51.0527ZM83.4429 41.25V57H81.0537V41.25H83.4429ZM89.1851 45.9053L85.2476 51.2681L82.8584 53.9854L82.2534 51.873L84.0068 49.3813L86.3242 45.9053H89.1851ZM86.7959 57L84.0581 51.8115L85.5552 50.0581L89.5439 57H86.7959ZM98.0137 41.25V57H95.6348V41.25H98.0137ZM97.5933 51.0527H96.8345C96.8276 50.2803 96.9097 49.5693 97.0806 48.9199C97.2515 48.2705 97.4976 47.7031 97.8188 47.2178C98.1401 46.7324 98.5264 46.3599 98.9775 46.1001C99.4355 45.8335 99.9414 45.7002 100.495 45.7002C100.953 45.7002 101.367 45.7788 101.736 45.936C102.112 46.0864 102.433 46.3257 102.7 46.6538C102.973 46.9819 103.182 47.4126 103.325 47.9458C103.469 48.4722 103.541 49.1147 103.541 49.8735V57H101.151V49.853C101.151 49.3267 101.093 48.9097 100.977 48.6021C100.868 48.2944 100.704 48.0723 100.485 47.9355C100.266 47.7988 99.9893 47.7305 99.6543 47.7305C99.3262 47.7305 99.0322 47.8193 98.7725 47.9971C98.5195 48.168 98.3042 48.4072 98.1265 48.7148C97.9487 49.0156 97.8154 49.3677 97.7266 49.771C97.6377 50.1675 97.5933 50.5947 97.5933 51.0527ZM110.165 57.2051C109.447 57.2051 108.808 57.0991 108.247 56.8872C107.687 56.6685 107.211 56.3472 106.822 55.9233C106.432 55.4927 106.135 54.9663 105.93 54.3442C105.725 53.7153 105.622 52.9873 105.622 52.1602V51.0938C105.622 50.1572 105.728 49.3506 105.94 48.6738C106.159 47.9902 106.459 47.4297 106.842 46.9922C107.225 46.5547 107.676 46.23 108.196 46.0181C108.722 45.8062 109.293 45.7002 109.908 45.7002C110.605 45.7002 111.21 45.813 111.723 46.0386C112.236 46.2642 112.656 46.6025 112.984 47.0537C113.319 47.5049 113.565 48.062 113.723 48.7251C113.887 49.3882 113.969 50.1504 113.969 51.0117V52.2114H106.771V50.4067H111.61V50.1504C111.597 49.6445 111.535 49.2104 111.426 48.8481C111.316 48.479 111.139 48.1987 110.893 48.0073C110.653 47.8091 110.322 47.71 109.898 47.71C109.59 47.71 109.317 47.7681 109.078 47.8843C108.838 48.0005 108.64 48.1885 108.483 48.4482C108.333 48.708 108.216 49.0566 108.134 49.4941C108.052 49.9248 108.011 50.458 108.011 51.0938V52.1602C108.011 52.7139 108.059 53.1821 108.155 53.5649C108.257 53.9478 108.408 54.2622 108.606 54.5083C108.804 54.7476 109.043 54.9253 109.324 55.0415C109.611 55.1509 109.942 55.2056 110.318 55.2056C110.872 55.2056 111.347 55.103 111.744 54.8979C112.147 54.686 112.496 54.4126 112.79 54.0776L113.846 55.5439C113.647 55.8105 113.381 56.0737 113.046 56.3335C112.711 56.5864 112.304 56.7949 111.826 56.959C111.354 57.123 110.8 57.2051 110.165 57.2051ZM118.275 48.0483V57H115.886V45.9053H118.163L118.275 48.0483ZM120.952 45.8335L120.941 48.1919C120.805 48.1577 120.658 48.1372 120.5 48.1304C120.35 48.1167 120.2 48.1099 120.049 48.1099C119.721 48.1099 119.438 48.168 119.198 48.2842C118.959 48.4004 118.757 48.5679 118.593 48.7866C118.429 49.0054 118.299 49.2686 118.204 49.5762C118.115 49.8838 118.06 50.2324 118.04 50.6221L117.527 50.6426C117.527 49.9453 117.582 49.2993 117.691 48.7046C117.8 48.103 117.964 47.5801 118.183 47.1357C118.409 46.6846 118.689 46.3325 119.024 46.0796C119.359 45.8267 119.749 45.7002 120.193 45.7002C120.316 45.7002 120.456 45.7139 120.613 45.7412C120.771 45.7686 120.883 45.7993 120.952 45.8335ZM126.632 57.2051C125.915 57.2051 125.275 57.0991 124.715 56.8872C124.154 56.6685 123.679 56.3472 123.29 55.9233C122.9 55.4927 122.603 54.9663 122.397 54.3442C122.192 53.7153 122.09 52.9873 122.09 52.1602V51.0938C122.09 50.1572 122.196 49.3506 122.408 48.6738C122.626 47.9902 122.927 47.4297 123.31 46.9922C123.693 46.5547 124.144 46.23 124.664 46.0181C125.19 45.8062 125.761 45.7002 126.376 45.7002C127.073 45.7002 127.678 45.813 128.191 46.0386C128.704 46.2642 129.124 46.6025 129.452 47.0537C129.787 47.5049 130.033 48.062 130.19 48.7251C130.354 49.3882 130.437 50.1504 130.437 51.0117V52.2114H123.238V50.4067H128.078V50.1504C128.064 49.6445 128.003 49.2104 127.894 48.8481C127.784 48.479 127.606 48.1987 127.36 48.0073C127.121 47.8091 126.79 47.71 126.366 47.71C126.058 47.71 125.785 47.7681 125.545 47.8843C125.306 48.0005 125.108 48.1885 124.951 48.4482C124.8 48.708 124.684 49.0566 124.602 49.4941C124.52 49.9248 124.479 50.458 124.479 51.0938V52.1602C124.479 52.7139 124.527 53.1821 124.623 53.5649C124.725 53.9478 124.875 54.2622 125.074 54.5083C125.272 54.7476 125.511 54.9253 125.792 55.0415C126.079 55.1509 126.41 55.2056 126.786 55.2056C127.34 55.2056 127.815 55.103 128.211 54.8979C128.615 54.686 128.963 54.4126 129.257 54.0776L130.313 55.5439C130.115 55.8105 129.849 56.0737 129.514 56.3335C129.179 56.5864 128.772 56.7949 128.293 56.959C127.822 57.123 127.268 57.2051 126.632 57.2051ZM132.539 55.749C132.539 55.3525 132.665 55.021 132.918 54.7544C133.178 54.4878 133.533 54.3545 133.984 54.3545C134.436 54.3545 134.788 54.4878 135.041 54.7544C135.3 55.021 135.43 55.3525 135.43 55.749C135.43 56.1318 135.3 56.4565 135.041 56.7231C134.788 56.9897 134.436 57.123 133.984 57.123C133.533 57.123 133.178 56.9897 132.918 56.7231C132.665 56.4565 132.539 56.1318 132.539 55.749ZM144.084 42.0703H146.351L149.786 53.1753L153.21 42.0703H155.312L150.719 57H148.842L144.084 42.0703ZM143.233 42.0703H145.325L145.664 51.5757V57H143.233V42.0703ZM154.226 42.0703H156.328V57H153.897V51.5757L154.226 42.0703ZM164.08 54.7441V49.2173C164.08 48.8345 164.025 48.5269 163.916 48.2944C163.813 48.062 163.659 47.8945 163.454 47.792C163.256 47.6826 163.006 47.6279 162.706 47.6279C162.391 47.6279 162.125 47.6929 161.906 47.8228C161.694 47.9526 161.533 48.1304 161.424 48.356C161.314 48.5747 161.26 48.8276 161.26 49.1147H158.871C158.871 48.6704 158.959 48.2432 159.137 47.833C159.322 47.4229 159.585 47.0571 159.927 46.7358C160.269 46.4146 160.682 46.1616 161.167 45.9771C161.653 45.7925 162.193 45.7002 162.788 45.7002C163.499 45.7002 164.131 45.8198 164.685 46.0591C165.238 46.2915 165.672 46.6709 165.987 47.1973C166.308 47.7168 166.469 48.4004 166.469 49.248V54.4263C166.469 54.939 166.5 55.397 166.561 55.8003C166.629 56.1968 166.722 56.542 166.838 56.8359V57H164.408C164.298 56.7334 164.216 56.3916 164.162 55.9746C164.107 55.5576 164.08 55.1475 164.08 54.7441ZM164.397 50.2427L164.408 51.791H163.259C162.917 51.791 162.61 51.8389 162.336 51.9346C162.063 52.0234 161.831 52.1533 161.639 52.3242C161.455 52.4883 161.311 52.6899 161.208 52.9292C161.113 53.1685 161.065 53.4316 161.065 53.7188C161.065 54.0674 161.113 54.3511 161.208 54.5698C161.311 54.7886 161.458 54.9526 161.649 55.062C161.848 55.1646 162.087 55.2158 162.367 55.2158C162.75 55.2158 163.082 55.1338 163.362 54.9697C163.649 54.7988 163.868 54.5938 164.018 54.3545C164.175 54.1152 164.237 53.8965 164.203 53.6982L164.746 54.6929C164.691 54.9526 164.589 55.2261 164.438 55.5132C164.295 55.8003 164.107 56.0737 163.875 56.3335C163.642 56.5933 163.362 56.8052 163.034 56.9692C162.706 57.1265 162.326 57.2051 161.896 57.2051C161.273 57.2051 160.72 57.0752 160.234 56.8154C159.749 56.5557 159.366 56.1831 159.086 55.6978C158.812 55.2056 158.676 54.6177 158.676 53.9341C158.676 53.3804 158.768 52.8779 158.953 52.4268C159.137 51.9756 159.411 51.5894 159.773 51.2681C160.135 50.9399 160.59 50.687 161.137 50.5093C161.69 50.3315 162.336 50.2427 163.075 50.2427H164.397ZM171.319 41.25V57H168.93V41.25H171.319ZM177.061 45.9053L173.124 51.2681L170.734 53.9854L170.129 51.873L171.883 49.3813L174.2 45.9053H177.061ZM174.672 57L171.934 51.8115L173.431 50.0581L177.42 57H174.672ZM182.742 57.2051C182.024 57.2051 181.385 57.0991 180.824 56.8872C180.264 56.6685 179.789 56.3472 179.399 55.9233C179.009 55.4927 178.712 54.9663 178.507 54.3442C178.302 53.7153 178.199 52.9873 178.199 52.1602V51.0938C178.199 50.1572 178.305 49.3506 178.517 48.6738C178.736 47.9902 179.037 47.4297 179.419 46.9922C179.802 46.5547 180.253 46.23 180.773 46.0181C181.299 45.8062 181.87 45.7002 182.485 45.7002C183.183 45.7002 183.788 45.813 184.3 46.0386C184.813 46.2642 185.233 46.6025 185.562 47.0537C185.896 47.5049 186.143 48.062 186.3 48.7251C186.464 49.3882 186.546 50.1504 186.546 51.0117V52.2114H179.348V50.4067H184.188V50.1504C184.174 49.6445 184.112 49.2104 184.003 48.8481C183.894 48.479 183.716 48.1987 183.47 48.0073C183.23 47.8091 182.899 47.71 182.475 47.71C182.167 47.71 181.894 47.7681 181.655 47.8843C181.416 48.0005 181.217 48.1885 181.06 48.4482C180.91 48.708 180.793 49.0566 180.711 49.4941C180.629 49.9248 180.588 50.458 180.588 51.0938V52.1602C180.588 52.7139 180.636 53.1821 180.732 53.5649C180.834 53.9478 180.985 54.2622 181.183 54.5083C181.381 54.7476 181.621 54.9253 181.901 55.0415C182.188 55.1509 182.52 55.2056 182.896 55.2056C183.449 55.2056 183.924 55.103 184.321 54.8979C184.724 54.686 185.073 54.4126 185.367 54.0776L186.423 55.5439C186.225 55.8105 185.958 56.0737 185.623 56.3335C185.288 56.5864 184.881 56.7949 184.403 56.959C183.931 57.123 183.377 57.2051 182.742 57.2051ZM198.44 54.0776C198.44 53.8452 198.372 53.6401 198.235 53.4624C198.105 53.2778 197.894 53.0967 197.6 52.9189C197.306 52.7412 196.913 52.5498 196.42 52.3447C195.908 52.1328 195.453 51.9209 195.057 51.709C194.66 51.4971 194.325 51.2646 194.052 51.0117C193.778 50.752 193.57 50.4546 193.426 50.1196C193.283 49.7847 193.211 49.395 193.211 48.9507C193.211 48.4927 193.296 48.0688 193.467 47.6792C193.638 47.2896 193.884 46.9478 194.206 46.6538C194.527 46.353 194.913 46.1206 195.364 45.9565C195.815 45.7856 196.325 45.7002 196.892 45.7002C197.692 45.7002 198.375 45.8472 198.943 46.1411C199.517 46.4282 199.955 46.8315 200.255 47.3511C200.563 47.8638 200.717 48.4551 200.717 49.125H198.328C198.328 48.8447 198.276 48.5918 198.174 48.3662C198.071 48.1338 197.914 47.9492 197.702 47.8125C197.49 47.6689 197.22 47.5972 196.892 47.5972C196.591 47.5972 196.338 47.6553 196.133 47.7715C195.935 47.8809 195.785 48.0312 195.682 48.2227C195.586 48.4072 195.539 48.6157 195.539 48.8481C195.539 49.019 195.569 49.1694 195.631 49.2993C195.692 49.4292 195.795 49.5557 195.938 49.6787C196.082 49.7949 196.273 49.9146 196.513 50.0376C196.759 50.1606 197.07 50.3008 197.446 50.458C198.191 50.7451 198.81 51.0425 199.302 51.3501C199.794 51.6577 200.163 52.0166 200.409 52.4268C200.655 52.8369 200.778 53.3462 200.778 53.9546C200.778 54.4468 200.686 54.8911 200.501 55.2876C200.324 55.6841 200.064 56.0259 199.722 56.313C199.387 56.6001 198.98 56.8223 198.502 56.9795C198.03 57.1299 197.504 57.2051 196.923 57.2051C196.055 57.2051 195.32 57.0342 194.718 56.6924C194.124 56.3438 193.672 55.896 193.365 55.3491C193.057 54.8022 192.903 54.2246 192.903 53.6162H195.21C195.231 54.0537 195.323 54.3955 195.487 54.6416C195.658 54.8877 195.874 55.0586 196.133 55.1543C196.393 55.2432 196.663 55.2876 196.943 55.2876C197.278 55.2876 197.555 55.2432 197.774 55.1543C197.993 55.0586 198.157 54.9185 198.266 54.7339C198.382 54.5493 198.44 54.3306 198.44 54.0776ZM208.335 54.3853V45.9053H210.725V57H208.479L208.335 54.3853ZM208.674 52.0679L209.433 52.0474C209.433 52.7925 209.364 53.4795 209.228 54.1084C209.091 54.7373 208.879 55.2842 208.592 55.749C208.312 56.207 207.946 56.5659 207.495 56.8257C207.05 57.0786 206.514 57.2051 205.885 57.2051C205.434 57.2051 205.02 57.1265 204.644 56.9692C204.268 56.812 203.943 56.5693 203.67 56.2412C203.396 55.9131 203.185 55.4858 203.034 54.9595C202.884 54.4331 202.809 53.8042 202.809 53.0728V45.9053H205.198V53.0933C205.198 53.4897 205.232 53.8213 205.3 54.0879C205.369 54.3477 205.464 54.5596 205.587 54.7236C205.71 54.8809 205.847 54.9937 205.998 55.062C206.155 55.1235 206.322 55.1543 206.5 55.1543C207.04 55.1543 207.467 55.021 207.782 54.7544C208.103 54.481 208.332 54.1118 208.469 53.647C208.605 53.1821 208.674 52.6558 208.674 52.0679ZM215.503 48.0483V57H213.114V45.9053H215.39L215.503 48.0483ZM218.179 45.8335L218.169 48.1919C218.032 48.1577 217.885 48.1372 217.728 48.1304C217.578 48.1167 217.427 48.1099 217.277 48.1099C216.949 48.1099 216.665 48.168 216.426 48.2842C216.187 48.4004 215.985 48.5679 215.821 48.7866C215.657 49.0054 215.527 49.2686 215.431 49.5762C215.342 49.8838 215.288 50.2324 215.267 50.6221L214.754 50.6426C214.754 49.9453 214.809 49.2993 214.918 48.7046C215.028 48.103 215.192 47.5801 215.411 47.1357C215.636 46.6846 215.917 46.3325 216.251 46.0796C216.586 45.8267 216.976 45.7002 217.42 45.7002C217.543 45.7002 217.684 45.7139 217.841 45.7412C217.998 45.7686 218.111 45.7993 218.179 45.8335ZM223.86 57.2051C223.142 57.2051 222.503 57.0991 221.942 56.8872C221.382 56.6685 220.907 56.3472 220.517 55.9233C220.127 55.4927 219.83 54.9663 219.625 54.3442C219.42 53.7153 219.317 52.9873 219.317 52.1602V51.0938C219.317 50.1572 219.423 49.3506 219.635 48.6738C219.854 47.9902 220.155 47.4297 220.538 46.9922C220.92 46.5547 221.372 46.23 221.891 46.0181C222.417 45.8062 222.988 45.7002 223.604 45.7002C224.301 45.7002 224.906 45.813 225.418 46.0386C225.931 46.2642 226.352 46.6025 226.68 47.0537C227.015 47.5049 227.261 48.062 227.418 48.7251C227.582 49.3882 227.664 50.1504 227.664 51.0117V52.2114H220.466V50.4067H225.306V50.1504C225.292 49.6445 225.23 49.2104 225.121 48.8481C225.012 48.479 224.834 48.1987 224.588 48.0073C224.349 47.8091 224.017 47.71 223.593 47.71C223.286 47.71 223.012 47.7681 222.773 47.8843C222.534 48.0005 222.335 48.1885 222.178 48.4482C222.028 48.708 221.912 49.0566 221.83 49.4941C221.748 49.9248 221.707 50.458 221.707 51.0938V52.1602C221.707 52.7139 221.754 53.1821 221.85 53.5649C221.953 53.9478 222.103 54.2622 222.301 54.5083C222.5 54.7476 222.739 54.9253 223.019 55.0415C223.306 55.1509 223.638 55.2056 224.014 55.2056C224.567 55.2056 225.042 55.103 225.439 54.8979C225.842 54.686 226.191 54.4126 226.485 54.0776L227.541 55.5439C227.343 55.8105 227.076 56.0737 226.741 56.3335C226.406 56.5864 226 56.7949 225.521 56.959C225.049 57.123 224.496 57.2051 223.86 57.2051ZM238.902 45.9053V47.751H233.458V45.9053H238.902ZM234.944 43.188H237.323V53.9033C237.323 54.2451 237.361 54.5049 237.436 54.6826C237.511 54.8604 237.617 54.98 237.754 55.0415C237.891 55.103 238.051 55.1338 238.236 55.1338C238.373 55.1338 238.506 55.1235 238.636 55.103C238.772 55.0757 238.872 55.0518 238.933 55.0312V56.959C238.755 57.0273 238.55 57.0854 238.318 57.1333C238.085 57.1812 237.805 57.2051 237.477 57.2051C236.992 57.2051 236.558 57.106 236.175 56.9077C235.792 56.7026 235.491 56.3711 235.272 55.9131C235.054 55.4482 234.944 54.833 234.944 54.0674V43.188ZM243.106 41.25V57H240.728V41.25H243.106ZM242.686 51.0527H241.927C241.92 50.2803 242.002 49.5693 242.173 48.9199C242.344 48.2705 242.59 47.7031 242.912 47.2178C243.233 46.7324 243.619 46.3599 244.07 46.1001C244.528 45.8335 245.034 45.7002 245.588 45.7002C246.046 45.7002 246.459 45.7788 246.829 45.936C247.205 46.0864 247.526 46.3257 247.792 46.6538C248.066 46.9819 248.274 47.4126 248.418 47.9458C248.562 48.4722 248.633 49.1147 248.633 49.8735V57H246.244V49.853C246.244 49.3267 246.186 48.9097 246.07 48.6021C245.96 48.2944 245.796 48.0723 245.578 47.9355C245.359 47.7988 245.082 47.7305 244.747 47.7305C244.419 47.7305 244.125 47.8193 243.865 47.9971C243.612 48.168 243.397 48.4072 243.219 48.7148C243.042 49.0156 242.908 49.3677 242.819 49.771C242.73 50.1675 242.686 50.5947 242.686 51.0527ZM255.257 57.2051C254.54 57.2051 253.9 57.0991 253.34 56.8872C252.779 56.6685 252.304 56.3472 251.915 55.9233C251.525 55.4927 251.228 54.9663 251.022 54.3442C250.817 53.7153 250.715 52.9873 250.715 52.1602V51.0938C250.715 50.1572 250.821 49.3506 251.033 48.6738C251.251 47.9902 251.552 47.4297 251.935 46.9922C252.318 46.5547 252.769 46.23 253.289 46.0181C253.815 45.8062 254.386 45.7002 255.001 45.7002C255.698 45.7002 256.303 45.813 256.816 46.0386C257.329 46.2642 257.749 46.6025 258.077 47.0537C258.412 47.5049 258.658 48.062 258.815 48.7251C258.979 49.3882 259.062 50.1504 259.062 51.0117V52.2114H251.863V50.4067H256.703V50.1504C256.689 49.6445 256.628 49.2104 256.519 48.8481C256.409 48.479 256.231 48.1987 255.985 48.0073C255.746 47.8091 255.415 47.71 254.991 47.71C254.683 47.71 254.41 47.7681 254.17 47.8843C253.931 48.0005 253.733 48.1885 253.576 48.4482C253.425 48.708 253.309 49.0566 253.227 49.4941C253.145 49.9248 253.104 50.458 253.104 51.0938V52.1602C253.104 52.7139 253.152 53.1821 253.248 53.5649C253.35 53.9478 253.5 54.2622 253.699 54.5083C253.897 54.7476 254.136 54.9253 254.417 55.0415C254.704 55.1509 255.035 55.2056 255.411 55.2056C255.965 55.2056 256.44 55.103 256.836 54.8979C257.24 54.686 257.588 54.4126 257.882 54.0776L258.938 55.5439C258.74 55.8105 258.474 56.0737 258.139 56.3335C257.804 56.5864 257.397 56.7949 256.918 56.959C256.447 57.123 255.893 57.2051 255.257 57.2051ZM268.352 41.25V57H265.962V41.25H268.352ZM273.438 45.9053V57H271.048V45.9053H273.438ZM270.925 42.9932C270.925 42.6104 271.042 42.2925 271.274 42.0396C271.506 41.7866 271.831 41.6602 272.248 41.6602C272.665 41.6602 272.99 41.7866 273.222 42.0396C273.455 42.2925 273.571 42.6104 273.571 42.9932C273.571 43.3691 273.455 43.6836 273.222 43.9365C272.99 44.1895 272.665 44.3159 272.248 44.3159C271.831 44.3159 271.506 44.1895 271.274 43.9365C271.042 43.6836 270.925 43.3691 270.925 42.9932ZM278.349 48.2739V57H275.96V45.9053H278.206L278.349 48.2739ZM277.918 51.0527H277.16C277.153 50.2529 277.238 49.5249 277.416 48.8687C277.594 48.2124 277.847 47.6484 278.175 47.1768C278.503 46.7051 278.896 46.3428 279.354 46.0898C279.819 45.8301 280.335 45.7002 280.902 45.7002C281.347 45.7002 281.75 45.7754 282.112 45.9258C282.481 46.0693 282.796 46.3052 283.056 46.6333C283.315 46.9614 283.514 47.3887 283.65 47.915C283.794 48.4414 283.866 49.084 283.866 49.8428V57H281.477V49.8223C281.477 49.3027 281.418 48.8926 281.302 48.5918C281.193 48.2842 281.029 48.0654 280.81 47.9355C280.591 47.7988 280.314 47.7305 279.979 47.7305C279.672 47.7305 279.388 47.8193 279.128 47.9971C278.875 48.168 278.657 48.4072 278.472 48.7148C278.294 49.0156 278.158 49.3677 278.062 49.771C277.966 50.1675 277.918 50.5947 277.918 51.0527ZM288.665 41.25V57H286.275V41.25H288.665ZM294.407 45.9053L290.469 51.2681L288.08 53.9854L287.475 51.873L289.229 49.3813L291.546 45.9053H294.407ZM292.018 57L289.28 51.8115L290.777 50.0581L294.766 57H292.018ZM303.42 45.9053V57H301.031V45.9053H303.42ZM300.908 42.9932C300.908 42.6104 301.024 42.2925 301.256 42.0396C301.489 41.7866 301.813 41.6602 302.23 41.6602C302.647 41.6602 302.972 41.7866 303.205 42.0396C303.437 42.2925 303.553 42.6104 303.553 42.9932C303.553 43.3691 303.437 43.6836 303.205 43.9365C302.972 44.1895 302.647 44.3159 302.23 44.3159C301.813 44.3159 301.489 44.1895 301.256 43.9365C301.024 43.6836 300.908 43.3691 300.908 42.9932ZM311.11 54.0776C311.11 53.8452 311.042 53.6401 310.905 53.4624C310.775 53.2778 310.563 53.0967 310.27 52.9189C309.976 52.7412 309.583 52.5498 309.09 52.3447C308.578 52.1328 308.123 51.9209 307.727 51.709C307.33 51.4971 306.995 51.2646 306.722 51.0117C306.448 50.752 306.24 50.4546 306.096 50.1196C305.953 49.7847 305.881 49.395 305.881 48.9507C305.881 48.4927 305.966 48.0688 306.137 47.6792C306.308 47.2896 306.554 46.9478 306.875 46.6538C307.197 46.353 307.583 46.1206 308.034 45.9565C308.485 45.7856 308.995 45.7002 309.562 45.7002C310.362 45.7002 311.045 45.8472 311.613 46.1411C312.187 46.4282 312.625 46.8315 312.925 47.3511C313.233 47.8638 313.387 48.4551 313.387 49.125H310.998C310.998 48.8447 310.946 48.5918 310.844 48.3662C310.741 48.1338 310.584 47.9492 310.372 47.8125C310.16 47.6689 309.89 47.5972 309.562 47.5972C309.261 47.5972 309.008 47.6553 308.803 47.7715C308.605 47.8809 308.455 48.0312 308.352 48.2227C308.256 48.4072 308.208 48.6157 308.208 48.8481C308.208 49.019 308.239 49.1694 308.301 49.2993C308.362 49.4292 308.465 49.5557 308.608 49.6787C308.752 49.7949 308.943 49.9146 309.183 50.0376C309.429 50.1606 309.74 50.3008 310.116 50.458C310.861 50.7451 311.479 51.0425 311.972 51.3501C312.464 51.6577 312.833 52.0166 313.079 52.4268C313.325 52.8369 313.448 53.3462 313.448 53.9546C313.448 54.4468 313.356 54.8911 313.171 55.2876C312.994 55.6841 312.734 56.0259 312.392 56.313C312.057 56.6001 311.65 56.8223 311.172 56.9795C310.7 57.1299 310.174 57.2051 309.593 57.2051C308.725 57.2051 307.99 57.0342 307.388 56.6924C306.793 56.3438 306.342 55.896 306.035 55.3491C305.727 54.8022 305.573 54.2246 305.573 53.6162H307.88C307.901 54.0537 307.993 54.3955 308.157 54.6416C308.328 54.8877 308.543 55.0586 308.803 55.1543C309.063 55.2432 309.333 55.2876 309.613 55.2876C309.948 55.2876 310.225 55.2432 310.444 55.1543C310.663 55.0586 310.827 54.9185 310.936 54.7339C311.052 54.5493 311.11 54.3306 311.11 54.0776ZM325.507 54.0776C325.507 53.8452 325.438 53.6401 325.302 53.4624C325.172 53.2778 324.96 53.0967 324.666 52.9189C324.372 52.7412 323.979 52.5498 323.487 52.3447C322.974 52.1328 322.52 51.9209 322.123 51.709C321.727 51.4971 321.392 51.2646 321.118 51.0117C320.845 50.752 320.636 50.4546 320.493 50.1196C320.349 49.7847 320.277 49.395 320.277 48.9507C320.277 48.4927 320.363 48.0688 320.534 47.6792C320.705 47.2896 320.951 46.9478 321.272 46.6538C321.593 46.353 321.979 46.1206 322.431 45.9565C322.882 45.7856 323.391 45.7002 323.958 45.7002C324.758 45.7002 325.442 45.8472 326.009 46.1411C326.583 46.4282 327.021 46.8315 327.322 47.3511C327.629 47.8638 327.783 48.4551 327.783 49.125H325.394C325.394 48.8447 325.343 48.5918 325.24 48.3662C325.138 48.1338 324.98 47.9492 324.769 47.8125C324.557 47.6689 324.287 47.5972 323.958 47.5972C323.658 47.5972 323.405 47.6553 323.2 47.7715C323.001 47.8809 322.851 48.0312 322.749 48.2227C322.653 48.4072 322.605 48.6157 322.605 48.8481C322.605 49.019 322.636 49.1694 322.697 49.2993C322.759 49.4292 322.861 49.5557 323.005 49.6787C323.148 49.7949 323.34 49.9146 323.579 50.0376C323.825 50.1606 324.136 50.3008 324.512 50.458C325.257 50.7451 325.876 51.0425 326.368 51.3501C326.86 51.6577 327.229 52.0166 327.476 52.4268C327.722 52.8369 327.845 53.3462 327.845 53.9546C327.845 54.4468 327.752 54.8911 327.568 55.2876C327.39 55.6841 327.13 56.0259 326.789 56.313C326.454 56.6001 326.047 56.8223 325.568 56.9795C325.097 57.1299 324.57 57.2051 323.989 57.2051C323.121 57.2051 322.386 57.0342 321.785 56.6924C321.19 56.3438 320.739 55.896 320.431 55.3491C320.124 54.8022 319.97 54.2246 319.97 53.6162H322.277C322.297 54.0537 322.39 54.3955 322.554 54.6416C322.725 54.8877 322.94 55.0586 323.2 55.1543C323.459 55.2432 323.729 55.2876 324.01 55.2876C324.345 55.2876 324.622 55.2432 324.84 55.1543C325.059 55.0586 325.223 54.9185 325.333 54.7339C325.449 54.5493 325.507 54.3306 325.507 54.0776ZM334.171 57.2051C333.454 57.2051 332.814 57.0991 332.254 56.8872C331.693 56.6685 331.218 56.3472 330.829 55.9233C330.439 55.4927 330.142 54.9663 329.937 54.3442C329.731 53.7153 329.629 52.9873 329.629 52.1602V51.0938C329.629 50.1572 329.735 49.3506 329.947 48.6738C330.166 47.9902 330.466 47.4297 330.849 46.9922C331.232 46.5547 331.683 46.23 332.203 46.0181C332.729 45.8062 333.3 45.7002 333.915 45.7002C334.612 45.7002 335.217 45.813 335.73 46.0386C336.243 46.2642 336.663 46.6025 336.991 47.0537C337.326 47.5049 337.572 48.062 337.729 48.7251C337.894 49.3882 337.976 50.1504 337.976 51.0117V52.2114H330.777V50.4067H335.617V50.1504C335.604 49.6445 335.542 49.2104 335.433 48.8481C335.323 48.479 335.146 48.1987 334.899 48.0073C334.66 47.8091 334.329 47.71 333.905 47.71C333.597 47.71 333.324 47.7681 333.084 47.8843C332.845 48.0005 332.647 48.1885 332.49 48.4482C332.339 48.708 332.223 49.0566 332.141 49.4941C332.059 49.9248 332.018 50.458 332.018 51.0938V52.1602C332.018 52.7139 332.066 53.1821 332.162 53.5649C332.264 53.9478 332.415 54.2622 332.613 54.5083C332.811 54.7476 333.05 54.9253 333.331 55.0415C333.618 55.1509 333.949 55.2056 334.325 55.2056C334.879 55.2056 335.354 55.103 335.75 54.8979C336.154 54.686 336.502 54.4126 336.796 54.0776L337.853 55.5439C337.654 55.8105 337.388 56.0737 337.053 56.3335C336.718 56.5864 336.311 56.7949 335.833 56.959C335.361 57.123 334.807 57.2051 334.171 57.2051ZM344.374 45.9053V47.751H338.929V45.9053H344.374ZM340.416 43.188H342.795V53.9033C342.795 54.2451 342.833 54.5049 342.908 54.6826C342.983 54.8604 343.089 54.98 343.226 55.0415C343.362 55.103 343.523 55.1338 343.708 55.1338C343.844 55.1338 343.978 55.1235 344.107 55.103C344.244 55.0757 344.343 55.0518 344.405 55.0312V56.959C344.227 57.0273 344.022 57.0854 343.79 57.1333C343.557 57.1812 343.277 57.2051 342.949 57.2051C342.463 57.2051 342.029 57.106 341.646 56.9077C341.264 56.7026 340.963 56.3711 340.744 55.9131C340.525 55.4482 340.416 54.833 340.416 54.0674V43.188ZM355.551 45.9053V47.751H350.106V45.9053H355.551ZM351.593 43.188H353.972V53.9033C353.972 54.2451 354.009 54.5049 354.084 54.6826C354.16 54.8604 354.266 54.98 354.402 55.0415C354.539 55.103 354.7 55.1338 354.884 55.1338C355.021 55.1338 355.154 55.1235 355.284 55.103C355.421 55.0757 355.52 55.0518 355.582 55.0312V56.959C355.404 57.0273 355.199 57.0854 354.966 57.1333C354.734 57.1812 354.454 57.2051 354.125 57.2051C353.64 57.2051 353.206 57.106 352.823 56.9077C352.44 56.7026 352.14 56.3711 351.921 55.9131C351.702 55.4482 351.593 54.833 351.593 54.0674V43.188ZM356.792 51.9038V51.0117C356.792 50.1504 356.897 49.3882 357.109 48.7251C357.321 48.062 357.622 47.5083 358.012 47.064C358.408 46.6128 358.873 46.2744 359.406 46.0488C359.939 45.8164 360.527 45.7002 361.17 45.7002C361.826 45.7002 362.421 45.8164 362.954 46.0488C363.494 46.2744 363.959 46.6128 364.349 47.064C364.745 47.5083 365.049 48.062 365.261 48.7251C365.473 49.3882 365.579 50.1504 365.579 51.0117V51.9038C365.579 52.7651 365.473 53.5273 365.261 54.1904C365.049 54.8535 364.745 55.4106 364.349 55.8618C363.959 56.3062 363.498 56.6411 362.964 56.8667C362.431 57.0923 361.84 57.2051 361.19 57.2051C360.548 57.2051 359.957 57.0923 359.417 56.8667C358.883 56.6411 358.418 56.3062 358.022 55.8618C357.625 55.4106 357.321 54.8535 357.109 54.1904C356.897 53.5273 356.792 52.7651 356.792 51.9038ZM359.181 51.0117V51.9038C359.181 52.4575 359.229 52.9429 359.324 53.3599C359.42 53.77 359.557 54.1118 359.734 54.3853C359.912 54.6587 360.124 54.8638 360.37 55.0005C360.616 55.1372 360.89 55.2056 361.19 55.2056C361.525 55.2056 361.816 55.1372 362.062 55.0005C362.315 54.8638 362.523 54.6587 362.688 54.3853C362.858 54.1118 362.985 53.77 363.067 53.3599C363.149 52.9429 363.19 52.4575 363.19 51.9038V51.0117C363.19 50.4648 363.142 49.9863 363.046 49.5762C362.951 49.1592 362.814 48.814 362.636 48.5405C362.458 48.2603 362.243 48.0518 361.99 47.915C361.744 47.7783 361.471 47.71 361.17 47.71C360.876 47.71 360.606 47.7783 360.36 47.915C360.121 48.0518 359.912 48.2603 359.734 48.5405C359.557 48.814 359.42 49.1592 359.324 49.5762C359.229 49.9863 359.181 50.4648 359.181 51.0117ZM374.008 41.25V42.583L373.741 46.5513H372.121L372.131 42.7471V41.25H374.008ZM380.119 44.1211L376.51 57H373.905L378.643 42.0703H380.263L380.119 44.1211ZM383 57L379.381 44.1211L379.207 42.0703H380.857L385.615 57H383ZM383.062 51.4526V53.5444H376.11V51.4526H383.062ZM389.214 48.2739V57H386.825V45.9053H389.071L389.214 48.2739ZM388.784 51.0527H388.025C388.018 50.2529 388.104 49.5249 388.281 48.8687C388.459 48.2124 388.712 47.6484 389.04 47.1768C389.368 46.7051 389.761 46.3428 390.219 46.0898C390.684 45.8301 391.2 45.7002 391.768 45.7002C392.212 45.7002 392.615 45.7754 392.978 45.9258C393.347 46.0693 393.661 46.3052 393.921 46.6333C394.181 46.9614 394.379 47.3887 394.516 47.915C394.659 48.4414 394.731 49.084 394.731 49.8428V57H392.342V49.8223C392.342 49.3027 392.284 48.8926 392.167 48.5918C392.058 48.2842 391.894 48.0654 391.675 47.9355C391.457 47.7988 391.18 47.7305 390.845 47.7305C390.537 47.7305 390.253 47.8193 389.994 47.9971C389.741 48.168 389.522 48.4072 389.337 48.7148C389.16 49.0156 389.023 49.3677 388.927 49.771C388.832 50.1675 388.784 50.5947 388.784 51.0527ZM399.827 55.7798L402.206 45.9053H404.718L401.058 58.6816C400.976 58.9619 400.859 59.2627 400.709 59.584C400.565 59.9053 400.377 60.2095 400.145 60.4966C399.919 60.7905 399.636 61.0264 399.294 61.2041C398.959 61.3887 398.559 61.481 398.094 61.481C397.903 61.481 397.718 61.4639 397.541 61.4297C397.363 61.3955 397.192 61.3545 397.028 61.3066V59.3789C397.083 59.3857 397.144 59.3926 397.212 59.3994C397.281 59.4062 397.342 59.4097 397.397 59.4097C397.732 59.4097 398.009 59.3584 398.228 59.2559C398.446 59.1602 398.627 59.0029 398.771 58.7842C398.915 58.5723 399.041 58.2886 399.15 57.9331L399.827 55.7798ZM398.771 45.9053L400.719 54.1597L401.14 56.8359L399.499 57.2563L396.197 45.9053H398.771ZM405.703 51.9038V51.0117C405.703 50.1504 405.809 49.3882 406.021 48.7251C406.232 48.062 406.533 47.5083 406.923 47.064C407.319 46.6128 407.784 46.2744 408.317 46.0488C408.851 45.8164 409.438 45.7002 410.081 45.7002C410.737 45.7002 411.332 45.8164 411.865 46.0488C412.405 46.2744 412.87 46.6128 413.26 47.064C413.656 47.5083 413.96 48.062 414.172 48.7251C414.384 49.3882 414.49 50.1504 414.49 51.0117V51.9038C414.49 52.7651 414.384 53.5273 414.172 54.1904C413.96 54.8535 413.656 55.4106 413.26 55.8618C412.87 56.3062 412.409 56.6411 411.875 56.8667C411.342 57.0923 410.751 57.2051 410.102 57.2051C409.459 57.2051 408.868 57.0923 408.328 56.8667C407.794 56.6411 407.33 56.3062 406.933 55.8618C406.537 55.4106 406.232 54.8535 406.021 54.1904C405.809 53.5273 405.703 52.7651 405.703 51.9038ZM408.092 51.0117V51.9038C408.092 52.4575 408.14 52.9429 408.235 53.3599C408.331 53.77 408.468 54.1118 408.646 54.3853C408.823 54.6587 409.035 54.8638 409.281 55.0005C409.527 55.1372 409.801 55.2056 410.102 55.2056C410.437 55.2056 410.727 55.1372 410.973 55.0005C411.226 54.8638 411.435 54.6587 411.599 54.3853C411.77 54.1118 411.896 53.77 411.978 53.3599C412.06 52.9429 412.101 52.4575 412.101 51.9038V51.0117C412.101 50.4648 412.053 49.9863 411.958 49.5762C411.862 49.1592 411.725 48.814 411.547 48.5405C411.37 48.2603 411.154 48.0518 410.901 47.915C410.655 47.7783 410.382 47.71 410.081 47.71C409.787 47.71 409.517 47.7783 409.271 47.915C409.032 48.0518 408.823 48.2603 408.646 48.5405C408.468 48.814 408.331 49.1592 408.235 49.5762C408.14 49.9863 408.092 50.4648 408.092 51.0117ZM418.91 48.2739V57H416.521V45.9053H418.766L418.91 48.2739ZM418.479 51.0527H417.72C417.713 50.2529 417.799 49.5249 417.977 48.8687C418.154 48.2124 418.407 47.6484 418.735 47.1768C419.063 46.7051 419.457 46.3428 419.915 46.0898C420.379 45.8301 420.896 45.7002 421.463 45.7002C421.907 45.7002 422.311 45.7754 422.673 45.9258C423.042 46.0693 423.356 46.3052 423.616 46.6333C423.876 46.9614 424.074 47.3887 424.211 47.915C424.354 48.4414 424.426 49.084 424.426 49.8428V57H422.037V49.8223C422.037 49.3027 421.979 48.8926 421.863 48.5918C421.753 48.2842 421.589 48.0654 421.371 47.9355C421.152 47.7988 420.875 47.7305 420.54 47.7305C420.232 47.7305 419.949 47.8193 419.689 47.9971C419.436 48.168 419.217 48.4072 419.033 48.7148C418.855 49.0156 418.718 49.3677 418.623 49.771C418.527 50.1675 418.479 50.5947 418.479 51.0527ZM431.071 57.2051C430.353 57.2051 429.714 57.0991 429.153 56.8872C428.593 56.6685 428.118 56.3472 427.728 55.9233C427.338 55.4927 427.041 54.9663 426.836 54.3442C426.631 53.7153 426.528 52.9873 426.528 52.1602V51.0938C426.528 50.1572 426.634 49.3506 426.846 48.6738C427.065 47.9902 427.366 47.4297 427.749 46.9922C428.131 46.5547 428.583 46.23 429.102 46.0181C429.628 45.8062 430.199 45.7002 430.814 45.7002C431.512 45.7002 432.117 45.813 432.629 46.0386C433.142 46.2642 433.562 46.6025 433.891 47.0537C434.226 47.5049 434.472 48.062 434.629 48.7251C434.793 49.3882 434.875 50.1504 434.875 51.0117V52.2114H427.677V50.4067H432.517V50.1504C432.503 49.6445 432.441 49.2104 432.332 48.8481C432.223 48.479 432.045 48.1987 431.799 48.0073C431.56 47.8091 431.228 47.71 430.804 47.71C430.497 47.71 430.223 47.7681 429.984 47.8843C429.745 48.0005 429.546 48.1885 429.389 48.4482C429.239 48.708 429.123 49.0566 429.041 49.4941C428.958 49.9248 428.917 50.458 428.917 51.0938V52.1602C428.917 52.7139 428.965 53.1821 429.061 53.5649C429.164 53.9478 429.314 54.2622 429.512 54.5083C429.71 54.7476 429.95 54.9253 430.23 55.0415C430.517 55.1509 430.849 55.2056 431.225 55.2056C431.778 55.2056 432.253 55.103 432.65 54.8979C433.053 54.686 433.402 54.4126 433.696 54.0776L434.752 55.5439C434.554 55.8105 434.287 56.0737 433.952 56.3335C433.617 56.5864 433.21 56.7949 432.732 56.959C432.26 57.123 431.707 57.2051 431.071 57.2051ZM31.6606 79.5186L33.8345 70.9053H35.3418L35.0444 73.5405L32.8809 82H31.5479L31.6606 79.5186ZM30.748 70.9053L32.4092 79.5493L32.4194 82H30.9224L28.4307 70.9053H30.748ZM37.0952 79.4468L38.6846 70.9053H41.0122L38.5205 82H37.0234L37.0952 79.4468ZM35.5981 70.9053L37.7412 79.4058L37.895 82H36.562L34.3574 73.5405L34.0703 70.9053H35.5981ZM45.1855 70.9053V82H42.7964V70.9053H45.1855ZM42.6733 67.9932C42.6733 67.6104 42.7896 67.2925 43.022 67.0396C43.2544 66.7866 43.5791 66.6602 43.9961 66.6602C44.4131 66.6602 44.7378 66.7866 44.9702 67.0396C45.2026 67.2925 45.3188 67.6104 45.3188 67.9932C45.3188 68.3691 45.2026 68.6836 44.9702 68.9365C44.7378 69.1895 44.4131 69.3159 43.9961 69.3159C43.5791 69.3159 43.2544 69.1895 43.022 68.9365C42.7896 68.6836 42.6733 68.3691 42.6733 67.9932ZM52.2197 70.9053V72.751H46.7749V70.9053H52.2197ZM48.2617 68.188H50.6406V78.9033C50.6406 79.2451 50.6782 79.5049 50.7534 79.6826C50.8286 79.8604 50.9346 79.98 51.0713 80.0415C51.208 80.103 51.3687 80.1338 51.5532 80.1338C51.6899 80.1338 51.8232 80.1235 51.9531 80.103C52.0898 80.0757 52.189 80.0518 52.2505 80.0312V81.959C52.0728 82.0273 51.8677 82.0854 51.6353 82.1333C51.4028 82.1812 51.1226 82.2051 50.7944 82.2051C50.3091 82.2051 49.875 82.106 49.4922 81.9077C49.1094 81.7026 48.8086 81.3711 48.5898 80.9131C48.3711 80.4482 48.2617 79.833 48.2617 79.0674V68.188ZM56.4238 66.25V82H54.0449V66.25H56.4238ZM56.0034 76.0527H55.2446C55.2378 75.2803 55.3198 74.5693 55.4907 73.9199C55.6616 73.2705 55.9077 72.7031 56.229 72.2178C56.5503 71.7324 56.9365 71.3599 57.3877 71.1001C57.8457 70.8335 58.3516 70.7002 58.9053 70.7002C59.3633 70.7002 59.7769 70.7788 60.146 70.936C60.522 71.0864 60.8433 71.3257 61.1099 71.6538C61.3833 71.9819 61.5918 72.4126 61.7354 72.9458C61.8789 73.4722 61.9507 74.1147 61.9507 74.8735V82H59.5615V74.853C59.5615 74.3267 59.5034 73.9097 59.3872 73.6021C59.2778 73.2944 59.1138 73.0723 58.895 72.9355C58.6763 72.7988 58.3994 72.7305 58.0645 72.7305C57.7363 72.7305 57.4424 72.8193 57.1826 72.9971C56.9297 73.168 56.7144 73.4072 56.5366 73.7148C56.3589 74.0156 56.2256 74.3677 56.1367 74.771C56.0479 75.1675 56.0034 75.5947 56.0034 76.0527ZM73.6504 70.9053V72.751H68.2056V70.9053H73.6504ZM69.6924 68.188H72.0713V78.9033C72.0713 79.2451 72.1089 79.5049 72.1841 79.6826C72.2593 79.8604 72.3652 79.98 72.502 80.0415C72.6387 80.103 72.7993 80.1338 72.9839 80.1338C73.1206 80.1338 73.2539 80.1235 73.3838 80.103C73.5205 80.0757 73.6196 80.0518 73.6812 80.0312V81.959C73.5034 82.0273 73.2983 82.0854 73.0659 82.1333C72.8335 82.1812 72.5532 82.2051 72.2251 82.2051C71.7397 82.2051 71.3057 82.106 70.9229 81.9077C70.54 81.7026 70.2393 81.3711 70.0205 80.9131C69.8018 80.4482 69.6924 79.833 69.6924 79.0674V68.188ZM77.8545 66.25V82H75.4756V66.25H77.8545ZM77.4341 76.0527H76.6753C76.6685 75.2803 76.7505 74.5693 76.9214 73.9199C77.0923 73.2705 77.3384 72.7031 77.6597 72.2178C77.981 71.7324 78.3672 71.3599 78.8184 71.1001C79.2764 70.8335 79.7822 70.7002 80.3359 70.7002C80.7939 70.7002 81.2075 70.7788 81.5767 70.936C81.9526 71.0864 82.2739 71.3257 82.5405 71.6538C82.814 71.9819 83.0225 72.4126 83.166 72.9458C83.3096 73.4722 83.3813 74.1147 83.3813 74.8735V82H80.9922V74.853C80.9922 74.3267 80.9341 73.9097 80.8179 73.6021C80.7085 73.2944 80.5444 73.0723 80.3257 72.9355C80.1069 72.7988 79.8301 72.7305 79.4951 72.7305C79.167 72.7305 78.873 72.8193 78.6133 72.9971C78.3604 73.168 78.145 73.4072 77.9673 73.7148C77.7896 74.0156 77.6562 74.3677 77.5674 74.771C77.4785 75.1675 77.4341 75.5947 77.4341 76.0527ZM90.0054 82.2051C89.2876 82.2051 88.6484 82.0991 88.0879 81.8872C87.5273 81.6685 87.0522 81.3472 86.6626 80.9233C86.2729 80.4927 85.9756 79.9663 85.7705 79.3442C85.5654 78.7153 85.4629 77.9873 85.4629 77.1602V76.0938C85.4629 75.1572 85.5688 74.3506 85.7808 73.6738C85.9995 72.9902 86.3003 72.4297 86.6831 71.9922C87.0659 71.5547 87.5171 71.23 88.0366 71.0181C88.563 70.8062 89.1338 70.7002 89.749 70.7002C90.4463 70.7002 91.0513 70.813 91.564 71.0386C92.0767 71.2642 92.4971 71.6025 92.8252 72.0537C93.1602 72.5049 93.4062 73.062 93.5635 73.7251C93.7275 74.3882 93.8096 75.1504 93.8096 76.0117V77.2114H86.6113V75.4067H91.4512V75.1504C91.4375 74.6445 91.376 74.2104 91.2666 73.8481C91.1572 73.479 90.9795 73.1987 90.7334 73.0073C90.4941 72.8091 90.1626 72.71 89.7388 72.71C89.4312 72.71 89.1577 72.7681 88.9185 72.8843C88.6792 73.0005 88.481 73.1885 88.3237 73.4482C88.1733 73.708 88.0571 74.0566 87.9751 74.4941C87.8931 74.9248 87.8521 75.458 87.8521 76.0938V77.1602C87.8521 77.7139 87.8999 78.1821 87.9956 78.5649C88.0981 78.9478 88.2485 79.2622 88.4468 79.5083C88.645 79.7476 88.8843 79.9253 89.1646 80.0415C89.4517 80.1509 89.7832 80.2056 90.1592 80.2056C90.7129 80.2056 91.188 80.103 91.5845 79.8979C91.9878 79.686 92.3364 79.4126 92.6304 79.0776L93.6865 80.5439C93.4883 80.8105 93.2217 81.0737 92.8867 81.3335C92.5518 81.5864 92.145 81.7949 91.6665 81.959C91.1948 82.123 90.6411 82.2051 90.0054 82.2051ZM103.1 66.25V82H100.71V66.25H103.1ZM108.186 70.9053V82H105.796V70.9053H108.186ZM105.673 67.9932C105.673 67.6104 105.79 67.2925 106.022 67.0396C106.254 66.7866 106.579 66.6602 106.996 66.6602C107.413 66.6602 107.738 66.7866 107.97 67.0396C108.203 67.2925 108.319 67.6104 108.319 67.9932C108.319 68.3691 108.203 68.6836 107.97 68.9365C107.738 69.1895 107.413 69.3159 106.996 69.3159C106.579 69.3159 106.254 69.1895 106.022 68.9365C105.79 68.6836 105.673 68.3691 105.673 67.9932ZM113.097 73.2739V82H110.708V70.9053H112.954L113.097 73.2739ZM112.667 76.0527H111.908C111.901 75.2529 111.986 74.5249 112.164 73.8687C112.342 73.2124 112.595 72.6484 112.923 72.1768C113.251 71.7051 113.644 71.3428 114.102 71.0898C114.567 70.8301 115.083 70.7002 115.65 70.7002C116.095 70.7002 116.498 70.7754 116.86 70.9258C117.229 71.0693 117.544 71.3052 117.804 71.6333C118.063 71.9614 118.262 72.3887 118.398 72.915C118.542 73.4414 118.614 74.084 118.614 74.8428V82H116.225V74.8223C116.225 74.3027 116.167 73.8926 116.05 73.5918C115.941 73.2842 115.777 73.0654 115.558 72.9355C115.339 72.7988 115.062 72.7305 114.728 72.7305C114.42 72.7305 114.136 72.8193 113.876 72.9971C113.624 73.168 113.405 73.4072 113.22 73.7148C113.042 74.0156 112.906 74.3677 112.81 74.771C112.714 75.1675 112.667 75.5947 112.667 76.0527ZM123.413 66.25V82H121.023V66.25H123.413ZM129.155 70.9053L125.217 76.2681L122.828 78.9854L122.223 76.873L123.977 74.3813L126.294 70.9053H129.155ZM126.766 82L124.028 76.8115L125.525 75.0581L129.514 82H126.766ZM139.573 80.2056C139.88 80.2056 140.154 80.1406 140.393 80.0107C140.639 79.8809 140.834 79.6792 140.978 79.4058C141.121 79.1255 141.2 78.7632 141.213 78.3188H143.459C143.445 79.105 143.264 79.792 142.916 80.3799C142.567 80.9609 142.102 81.4121 141.521 81.7334C140.947 82.0479 140.308 82.2051 139.604 82.2051C138.872 82.2051 138.233 82.0889 137.686 81.8564C137.146 81.6172 136.698 81.272 136.343 80.8208C135.987 80.3696 135.721 79.8228 135.543 79.1802C135.372 78.5308 135.287 77.7891 135.287 76.9551V75.9502C135.287 75.123 135.372 74.3848 135.543 73.7354C135.721 73.0859 135.987 72.5356 136.343 72.0845C136.698 71.6333 137.146 71.2915 137.686 71.0591C138.226 70.8198 138.862 70.7002 139.593 70.7002C140.373 70.7002 141.046 70.8643 141.613 71.1924C142.188 71.5137 142.635 71.9854 142.957 72.6074C143.278 73.2295 143.445 73.9917 143.459 74.894H141.213C141.2 74.4155 141.128 74.0156 140.998 73.6943C140.868 73.3662 140.684 73.1201 140.444 72.9561C140.212 72.792 139.918 72.71 139.562 72.71C139.173 72.71 138.852 72.7852 138.599 72.9355C138.353 73.0791 138.161 73.291 138.024 73.5713C137.895 73.8516 137.802 74.1934 137.748 74.5967C137.7 74.9932 137.676 75.4443 137.676 75.9502V76.9551C137.676 77.4746 137.7 77.936 137.748 78.3394C137.795 78.7358 137.884 79.0742 138.014 79.3545C138.151 79.6348 138.346 79.8467 138.599 79.9902C138.852 80.1338 139.176 80.2056 139.573 80.2056ZM150.462 79.7441V74.2173C150.462 73.8345 150.408 73.5269 150.298 73.2944C150.196 73.062 150.042 72.8945 149.837 72.792C149.639 72.6826 149.389 72.6279 149.088 72.6279C148.774 72.6279 148.507 72.6929 148.289 72.8228C148.077 72.9526 147.916 73.1304 147.807 73.356C147.697 73.5747 147.643 73.8276 147.643 74.1147H145.253C145.253 73.6704 145.342 73.2432 145.52 72.833C145.705 72.4229 145.968 72.0571 146.31 71.7358C146.651 71.4146 147.065 71.1616 147.55 70.9771C148.036 70.7925 148.576 70.7002 149.17 70.7002C149.881 70.7002 150.514 70.8198 151.067 71.0591C151.621 71.2915 152.055 71.6709 152.37 72.1973C152.691 72.7168 152.852 73.4004 152.852 74.248V79.4263C152.852 79.939 152.882 80.397 152.944 80.8003C153.012 81.1968 153.104 81.542 153.221 81.8359V82H150.791C150.681 81.7334 150.599 81.3916 150.544 80.9746C150.49 80.5576 150.462 80.1475 150.462 79.7441ZM150.78 75.2427L150.791 76.791H149.642C149.3 76.791 148.993 76.8389 148.719 76.9346C148.446 77.0234 148.213 77.1533 148.022 77.3242C147.837 77.4883 147.694 77.6899 147.591 77.9292C147.496 78.1685 147.448 78.4316 147.448 78.7188C147.448 79.0674 147.496 79.3511 147.591 79.5698C147.694 79.7886 147.841 79.9526 148.032 80.062C148.23 80.1646 148.47 80.2158 148.75 80.2158C149.133 80.2158 149.464 80.1338 149.745 79.9697C150.032 79.7988 150.25 79.5938 150.401 79.3545C150.558 79.1152 150.62 78.8965 150.585 78.6982L151.129 79.6929C151.074 79.9526 150.972 80.2261 150.821 80.5132C150.678 80.8003 150.49 81.0737 150.257 81.3335C150.025 81.5933 149.745 81.8052 149.417 81.9692C149.088 82.1265 148.709 82.2051 148.278 82.2051C147.656 82.2051 147.103 82.0752 146.617 81.8154C146.132 81.5557 145.749 81.1831 145.469 80.6978C145.195 80.2056 145.059 79.6177 145.059 78.9341C145.059 78.3804 145.151 77.8779 145.335 77.4268C145.52 76.9756 145.793 76.5894 146.156 76.2681C146.518 75.9399 146.973 75.687 147.52 75.5093C148.073 75.3315 148.719 75.2427 149.458 75.2427H150.78ZM157.661 73.2739V82H155.271V70.9053H157.517L157.661 73.2739ZM157.23 76.0527H156.471C156.464 75.2529 156.55 74.5249 156.728 73.8687C156.905 73.2124 157.158 72.6484 157.486 72.1768C157.814 71.7051 158.208 71.3428 158.666 71.0898C159.13 70.8301 159.646 70.7002 160.214 70.7002C160.658 70.7002 161.062 70.7754 161.424 70.9258C161.793 71.0693 162.107 71.3052 162.367 71.6333C162.627 71.9614 162.825 72.3887 162.962 72.915C163.105 73.4414 163.177 74.084 163.177 74.8428V82H160.788V74.8223C160.788 74.3027 160.73 73.8926 160.614 73.5918C160.504 73.2842 160.34 73.0654 160.122 72.9355C159.903 72.7988 159.626 72.7305 159.291 72.7305C158.983 72.7305 158.7 72.8193 158.44 72.9971C158.187 73.168 157.968 73.4072 157.784 73.7148C157.606 74.0156 157.469 74.3677 157.374 74.771C157.278 75.1675 157.23 75.5947 157.23 76.0527ZM173.513 80.0107L175.564 70.9053H178.035L174.877 82H173.349L173.513 80.0107ZM172.057 70.9053L174.18 80.0415L174.282 82H172.765L169.586 70.9053H172.057ZM182.178 70.9053V82H179.789V70.9053H182.178ZM179.666 67.9932C179.666 67.6104 179.782 67.2925 180.014 67.0396C180.247 66.7866 180.571 66.6602 180.988 66.6602C181.405 66.6602 181.73 66.7866 181.962 67.0396C182.195 67.2925 182.311 67.6104 182.311 67.9932C182.311 68.3691 182.195 68.6836 181.962 68.9365C181.73 69.1895 181.405 69.3159 180.988 69.3159C180.571 69.3159 180.247 69.1895 180.014 68.9365C179.782 68.6836 179.666 68.3691 179.666 67.9932ZM188.976 82.2051C188.258 82.2051 187.619 82.0991 187.059 81.8872C186.498 81.6685 186.023 81.3472 185.633 80.9233C185.244 80.4927 184.946 79.9663 184.741 79.3442C184.536 78.7153 184.434 77.9873 184.434 77.1602V76.0938C184.434 75.1572 184.54 74.3506 184.751 73.6738C184.97 72.9902 185.271 72.4297 185.654 71.9922C186.037 71.5547 186.488 71.23 187.007 71.0181C187.534 70.8062 188.104 70.7002 188.72 70.7002C189.417 70.7002 190.022 70.813 190.535 71.0386C191.047 71.2642 191.468 71.6025 191.796 72.0537C192.131 72.5049 192.377 73.062 192.534 73.7251C192.698 74.3882 192.78 75.1504 192.78 76.0117V77.2114H185.582V75.4067H190.422V75.1504C190.408 74.6445 190.347 74.2104 190.237 73.8481C190.128 73.479 189.95 73.1987 189.704 73.0073C189.465 72.8091 189.133 72.71 188.709 72.71C188.402 72.71 188.128 72.7681 187.889 72.8843C187.65 73.0005 187.452 73.1885 187.294 73.4482C187.144 73.708 187.028 74.0566 186.946 74.4941C186.864 74.9248 186.823 75.458 186.823 76.0938V77.1602C186.823 77.7139 186.871 78.1821 186.966 78.5649C187.069 78.9478 187.219 79.2622 187.417 79.5083C187.616 79.7476 187.855 79.9253 188.135 80.0415C188.422 80.1509 188.754 80.2056 189.13 80.2056C189.684 80.2056 190.159 80.103 190.555 79.8979C190.958 79.686 191.307 79.4126 191.601 79.0776L192.657 80.5439C192.459 80.8105 192.192 81.0737 191.857 81.3335C191.522 81.5864 191.116 81.7949 190.637 81.959C190.166 82.123 189.612 82.2051 188.976 82.2051ZM197.159 79.5186L199.333 70.9053H200.84L200.542 73.5405L198.379 82H197.046L197.159 79.5186ZM196.246 70.9053L197.907 79.5493L197.917 82H196.42L193.929 70.9053H196.246ZM202.593 79.4468L204.183 70.9053H206.51L204.019 82H202.521L202.593 79.4468ZM201.096 70.9053L203.239 79.4058L203.393 82H202.06L199.855 73.5405L199.568 70.9053H201.096ZM207.064 80.749C207.064 80.3525 207.19 80.021 207.443 79.7544C207.703 79.4878 208.059 79.3545 208.51 79.3545C208.961 79.3545 209.313 79.4878 209.566 79.7544C209.826 80.021 209.956 80.3525 209.956 80.749C209.956 81.1318 209.826 81.4565 209.566 81.7231C209.313 81.9897 208.961 82.123 208.51 82.123C208.059 82.123 207.703 81.9897 207.443 81.7231C207.19 81.4565 207.064 81.1318 207.064 80.749Z" fill="white"/>
</svg>
