<svg width="29" height="30" viewBox="0 0 29 30" fill="none" xmlns="http://www.w3.org/2000/svg">
<path d="M14.781 11.1393L23.2669 1.24001C23.3885 1.07257 23.5894 0.960938 23.8194 0.960938H27.5997C27.7504 0.963474 27.9011 1.01168 28.0253 1.11062C28.3108 1.33641 28.3531 1.74233 28.1152 2.01379L17.3268 14.6023L27.1979 28.023C27.412 28.3122 27.338 28.7131 27.0366 28.9186C26.9203 28.9972 26.7855 29.0353 26.6533 29.0353H21.5168C21.2763 29.0353 21.0648 28.9135 20.9458 28.7308L13.6839 18.8569L5.20073 28.7562C5.07912 28.9236 4.87821 29.0353 4.64822 29.0353H0.865273C0.714589 29.0327 0.563906 28.9845 0.439658 28.8856C0.154153 28.6598 0.111856 28.2539 0.349777 27.9824L11.1382 15.3964L1.26445 1.97573C1.05032 1.68652 1.12434 1.28567 1.42571 1.08018C1.54467 1.00153 1.67949 0.960938 1.81167 0.960938H6.94813C7.18869 0.960938 7.40018 1.08271 7.51914 1.26538L14.781 11.1393Z" fill="#473171"/>
</svg>
