<svg width="37" height="30" viewBox="0 0 37 30" fill="none" xmlns="http://www.w3.org/2000/svg">
<path d="M29.8182 0.960938H7.60552C3.77383 0.960938 0.664062 4.10526 0.664062 7.97952V22.0167C0.664062 25.8909 3.77383 29.0353 7.60552 29.0353H29.8182C33.6499 29.0353 36.7596 25.8909 36.7596 22.0167V7.97952C36.7596 4.10526 33.6499 0.960938 29.8182 0.960938ZM33.9831 22.0167C33.9831 24.3328 32.1089 26.2278 29.8182 26.2278H7.60552C5.31484 26.2278 3.44064 24.3328 3.44064 22.0167V7.97952C3.44064 5.66339 5.31484 3.76837 7.60552 3.76837H29.8182C32.1089 3.76837 33.9831 5.66339 33.9831 7.97952V22.0167Z" fill="#473171"/>
<path d="M22.6063 12.5108L16.9388 9.35119C16.0417 8.8575 14.9879 8.8575 14.1051 9.3794C13.2222 9.88718 12.6953 10.804 12.6953 11.8196V18.1952C12.6953 19.2108 13.2222 20.1276 14.1193 20.6354C14.5607 20.8893 15.0591 21.0162 15.5433 21.0162C16.0274 21.0162 16.5116 20.8893 16.953 20.6354L22.6205 17.4335C23.5176 16.9257 24.0587 16.0089 24.0587 14.9792C24.0587 13.9495 23.5176 13.0327 22.6063 12.5249V12.5108ZM15.5433 18.1811V11.8055L21.2108 14.9651L15.5433 18.1811Z" fill="#473171"/>
</svg>
